IBM Plex Sans Condensed-Bold Italic.ufo
<glyph name="exclam" format="1">
  <advance width="303"/>
  <unicode hex="0021"/>
  <outline>
    <contour>
      <point x="170" y="215" type="line" name="hr00"/>
      <point x="271" y="503" type="line"/>
      <point x="310" y="698" type="line"/>
      <point x="167" y="698" type="line"/>
      <point x="128" y="503" type="line"/>
      <point x="112" y="215" type="line"/>
    </contour>
    <contour>
      <point x="98" y="-10" type="curve" smooth="yes"/>
      <point x="148" y="-10"/>
      <point x="181" y="16"/>
      <point x="191" y="59" type="curve" smooth="yes"/>
      <point x="195" y="76"/>
      <point x="199" y="98"/>
      <point x="199" y="106" type="curve" smooth="yes"/>
      <point x="199" y="137"/>
      <point x="175" y="160"/>
      <point x="128" y="160" type="curve" smooth="yes"/>
      <point x="78" y="160"/>
      <point x="45" y="134"/>
      <point x="35" y="91" type="curve" smooth="yes"/>
      <point x="31" y="74"/>
      <point x="27" y="52"/>
      <point x="27" y="44" type="curve" smooth="yes"/>
      <point x="27" y="13"/>
      <point x="51" y="-10"/>
    </contour>
  </outline>
</glyph>
<glyph name="numbersign" format="1">
  <advance width="575"/>
  <unicode hex="0023"/>
  <outline>
    <contour>
      <point x="251" y="0" type="line" name="hr00"/>
      <point x="332" y="0" type="line"/>
      <point x="395" y="177" type="line"/>
      <point x="500" y="177" type="line"/>
      <point x="514" y="247" type="line"/>
      <point x="420" y="247" type="line"/>
      <point x="494" y="452" type="line"/>
      <point x="605" y="452" type="line"/>
      <point x="619" y="522" type="line"/>
      <point x="519" y="522" type="line"/>
      <point x="582" y="698" type="line"/>
      <point x="502" y="698" type="line"/>
      <point x="439" y="522" type="line"/>
      <point x="296" y="522" type="line"/>
      <point x="359" y="698" type="line"/>
      <point x="279" y="698" type="line"/>
      <point x="216" y="522" type="line"/>
      <point x="110" y="522" type="line"/>
      <point x="96" y="452" type="line"/>
      <point x="191" y="452" type="line"/>
      <point x="117" y="247" type="line"/>
      <point x="5" y="247" type="line"/>
      <point x="-9" y="177" type="line"/>
      <point x="92" y="177" type="line"/>
      <point x="28" y="0" type="line"/>
      <point x="109" y="0" type="line"/>
      <point x="172" y="177" type="line"/>
      <point x="315" y="177" type="line"/>
    </contour>
    <contour>
      <point x="197" y="247" type="line"/>
      <point x="271" y="452" type="line"/>
      <point x="414" y="452" type="line"/>
      <point x="340" y="247" type="line"/>
    </contour>
  </outline>
</glyph>
<glyph name="dollar" format="1">
  <advance width="510"/>
  <unicode hex="0024"/>
  <outline>
    <contour>
      <point x="134" y="-82" type="line" name="hr00"/>
      <point x="238" y="-82" type="line"/>
      <point x="256" y="8" type="line"/>
      <point x="386" y="22"/>
      <point x="471" y="112"/>
      <point x="471" y="238" type="curve" smooth="yes"/>
      <point x="471" y="325"/>
      <point x="424" y="372"/>
      <point x="322" y="405" type="curve"/>
      <point x="357" y="579" type="line"/>
      <point x="390" y="569"/>
      <point x="421" y="547"/>
      <point x="437" y="517" type="curve"/>
      <point x="525" y="595" type="line"/>
      <point x="505" y="637"/>
      <point x="453" y="672"/>
      <point x="391" y="685" type="curve"/>
      <point x="410" y="780" type="line"/>
      <point x="306" y="780" type="line"/>
      <point x="288" y="690" type="line"/>
      <point x="155" y="678"/>
      <point x="75" y="597"/>
      <point x="75" y="478" type="curve" smooth="yes"/>
      <point x="75" y="387"/>
      <point x="122" y="339"/>
      <point x="224" y="308" type="curve"/>
      <point x="185" y="117" type="line"/>
      <point x="141" y="128"/>
      <point x="104" y="155"/>
      <point x="87" y="192" type="curve"/>
      <point x="-2" y="112" type="line"/>
      <point x="19" y="67"/>
      <point x="81" y="27"/>
      <point x="153" y="12" type="curve"/>
    </contour>
    <contour>
      <point x="344" y="216" type="curve" smooth="yes"/>
      <point x="344" y="158"/>
      <point x="314" y="119"/>
      <point x="263" y="112" type="curve"/>
      <point x="300" y="287" type="line"/>
      <point x="332" y="276"/>
      <point x="344" y="255"/>
    </contour>
    <contour>
      <point x="200" y="495" type="curve" smooth="yes"/>
      <point x="200" y="545"/>
      <point x="229" y="579"/>
      <point x="280" y="585" type="curve"/>
      <point x="247" y="427" type="line"/>
      <point x="213" y="439"/>
      <point x="200" y="459"/>
    </contour>
  </outline>
</glyph>
<glyph name="ampersand" format="1">
  <advance width="641"/>
  <unicode hex="0026"/>
  <outline>
    <contour>
      <point x="425" y="0" type="line"/>
      <point x="584" y="0" type="line"/>
      <point x="490" y="150" type="line"/>
      <point x="517" y="201"/>
      <point x="530" y="233"/>
      <point x="540" y="271" type="curve"/>
      <point x="610" y="271" type="line"/>
      <point x="633" y="383" type="line"/>
      <point x="474" y="383" type="line"/>
      <point x="466" y="339"/>
      <point x="455" y="297"/>
      <point x="432" y="242" type="curve"/>
      <point x="359" y="359" type="line"/>
      <point x="480" y="430"/>
      <point x="523" y="484"/>
      <point x="523" y="566" type="curve" smooth="yes"/>
      <point x="523" y="658"/>
      <point x="466" y="710"/>
      <point x="358" y="710" type="curve" smooth="yes"/>
      <point x="223" y="710"/>
      <point x="144" y="642"/>
      <point x="144" y="527" type="curve" smooth="yes"/>
      <point x="144" y="490"/>
      <point x="164" y="434"/>
      <point x="197" y="382" type="curve"/>
      <point x="92" y="331"/>
      <point x="29" y="246"/>
      <point x="29" y="150" type="curve" smooth="yes" name="hr01"/>
      <point x="29" y="48"/>
      <point x="82" y="-12"/>
      <point x="200" y="-12" type="curve" smooth="yes"/>
      <point x="294" y="-12"/>
      <point x="343" y="28"/>
      <point x="352" y="100" type="curve" name="hr02"/>
      <point x="366" y="100" type="line"/>
    </contour>
    <contour>
      <point x="342" y="608" type="curve" smooth="yes"/>
      <point x="377" y="608"/>
      <point x="389" y="590"/>
      <point x="389" y="555" type="curve" smooth="yes"/>
      <point x="389" y="505"/>
      <point x="368" y="473"/>
      <point x="309" y="437" type="curve"/>
      <point x="287" y="474"/>
      <point x="278" y="499"/>
      <point x="278" y="521" type="curve" smooth="yes"/>
      <point x="278" y="531"/>
      <point x="279" y="541"/>
      <point x="281" y="551" type="curve" smooth="yes"/>
      <point x="289" y="592"/>
      <point x="307" y="608"/>
    </contour>
    <contour>
      <point x="250" y="100" type="curve" smooth="yes" name="hr03"/>
      <point x="189" y="100"/>
      <point x="167" y="127"/>
      <point x="167" y="177" type="curve" smooth="yes"/>
      <point x="167" y="185"/>
      <point x="168" y="200"/>
      <point x="170" y="210" type="curve" smooth="yes"/>
      <point x="178" y="251"/>
      <point x="197" y="275"/>
      <point x="241" y="306" type="curve"/>
      <point x="341" y="138" type="line"/>
      <point x="314" y="114"/>
      <point x="296" y="100"/>
    </contour>
  </outline>
</glyph>
<glyph name="quotesingle" format="1">
  <advance width="245"/>
  <unicode hex="0027"/>
  <outline>
    <contour>
      <point x="217" y="420" type="line" name="hr00"/>
      <point x="281" y="740" type="line"/>
      <point x="156" y="740" type="line"/>
      <point x="92" y="420" type="line"/>
    </contour>
  </outline>
</glyph>
<glyph name="parenleft" format="1">
  <advance width="332"/>
  <unicode hex="0028"/>
  <outline>
    <contour>
      <point x="49" y="210" type="curve" smooth="yes" name="hr00"/>
      <point x="49" y="84"/>
      <point x="94" y="-50"/>
      <point x="165" y="-137" type="curve"/>
      <point x="292" y="-137" type="line"/>
      <point x="211" y="-39"/>
      <point x="169" y="80"/>
      <point x="169" y="209" type="curve" smooth="yes"/>
      <point x="169" y="240"/>
      <point x="170" y="252"/>
      <point x="173" y="269" type="curve" smooth="yes"/>
      <point x="194" y="373" type="line" smooth="yes"/>
      <point x="219" y="498"/>
      <point x="323" y="644"/>
      <point x="470" y="760" type="curve"/>
      <point x="326" y="760" type="line"/>
      <point x="159" y="636"/>
      <point x="49" y="419"/>
    </contour>
  </outline>
</glyph>
<glyph name="parenright" format="1">
  <advance width="332"/>
  <unicode hex="0029"/>
  <outline>
    <contour>
      <point x="302" y="413" type="curve" smooth="yes" name="hr00"/>
      <point x="302" y="539"/>
      <point x="257" y="673"/>
      <point x="186" y="760" type="curve"/>
      <point x="59" y="760" type="line"/>
      <point x="140" y="662"/>
      <point x="182" y="543"/>
      <point x="182" y="414" type="curve" smooth="yes"/>
      <point x="182" y="383"/>
      <point x="181" y="371"/>
      <point x="178" y="354" type="curve" smooth="yes"/>
      <point x="157" y="250" type="line" smooth="yes"/>
      <point x="132" y="125"/>
      <point x="28" y="-21"/>
      <point x="-119" y="-137" type="curve"/>
      <point x="25" y="-137" type="line"/>
      <point x="192" y="-13"/>
      <point x="302" y="204"/>
    </contour>
  </outline>
</glyph>
<glyph name="asterisk" format="1">
  <advance width="550"/>
  <unicode hex="002A"/>
  <outline>
    <contour>
      <point x="294" y="434" type="line" name="hr00"/>
      <point x="308" y="434" type="line"/>
      <point x="358" y="266" type="line"/>
      <point x="471" y="338" type="line"/>
      <point x="370" y="472" type="line"/>
      <point x="376" y="486" type="line"/>
      <point x="573" y="518" type="line"/>
      <point x="561" y="634" type="line"/>
      <point x="371" y="550" type="line"/>
      <point x="361" y="559" type="line"/>
      <point x="433" y="747" type="line"/>
      <point x="310" y="747" type="line"/>
      <point x="294" y="557" type="line"/>
      <point x="280" y="548" type="line"/>
      <point x="129" y="635" type="line"/>
      <point x="65" y="526" type="line"/>
      <point x="245" y="494" type="line"/>
      <point x="246" y="477" type="line"/>
      <point x="82" y="337" type="line"/>
      <point x="165" y="267" type="line"/>
    </contour>
  </outline>
</glyph>
<glyph name="plus" format="1">
  <advance width="540"/>
  <unicode hex="002B"/>
  <outline>
    <contour>
      <point x="295" y="90" type="line" name="hr00"/>
      <point x="328" y="253" type="line"/>
      <point x="478" y="253" type="line"/>
      <point x="500" y="362" type="line"/>
      <point x="350" y="362" type="line"/>
      <point x="383" y="525" type="line"/>
      <point x="263" y="525" type="line"/>
      <point x="230" y="362" type="line"/>
      <point x="80" y="362" type="line"/>
      <point x="58" y="253" type="line"/>
      <point x="208" y="253" type="line"/>
      <point x="175" y="90" type="line"/>
    </contour>
  </outline>
</glyph>
<glyph name="comma" format="1">
  <advance width="283"/>
  <unicode hex="002C"/>
  <outline>
    <contour>
      <point x="119" y="160" type="curve" smooth="yes" name="hr00"/>
      <point x="69" y="160"/>
      <point x="36" y="134"/>
      <point x="26" y="91" type="curve" smooth="yes"/>
      <point x="22" y="74"/>
      <point x="18" y="52"/>
      <point x="18" y="44" type="curve" smooth="yes"/>
      <point x="18" y="18"/>
      <point x="37" y="-7"/>
      <point x="72" y="-8" type="curve"/>
      <point x="47" y="-60"/>
      <point x="5" y="-101"/>
      <point x="-47" y="-145" type="curve"/>
      <point x="44" y="-145" type="line"/>
      <point x="113" y="-93"/>
      <point x="165" y="-17"/>
      <point x="182" y="59" type="curve" smooth="yes"/>
      <point x="186" y="76"/>
      <point x="190" y="98"/>
      <point x="190" y="106" type="curve" smooth="yes"/>
      <point x="190" y="137"/>
      <point x="166" y="160"/>
    </contour>
  </outline>
</glyph>
<glyph name="hyphen" format="1">
  <advance width="359"/>
  <unicode hex="002D"/>
  <outline>
    <contour>
      <point x="310" y="241" type="line" name="hr00"/>
      <point x="336" y="368" type="line"/>
      <point x="66" y="368" type="line"/>
      <point x="40" y="241" type="line"/>
    </contour>
  </outline>
</glyph>
<glyph name="period" format="1">
  <advance width="283"/>
  <unicode hex="002E"/>
  <outline>
    <contour>
      <point x="89" y="-10" type="curve" smooth="yes" name="hr00"/>
      <point x="139" y="-10"/>
      <point x="172" y="16"/>
      <point x="182" y="59" type="curve" smooth="yes"/>
      <point x="186" y="76"/>
      <point x="190" y="98"/>
      <point x="190" y="106" type="curve" smooth="yes"/>
      <point x="190" y="137"/>
      <point x="166" y="160"/>
      <point x="119" y="160" type="curve" smooth="yes"/>
      <point x="69" y="160"/>
      <point x="36" y="134"/>
      <point x="26" y="91" type="curve" smooth="yes"/>
      <point x="22" y="74"/>
      <point x="18" y="52"/>
      <point x="18" y="44" type="curve" smooth="yes"/>
      <point x="18" y="13"/>
      <point x="42" y="-10"/>
    </contour>
  </outline>
</glyph>
<glyph name="slash" format="1">
  <advance width="453"/>
  <unicode hex="002F"/>
  <outline>
    <contour>
      <point x="53" y="-151" type="line" name="hr00"/>
      <point x="501" y="740" type="line"/>
      <point x="382" y="740" type="line"/>
      <point x="-66" y="-151" type="line"/>
    </contour>
  </outline>
</glyph>
<glyph name="zero" format="1">
  <advance width="540"/>
  <unicode hex="0030"/>
  <outline>
    <contour>
      <point x="226" y="-12" type="curve" smooth="yes" name="hr00"/>
      <point x="377" y="-12"/>
      <point x="469" y="82"/>
      <point x="511" y="278" type="curve" smooth="yes"/>
      <point x="531" y="376"/>
      <point x="539" y="435"/>
      <point x="539" y="489" type="curve" smooth="yes"/>
      <point x="539" y="638"/>
      <point x="477" y="710"/>
      <point x="348" y="710" type="curve" smooth="yes"/>
      <point x="197" y="710"/>
      <point x="105" y="616"/>
      <point x="63" y="420" type="curve" smooth="yes"/>
      <point x="43" y="322"/>
      <point x="35" y="263"/>
      <point x="35" y="209" type="curve" smooth="yes"/>
      <point x="35" y="60"/>
      <point x="97" y="-12"/>
    </contour>
    <contour>
      <point x="240" y="100" type="curve" smooth="yes"/>
      <point x="188" y="100"/>
      <point x="171" y="129"/>
      <point x="171" y="191" type="curve" smooth="yes"/>
      <point x="171" y="213"/>
      <point x="176" y="249"/>
      <point x="184" y="289" type="curve" smooth="yes"/>
      <point x="208" y="412" type="line" smooth="yes"/>
      <point x="237" y="563"/>
      <point x="262" y="598"/>
      <point x="334" y="598" type="curve" smooth="yes"/>
      <point x="386" y="598"/>
      <point x="403" y="569"/>
      <point x="403" y="507" type="curve" smooth="yes"/>
      <point x="403" y="485"/>
      <point x="398" y="449"/>
      <point x="390" y="409" type="curve" smooth="yes"/>
      <point x="366" y="286" type="line" smooth="yes"/>
      <point x="337" y="135"/>
      <point x="312" y="100"/>
    </contour>
  </outline>
</glyph>
<glyph name="one" format="1">
  <advance width="540"/>
  <unicode hex="0031"/>
  <outline>
    <contour>
      <point x="443" y="0" type="line" name="hr00"/>
      <point x="465" y="112" type="line"/>
      <point x="335" y="112" type="line"/>
      <point x="453" y="698" type="line"/>
      <point x="309" y="698" type="line"/>
      <point x="101" y="573" type="line"/>
      <point x="144" y="480" type="line"/>
      <point x="291" y="567" type="line"/>
      <point x="200" y="112" type="line"/>
      <point x="59" y="112" type="line"/>
      <point x="37" y="0" type="line"/>
    </contour>
  </outline>
</glyph>
<glyph name="two" format="1">
  <advance width="540"/>
  <unicode hex="0032"/>
  <outline>
    <contour>
      <point x="461" y="114" type="line" name="hr00"/>
      <point x="187" y="114" type="line"/>
      <point x="348" y="246" type="line" smooth="yes"/>
      <point x="435" y="317"/>
      <point x="523" y="396"/>
      <point x="523" y="524" type="curve" smooth="yes"/>
      <point x="523" y="647"/>
      <point x="459" y="710"/>
      <point x="324" y="710" type="curve" smooth="yes"/>
      <point x="196" y="710"/>
      <point x="131" y="651"/>
      <point x="89" y="536" type="curve"/>
      <point x="203" y="489" type="line"/>
      <point x="222" y="560"/>
      <point x="249" y="592"/>
      <point x="309" y="592" type="curve" smooth="yes"/>
      <point x="362" y="592"/>
      <point x="383" y="567"/>
      <point x="383" y="517" type="curve" smooth="yes"/>
      <point x="383" y="504"/>
      <point x="380" y="491"/>
      <point x="378" y="479" type="curve" smooth="yes"/>
      <point x="366" y="420"/>
      <point x="342" y="383"/>
      <point x="261" y="316" type="curve" smooth="yes"/>
      <point x="30" y="125" type="line"/>
      <point x="5" y="0" type="line"/>
      <point x="438" y="0" type="line"/>
    </contour>
  </outline>
</glyph>
<glyph name="three" format="1">
  <advance width="540"/>
  <unicode hex="0033"/>
  <outline>
    <contour>
      <point x="209" y="418" type="line"/>
      <point x="186" y="304" type="line"/>
      <point x="250" y="304" type="line" smooth="yes"/>
      <point x="307" y="304"/>
      <point x="331" y="278"/>
      <point x="331" y="228" type="curve" smooth="yes"/>
      <point x="331" y="217"/>
      <point x="329" y="205"/>
      <point x="327" y="194" type="curve" smooth="yes"/>
      <point x="314" y="130"/>
      <point x="282" y="100"/>
      <point x="222" y="100" type="curve" smooth="yes"/>
      <point x="154" y="100"/>
      <point x="122" y="135"/>
      <point x="109" y="191" type="curve"/>
      <point x="9" y="120" type="line"/>
      <point x="31" y="47"/>
      <point x="94" y="-12"/>
      <point x="214" y="-12" type="curve" smooth="yes"/>
      <point x="392" y="-12"/>
      <point x="472" y="84"/>
      <point x="472" y="220" type="curve" smooth="yes"/>
      <point x="472" y="296"/>
      <point x="432" y="352"/>
      <point x="359" y="357" type="curve"/>
      <point x="362" y="371" type="line"/>
      <point x="464" y="379"/>
      <point x="521" y="455"/>
      <point x="521" y="550" type="curve" smooth="yes" name="hr01"/>
      <point x="521" y="655"/>
      <point x="457" y="710"/>
      <point x="329" y="710" type="curve" smooth="yes"/>
      <point x="222" y="710"/>
      <point x="156" y="667"/>
      <point x="104" y="599" type="curve"/>
      <point x="177" y="515" type="line"/>
      <point x="210" y="574"/>
      <point x="256" y="598"/>
      <point x="302" y="598" type="curve" smooth="yes"/>
      <point x="352" y="598"/>
      <point x="379" y="578"/>
      <point x="379" y="530" type="curve" smooth="yes"/>
      <point x="379" y="521"/>
      <point x="377" y="508"/>
      <point x="375" y="496" type="curve" smooth="yes"/>
      <point x="366" y="445"/>
      <point x="338" y="418"/>
      <point x="268" y="418" type="curve" smooth="yes"/>
    </contour>
  </outline>
</glyph>
<glyph name="four" format="1">
  <advance width="540"/>
  <unicode hex="0034"/>
  <outline>
    <contour>
      <point x="377" y="0" type="line" name="hr00"/>
      <point x="404" y="134" type="line"/>
      <point x="482" y="134" type="line"/>
      <point x="503" y="240" type="line"/>
      <point x="425" y="240" type="line"/>
      <point x="517" y="698" type="line"/>
      <point x="353" y="698" type="line"/>
      <point x="29" y="255" type="line"/>
      <point x="4" y="134" type="line"/>
      <point x="277" y="134" type="line"/>
      <point x="250" y="0" type="line"/>
    </contour>
    <contour>
      <point x="345" y="545" type="line"/>
      <point x="359" y="545" type="line"/>
      <point x="298" y="240" type="line"/>
      <point x="134" y="240" type="line"/>
    </contour>
  </outline>
</glyph>
<glyph name="five" format="1">
  <advance width="540"/>
  <unicode hex="0035"/>
  <outline>
    <contour>
      <point x="537" y="698" type="line" name="hr00"/>
      <point x="164" y="698" type="line"/>
      <point x="65" y="304" type="line"/>
      <point x="171" y="288" type="line"/>
      <point x="190" y="316"/>
      <point x="218" y="340"/>
      <point x="268" y="340" type="curve" smooth="yes"/>
      <point x="320" y="340"/>
      <point x="347" y="316"/>
      <point x="347" y="255" type="curve" smooth="yes"/>
      <point x="347" y="239"/>
      <point x="345" y="228"/>
      <point x="342" y="210" type="curve" smooth="yes"/>
      <point x="329" y="139"/>
      <point x="300" y="100"/>
      <point x="231" y="100" type="curve" smooth="yes"/>
      <point x="172" y="100"/>
      <point x="138" y="134"/>
      <point x="123" y="191" type="curve"/>
      <point x="12" y="121" type="line"/>
      <point x="34" y="49"/>
      <point x="87" y="-12"/>
      <point x="222" y="-12" type="curve" smooth="yes"/>
      <point x="400" y="-12"/>
      <point x="492" y="108"/>
      <point x="492" y="267" type="curve" smooth="yes"/>
      <point x="492" y="402"/>
      <point x="436" y="452"/>
      <point x="336" y="452" type="curve" smooth="yes"/>
      <point x="262" y="452"/>
      <point x="219" y="416"/>
      <point x="192" y="347" type="curve"/>
      <point x="178" y="347" type="line"/>
      <point x="236" y="578" type="line"/>
      <point x="513" y="578" type="line"/>
    </contour>
  </outline>
</glyph>
<glyph name="six" format="1">
  <advance width="540"/>
  <unicode hex="0036"/>
  <outline>
    <contour>
      <point x="233" y="-12" type="curve" smooth="yes" name="hr00"/>
      <point x="382" y="-12"/>
      <point x="468" y="71"/>
      <point x="494" y="200" type="curve" smooth="yes"/>
      <point x="498" y="220"/>
      <point x="502" y="241"/>
      <point x="502" y="273" type="curve" smooth="yes"/>
      <point x="502" y="384"/>
      <point x="454" y="447"/>
      <point x="359" y="447" type="curve" smooth="yes"/>
      <point x="281" y="447"/>
      <point x="238" y="403"/>
      <point x="215" y="346" type="curve"/>
      <point x="201" y="346" type="line"/>
      <point x="251" y="491"/>
      <point x="366" y="585"/>
      <point x="535" y="698" type="curve"/>
      <point x="339" y="698" type="line"/>
      <point x="217" y="622"/>
      <point x="80" y="497"/>
      <point x="34" y="256" type="curve" smooth="yes"/>
      <point x="30" y="235"/>
      <point x="27" y="209"/>
      <point x="27" y="180" type="curve" smooth="yes"/>
      <point x="27" y="55"/>
      <point x="99" y="-12"/>
    </contour>
    <contour>
      <point x="248" y="100" type="curve" smooth="yes"/>
      <point x="192" y="100"/>
      <point x="171" y="126"/>
      <point x="171" y="176" type="curve" smooth="yes"/>
      <point x="171" y="192"/>
      <point x="173" y="206"/>
      <point x="177" y="227" type="curve" smooth="yes"/>
      <point x="192" y="303"/>
      <point x="219" y="335"/>
      <point x="282" y="335" type="curve" smooth="yes"/>
      <point x="338" y="335"/>
      <point x="359" y="309"/>
      <point x="359" y="259" type="curve" smooth="yes"/>
      <point x="359" y="243"/>
      <point x="357" y="229"/>
      <point x="353" y="208" type="curve" smooth="yes"/>
      <point x="338" y="132"/>
      <point x="310" y="100"/>
    </contour>
  </outline>
</glyph>
<glyph name="seven" format="1">
  <advance width="540"/>
  <unicode hex="0037"/>
  <outline>
    <contour>
      <point x="236" y="0" type="line" name="hr00"/>
      <point x="544" y="578" type="line"/>
      <point x="568" y="698" type="line"/>
      <point x="128" y="698" type="line"/>
      <point x="80" y="458" type="line"/>
      <point x="194" y="458" type="line"/>
      <point x="220" y="586" type="line"/>
      <point x="410" y="586" type="line"/>
      <point x="90" y="0" type="line"/>
    </contour>
  </outline>
</glyph>
<glyph name="eight" format="1">
  <advance width="540"/>
  <unicode hex="0038"/>
  <outline>
    <contour>
      <point x="218" y="-12" type="curve" smooth="yes"/>
      <point x="381" y="-12"/>
      <point x="489" y="77"/>
      <point x="489" y="217" type="curve" smooth="yes"/>
      <point x="489" y="293"/>
      <point x="450" y="347"/>
      <point x="387" y="356" type="curve"/>
      <point x="390" y="370" type="line"/>
      <point x="477" y="387"/>
      <point x="537" y="468"/>
      <point x="537" y="553" type="curve" smooth="yes" name="hr01"/>
      <point x="537" y="653"/>
      <point x="473" y="710"/>
      <point x="348" y="710" type="curve" smooth="yes"/>
      <point x="181" y="710"/>
      <point x="99" y="617"/>
      <point x="99" y="501" type="curve" smooth="yes"/>
      <point x="99" y="437"/>
      <point x="132" y="384"/>
      <point x="188" y="371" type="curve"/>
      <point x="185" y="358" type="line"/>
      <point x="83" y="348"/>
      <point x="19" y="261"/>
      <point x="19" y="162" type="curve" smooth="yes" name="hr02"/>
      <point x="19" y="51"/>
      <point x="94" y="-12"/>
    </contour>
    <contour>
      <point x="236" y="94" type="curve"/>
      <point x="176" y="94"/>
      <point x="157" y="117"/>
      <point x="157" y="152" type="curve" smooth="yes"/>
      <point x="157" y="168"/>
      <point x="162" y="188"/>
      <point x="169" y="218" type="curve" smooth="yes"/>
      <point x="183" y="279"/>
      <point x="204" y="306"/>
      <point x="271" y="306" type="curve"/>
      <point x="332" y="306"/>
      <point x="351" y="283"/>
      <point x="351" y="248" type="curve" smooth="yes"/>
      <point x="351" y="232"/>
      <point x="346" y="212"/>
      <point x="339" y="182" type="curve" smooth="yes"/>
      <point x="325" y="121"/>
      <point x="304" y="94"/>
    </contour>
    <contour>
      <point x="298" y="410" type="curve" smooth="yes"/>
      <point x="243" y="410"/>
      <point x="225" y="435"/>
      <point x="225" y="472" type="curve" smooth="yes" name="hr03"/>
      <point x="225" y="484"/>
      <point x="228" y="499"/>
      <point x="232" y="518" type="curve" smooth="yes"/>
      <point x="244" y="576"/>
      <point x="265" y="604"/>
      <point x="328" y="604" type="curve" smooth="yes"/>
      <point x="383" y="604"/>
      <point x="401" y="579"/>
      <point x="401" y="542" type="curve" smooth="yes"/>
      <point x="401" y="530"/>
      <point x="398" y="515"/>
      <point x="394" y="496" type="curve" smooth="yes"/>
      <point x="382" y="438"/>
      <point x="361" y="410"/>
    </contour>
  </outline>
</glyph>
<glyph name="nine" format="1">
  <advance width="540"/>
  <unicode hex="0039"/>
  <outline>
    <contour>
      <point x="212" y="251" type="curve" smooth="yes" name="hr00"/>
      <point x="290" y="251"/>
      <point x="333" y="295"/>
      <point x="356" y="352" type="curve"/>
      <point x="370" y="352" type="line"/>
      <point x="320" y="207"/>
      <point x="205" y="113"/>
      <point x="36" y="0" type="curve"/>
      <point x="232" y="0" type="line"/>
      <point x="354" y="76"/>
      <point x="491" y="201"/>
      <point x="537" y="442" type="curve" smooth="yes"/>
      <point x="541" y="463"/>
      <point x="544" y="489"/>
      <point x="544" y="518" type="curve" smooth="yes"/>
      <point x="544" y="643"/>
      <point x="472" y="710"/>
      <point x="338" y="710" type="curve" smooth="yes"/>
      <point x="189" y="710"/>
      <point x="103" y="627"/>
      <point x="77" y="498" type="curve" smooth="yes"/>
      <point x="73" y="478"/>
      <point x="69" y="457"/>
      <point x="69" y="425" type="curve" smooth="yes"/>
      <point x="69" y="314"/>
      <point x="117" y="251"/>
    </contour>
    <contour>
      <point x="289" y="363" type="curve" smooth="yes"/>
      <point x="233" y="363"/>
      <point x="212" y="389"/>
      <point x="212" y="439" type="curve" smooth="yes"/>
      <point x="212" y="455"/>
      <point x="214" y="469"/>
      <point x="218" y="490" type="curve" smooth="yes"/>
      <point x="233" y="566"/>
      <point x="261" y="598"/>
      <point x="323" y="598" type="curve" smooth="yes"/>
      <point x="379" y="598"/>
      <point x="400" y="572"/>
      <point x="400" y="522" type="curve" smooth="yes"/>
      <point x="400" y="506"/>
      <point x="398" y="492"/>
      <point x="394" y="471" type="curve" smooth="yes"/>
      <point x="379" y="395"/>
      <point x="352" y="363"/>
    </contour>
  </outline>
</glyph>
<glyph name="less" format="1">
  <advance width="540"/>
  <unicode hex="003C"/>
  <outline>
    <contour>
      <point x="389" y="-4" type="line" name="hr00"/>
      <point x="418" y="139" type="line"/>
      <point x="232" y="288" type="line"/>
      <point x="235" y="304" type="line"/>
      <point x="478" y="442" type="line"/>
      <point x="510" y="600" type="line"/>
      <point x="97" y="353" type="line"/>
      <point x="79" y="262" type="line"/>
    </contour>
  </outline>
</glyph>
<glyph name="equal" format="1">
  <advance width="540"/>
  <unicode hex="003D"/>
  <outline>
    <contour>
      <point x="499" y="362" type="line" name="hr00"/>
      <point x="521" y="471" type="line"/>
      <point x="101" y="471" type="line"/>
      <point x="79" y="362" type="line"/>
    </contour>
    <contour>
      <point x="456" y="144" type="line"/>
      <point x="478" y="253" type="line"/>
      <point x="58" y="253" type="line"/>
      <point x="36" y="144" type="line"/>
    </contour>
  </outline>
</glyph>
<glyph name="greater" format="1">
  <advance width="540"/>
  <unicode hex="003E"/>
  <outline>
    <contour>
      <point x="44" y="-4" type="line" name="hr00"/>
      <point x="457" y="243" type="line"/>
      <point x="475" y="334" type="line"/>
      <point x="165" y="600" type="line"/>
      <point x="136" y="457" type="line"/>
      <point x="322" y="308" type="line"/>
      <point x="319" y="292" type="line"/>
      <point x="76" y="154" type="line"/>
    </contour>
  </outline>
</glyph>
<glyph name="question" format="1">
  <advance width="442"/>
  <unicode hex="003F"/>
  <outline>
    <contour>
      <point x="258" y="230" type="line" name="hr00"/>
      <point x="274" y="310" type="line"/>
      <point x="382" y="335"/>
      <point x="465" y="424"/>
      <point x="465" y="547" type="curve" smooth="yes"/>
      <point x="465" y="653"/>
      <point x="401" y="710"/>
      <point x="283" y="710" type="curve" smooth="yes"/>
      <point x="163" y="710"/>
      <point x="100" y="651"/>
      <point x="57" y="549" type="curve"/>
      <point x="164" y="502" type="line"/>
      <point x="182" y="561"/>
      <point x="214" y="595"/>
      <point x="262" y="595" type="curve" smooth="yes"/>
      <point x="301" y="595"/>
      <point x="325" y="575"/>
      <point x="325" y="533" type="curve" smooth="yes"/>
      <point x="325" y="523"/>
      <point x="321" y="500"/>
      <point x="319" y="490" type="curve" smooth="yes"/>
      <point x="306" y="425"/>
      <point x="256" y="392"/>
      <point x="159" y="383" type="curve"/>
      <point x="128" y="230" type="line"/>
    </contour>
    <contour>
      <point x="151" y="-10" type="curve" smooth="yes"/>
      <point x="201" y="-10"/>
      <point x="234" y="16"/>
      <point x="244" y="59" type="curve" smooth="yes"/>
      <point x="248" y="76"/>
      <point x="252" y="98"/>
      <point x="252" y="106" type="curve" smooth="yes"/>
      <point x="252" y="137"/>
      <point x="228" y="160"/>
      <point x="181" y="160" type="curve" smooth="yes"/>
      <point x="131" y="160"/>
      <point x="98" y="134"/>
      <point x="88" y="91" type="curve" smooth="yes"/>
      <point x="84" y="74"/>
      <point x="80" y="52"/>
      <point x="80" y="44" type="curve" smooth="yes"/>
      <point x="80" y="13"/>
      <point x="104" y="-10"/>
    </contour>
  </outline>
</glyph>
<glyph name="at" format="1">
  <advance width="808"/>
  <unicode hex="0040"/>
  <outline>
    <contour>
      <point x="511" y="-120" type="line" name="hr00"/>
      <point x="526" y="-46" type="line"/>
      <point x="366" y="-46" type="line" smooth="yes"/>
      <point x="222" y="-46"/>
      <point x="143" y="49"/>
      <point x="143" y="202" type="curve" smooth="yes"/>
      <point x="143" y="231"/>
      <point x="148" y="258"/>
      <point x="154" y="289" type="curve" smooth="yes"/>
      <point x="162" y="332" type="line" smooth="yes"/>
      <point x="196" y="515"/>
      <point x="299" y="636"/>
      <point x="472" y="636" type="curve" smooth="yes"/>
      <point x="615" y="636"/>
      <point x="690" y="554"/>
      <point x="690" y="414" type="curve" smooth="yes"/>
      <point x="690" y="395"/>
      <point x="688" y="371"/>
      <point x="684" y="350" type="curve" smooth="yes"/>
      <point x="677" y="315" type="line" smooth="yes"/>
      <point x="656" y="210"/>
      <point x="632" y="163"/>
      <point x="581" y="163" type="curve" smooth="yes"/>
      <point x="563" y="163"/>
      <point x="555" y="174"/>
      <point x="555" y="194" type="curve" smooth="yes"/>
      <point x="555" y="202"/>
      <point x="557" y="211"/>
      <point x="559" y="223" type="curve" smooth="yes"/>
      <point x="612" y="490" type="line"/>
      <point x="508" y="490" type="line"/>
      <point x="495" y="423" type="line"/>
      <point x="485" y="423" type="line"/>
      <point x="481" y="468"/>
      <point x="455" y="498"/>
      <point x="408" y="498" type="curve" smooth="yes"/>
      <point x="325" y="498"/>
      <point x="266" y="435"/>
      <point x="238" y="301" type="curve" smooth="yes"/>
      <point x="232" y="271"/>
      <point x="228" y="247"/>
      <point x="228" y="226" type="curve" smooth="yes"/>
      <point x="228" y="130"/>
      <point x="262" y="82"/>
      <point x="333" y="82" type="curve" smooth="yes"/>
      <point x="386" y="82"/>
      <point x="433" y="123"/>
      <point x="445" y="173" type="curve"/>
      <point x="455" y="173" type="line"/>
      <point x="455" y="163" type="line" smooth="yes"/>
      <point x="455" y="114"/>
      <point x="491" y="82"/>
      <point x="556" y="82" type="curve" smooth="yes"/>
      <point x="666" y="82"/>
      <point x="739" y="182"/>
      <point x="766" y="316" type="curve" smooth="yes"/>
      <point x="772" y="346"/>
      <point x="775" y="373"/>
      <point x="775" y="403" type="curve" smooth="yes"/>
      <point x="775" y="593"/>
      <point x="665" y="710"/>
      <point x="484" y="710" type="curve" smooth="yes"/>
      <point x="253" y="710"/>
      <point x="112" y="549"/>
      <point x="66" y="319" type="curve" smooth="yes"/>
      <point x="57" y="274"/>
      <point x="54" y="237"/>
      <point x="54" y="202" type="curve" smooth="yes"/>
      <point x="54" y="10"/>
      <point x="160" y="-120"/>
      <point x="352" y="-120" type="curve" smooth="yes"/>
    </contour>
    <contour>
      <point x="383" y="168" type="curve" smooth="yes"/>
      <point x="349" y="168"/>
      <point x="335" y="183"/>
      <point x="335" y="226" type="curve" smooth="yes"/>
      <point x="335" y="236"/>
      <point x="336" y="243"/>
      <point x="338" y="255" type="curve" smooth="yes"/>
      <point x="352" y="327" type="line" smooth="yes"/>
      <point x="364" y="387"/>
      <point x="385" y="412"/>
      <point x="426" y="412" type="curve" smooth="yes"/>
      <point x="462" y="412"/>
      <point x="488" y="389"/>
      <point x="480" y="348" type="curve" smooth="yes"/>
      <point x="459" y="245" type="line" smooth="yes"/>
      <point x="450" y="202"/>
      <point x="420" y="168"/>
    </contour>
  </outline>
</glyph>
<glyph name="A" format="1">
  <advance width="590"/>
  <unicode hex="0041"/>
  <outline>
    <contour>
      <point x="526" y="0" type="line" name="hr00"/>
      <point x="472" y="698" type="line"/>
      <point x="290" y="698" type="line"/>
      <point x="-40" y="0" type="line"/>
      <point x="106" y="0" type="line"/>
      <point x="180" y="172" type="line"/>
      <point x="376" y="172" type="line"/>
      <point x="386" y="0" type="line"/>
    </contour>
    <contour>
      <point x="370" y="283" type="line"/>
      <point x="235" y="283" type="line"/>
      <point x="303" y="451" type="line"/>
      <point x="347" y="578" type="line"/>
      <point x="361" y="578" type="line"/>
      <point x="362" y="451" type="line"/>
    </contour>
    <contour>
      <point x="256" y="0" type="move" name="bottom"/>
    </contour>
    <contour>
      <point x="526" y="0" type="move" name="bottomright"/>
    </contour>
    <contour>
      <point x="385" y="698" type="move" name="top"/>
    </contour>
  </outline>
</glyph>
<glyph name="B" format="1">
  <advance width="587"/>
  <unicode hex="0042"/>
  <outline>
    <contour>
      <point x="13" y="0" type="line"/>
      <point x="322" y="0" type="line" smooth="yes"/>
      <point x="466" y="0"/>
      <point x="544" y="82"/>
      <point x="544" y="233" type="curve" smooth="yes"/>
      <point x="544" y="307"/>
      <point x="509" y="347"/>
      <point x="434" y="354" type="curve"/>
      <point x="437" y="368" type="line"/>
      <point x="530" y="380"/>
      <point x="580" y="456"/>
      <point x="580" y="555" type="curve" smooth="yes" name="hr01"/>
      <point x="580" y="653"/>
      <point x="526" y="698"/>
      <point x="426" y="698" type="curve" smooth="yes"/>
      <point x="153" y="698" type="line"/>
    </contour>
    <contour>
      <point x="173" y="117" type="line"/>
      <point x="209" y="296" type="line"/>
      <point x="364" y="296" type="line" smooth="yes"/>
      <point x="395" y="296"/>
      <point x="405" y="280"/>
      <point x="405" y="247" type="curve" smooth="yes" name="hr02"/>
      <point x="405" y="238"/>
      <point x="403" y="228"/>
      <point x="395" y="188" type="curve" smooth="yes"/>
      <point x="385" y="138"/>
      <point x="366" y="117"/>
      <point x="326" y="117" type="curve" smooth="yes"/>
    </contour>
    <contour>
      <point x="232" y="408" type="line"/>
      <point x="266" y="581" type="line"/>
      <point x="396" y="581" type="line" smooth="yes"/>
      <point x="428" y="581"/>
      <point x="438" y="566"/>
      <point x="438" y="536" type="curve" smooth="yes" name="hr03"/>
      <point x="438" y="527"/>
      <point x="436" y="509"/>
      <point x="428" y="477" type="curve" smooth="yes"/>
      <point x="416" y="428"/>
      <point x="399" y="408"/>
      <point x="360" y="408" type="curve" smooth="yes"/>
    </contour>
    <contour>
      <point x="216" y="0" type="move" name="bottom"/>
    </contour>
    <contour>
      <point x="356" y="698" type="move" name="top"/>
    </contour>
  </outline>
</glyph>
<glyph name="C" format="1">
  <advance width="566"/>
  <unicode hex="0043"/>
  <outline>
    <contour>
      <point x="262" y="-12" type="curve" smooth="yes" name="hr00"/>
      <point x="396" y="-12"/>
      <point x="487" y="50"/>
      <point x="537" y="165" type="curve"/>
      <point x="420" y="217" type="line"/>
      <point x="392" y="135"/>
      <point x="352" y="109"/>
      <point x="280" y="109" type="curve" smooth="yes"/>
      <point x="214" y="109"/>
      <point x="184" y="144"/>
      <point x="184" y="224" type="curve" smooth="yes"/>
      <point x="184" y="241"/>
      <point x="188" y="268"/>
      <point x="194" y="298" type="curve" smooth="yes"/>
      <point x="215" y="403" type="line" smooth="yes"/>
      <point x="244" y="547"/>
      <point x="284" y="589"/>
      <point x="375" y="589" type="curve" smooth="yes"/>
      <point x="436" y="589"/>
      <point x="466" y="559"/>
      <point x="470" y="491" type="curve"/>
      <point x="593" y="541" type="line"/>
      <point x="576" y="638"/>
      <point x="511" y="710"/>
      <point x="385" y="710" type="curve" smooth="yes"/>
      <point x="204" y="710"/>
      <point x="109" y="590"/>
      <point x="68" y="401" type="curve" smooth="yes"/>
      <point x="56" y="344"/>
      <point x="45" y="280"/>
      <point x="45" y="219" type="curve" smooth="yes"/>
      <point x="45" y="92"/>
      <point x="92" y="-12"/>
    </contour>
    <contour>
      <point x="255" y="0" type="move" name="bottom"/>
    </contour>
    <contour>
      <point x="386" y="698" type="move" name="top"/>
    </contour>
  </outline>
</glyph>
<glyph name="D" format="1">
  <advance width="611"/>
  <unicode hex="0044"/>
  <outline>
    <contour>
      <point x="13" y="0" type="line" name="hr00"/>
      <point x="254" y="0" type="line" smooth="yes"/>
      <point x="444" y="0"/>
      <point x="540" y="115"/>
      <point x="579" y="297" type="curve" smooth="yes"/>
      <point x="590" y="350"/>
      <point x="600" y="410"/>
      <point x="600" y="467" type="curve" smooth="yes"/>
      <point x="600" y="594"/>
      <point x="553" y="698"/>
      <point x="383" y="698" type="curve" smooth="yes"/>
      <point x="153" y="698" type="line"/>
    </contour>
    <contour>
      <point x="174" y="120" type="line"/>
      <point x="266" y="578" type="line"/>
      <point x="365" y="578" type="line" smooth="yes"/>
      <point x="435" y="578"/>
      <point x="461" y="543"/>
      <point x="461" y="462" type="curve" smooth="yes"/>
      <point x="461" y="445"/>
      <point x="457" y="418"/>
      <point x="451" y="388" type="curve" smooth="yes"/>
      <point x="432" y="295" type="line" smooth="yes"/>
      <point x="404" y="160"/>
      <point x="367" y="120"/>
      <point x="272" y="120" type="curve" smooth="yes"/>
    </contour>
    <contour>
      <point x="224" y="0" type="move" name="bottom"/>
    </contour>
    <contour>
      <point x="364" y="698" type="move" name="top"/>
    </contour>
  </outline>
</glyph>
<glyph name="E" format="1">
  <advance width="522"/>
  <unicode hex="0045"/>
  <outline>
    <contour>
      <point x="429" y="0" type="line" name="hr00"/>
      <point x="453" y="120" type="line"/>
      <point x="174" y="120" type="line"/>
      <point x="209" y="293" type="line"/>
      <point x="447" y="293" type="line"/>
      <point x="471" y="413" type="line"/>
      <point x="233" y="413" type="line"/>
      <point x="266" y="578" type="line"/>
      <point x="536" y="578" type="line"/>
      <point x="560" y="698" type="line"/>
      <point x="153" y="698" type="line"/>
      <point x="13" y="0" type="line"/>
    </contour>
    <contour>
      <point x="233" y="0" type="move" name="bottom"/>
    </contour>
    <contour>
      <point x="429" y="0" type="move" name="bottomright"/>
    </contour>
    <contour>
      <point x="357" y="698" type="move" name="top"/>
    </contour>
  </outline>
</glyph>
<glyph name="F" format="1">
  <advance width="503"/>
  <unicode hex="0046"/>
  <outline>
    <contour>
      <point x="150" y="0" type="line" name="hr00"/>
      <point x="209" y="293" type="line"/>
      <point x="437" y="293" type="line"/>
      <point x="461" y="413" type="line"/>
      <point x="233" y="413" type="line"/>
      <point x="266" y="578" type="line"/>
      <point x="526" y="578" type="line"/>
      <point x="550" y="698" type="line"/>
      <point x="153" y="698" type="line"/>
      <point x="13" y="0" type="line"/>
    </contour>
    <contour>
      <point x="82" y="0" type="move" name="bottom"/>
    </contour>
    <contour>
      <point x="357" y="698" type="move" name="top"/>
    </contour>
  </outline>
</glyph>
<glyph name="G" format="1">
  <advance width="625"/>
  <unicode hex="0047"/>
  <outline>
    <contour>
      <point x="407" y="0" type="line"/>
      <point x="518" y="0" type="line"/>
      <point x="594" y="380" type="line"/>
      <point x="352" y="380" type="line"/>
      <point x="330" y="268" type="line"/>
      <point x="442" y="268" type="line"/>
      <point x="433" y="225" type="line" smooth="yes"/>
      <point x="419" y="160"/>
      <point x="364" y="109"/>
      <point x="280" y="109" type="curve" smooth="yes" name="hr01"/>
      <point x="214" y="109"/>
      <point x="184" y="144"/>
      <point x="184" y="224" type="curve" smooth="yes"/>
      <point x="184" y="241"/>
      <point x="188" y="268"/>
      <point x="194" y="298" type="curve" smooth="yes"/>
      <point x="215" y="403" type="line" smooth="yes"/>
      <point x="244" y="547"/>
      <point x="286" y="589"/>
      <point x="382" y="589" type="curve" smooth="yes"/>
      <point x="453" y="589"/>
      <point x="488" y="556"/>
      <point x="499" y="497" type="curve"/>
      <point x="617" y="545" type="line"/>
      <point x="590" y="653"/>
      <point x="518" y="710"/>
      <point x="389" y="710" type="curve" smooth="yes"/>
      <point x="206" y="710"/>
      <point x="109" y="590"/>
      <point x="68" y="401" type="curve" smooth="yes"/>
      <point x="56" y="344"/>
      <point x="45" y="280"/>
      <point x="45" y="219" type="curve" smooth="yes"/>
      <point x="45" y="92"/>
      <point x="96" y="-12"/>
      <point x="244" y="-12" type="curve" smooth="yes"/>
      <point x="341" y="-12"/>
      <point x="393" y="40"/>
      <point x="418" y="124" type="curve" name="hr02"/>
      <point x="432" y="124" type="line"/>
    </contour>
    <contour>
      <point x="254" y="0" type="move" name="bottom"/>
    </contour>
    <contour>
      <point x="395" y="698" type="move" name="top"/>
    </contour>
  </outline>
</glyph>
<glyph name="H" format="1">
  <advance width="632"/>
  <unicode hex="0048"/>
  <outline>
    <contour>
      <point x="376" y="0" type="line" name="hr00"/>
      <point x="513" y="0" type="line"/>
      <point x="653" y="698" type="line"/>
      <point x="516" y="698" type="line"/>
      <point x="459" y="413" type="line"/>
      <point x="233" y="413" type="line"/>
      <point x="290" y="698" type="line"/>
      <point x="153" y="698" type="line"/>
      <point x="13" y="0" type="line"/>
      <point x="150" y="0" type="line"/>
      <point x="209" y="293" type="line"/>
      <point x="435" y="293" type="line"/>
    </contour>
    <contour>
      <point x="263" y="0" type="move" name="bottom"/>
    </contour>
    <contour>
      <point x="391" y="698" type="move" name="top"/>
    </contour>
  </outline>
</glyph>
<glyph name="I" format="1">
  <advance width="387"/>
  <unicode hex="0049"/>
  <outline>
    <contour>
      <point x="287" y="0" type="line" name="hr00"/>
      <point x="309" y="110" type="line"/>
      <point x="231" y="110" type="line"/>
      <point x="327" y="588" type="line"/>
      <point x="405" y="588" type="line"/>
      <point x="427" y="698" type="line"/>
      <point x="134" y="698" type="line"/>
      <point x="112" y="588" type="line"/>
      <point x="190" y="588" type="line"/>
      <point x="94" y="110" type="line"/>
      <point x="16" y="110" type="line"/>
      <point x="-6" y="0" type="line"/>
    </contour>
    <contour>
      <point x="142" y="0" type="move" name="bottom"/>
    </contour>
    <contour>
      <point x="287" y="0" type="move" name="bottomright"/>
    </contour>
    <contour>
      <point x="283" y="698" type="move" name="top"/>
    </contour>
  </outline>
</glyph>
<glyph name="J" format="1">
  <advance width="475"/>
  <unicode hex="004A"/>
  <outline>
    <contour>
      <point x="185" y="698" type="line" name="hr00"/>
      <point x="163" y="586" type="line"/>
      <point x="342" y="586" type="line"/>
      <point x="260" y="175" type="line" smooth="yes"/>
      <point x="250" y="126"/>
      <point x="229" y="108"/>
      <point x="187" y="108" type="curve" smooth="yes"/>
      <point x="140" y="108"/>
      <point x="121" y="147"/>
      <point x="118" y="198" type="curve"/>
      <point x="-4" y="170" type="line"/>
      <point x="2" y="64"/>
      <point x="64" y="-11"/>
      <point x="178" y="-11" type="curve" smooth="yes"/>
      <point x="301" y="-11"/>
      <point x="370" y="39"/>
      <point x="394" y="158" type="curve" smooth="yes"/>
      <point x="502" y="698" type="line"/>
    </contour>
    <contour>
      <point x="179" y="0" type="move" name="bottom"/>
    </contour>
    <contour>
      <point x="352" y="698" type="move" name="top"/>
    </contour>
  </outline>
</glyph>
<glyph name="K" format="1">
  <advance width="594"/>
  <unicode hex="004B"/>
  <outline>
    <contour>
      <point x="387" y="0" type="line" name="hr00"/>
      <point x="537" y="0" type="line"/>
      <point x="400" y="393" type="line"/>
      <point x="664" y="698" type="line"/>
      <point x="498" y="698" type="line"/>
      <point x="330" y="490" type="line"/>
      <point x="230" y="359" type="line"/>
      <point x="216" y="359" type="line"/>
      <point x="248" y="488" type="line"/>
      <point x="290" y="698" type="line"/>
      <point x="153" y="698" type="line"/>
      <point x="13" y="0" type="line"/>
      <point x="150" y="0" type="line"/>
      <point x="187" y="186" type="line"/>
      <point x="291" y="305" type="line"/>
    </contour>
    <contour>
      <point x="266" y="0" type="move" name="bottom"/>
    </contour>
    <contour>
      <point x="391" y="698" type="move" name="top"/>
    </contour>
  </outline>
</glyph>
<glyph name="L" format="1">
  <advance width="451"/>
  <unicode hex="004C"/>
  <outline>
    <contour>
      <point x="378" y="0" type="line" name="hr00"/>
      <point x="402" y="120" type="line"/>
      <point x="174" y="120" type="line"/>
      <point x="290" y="698" type="line"/>
      <point x="153" y="698" type="line"/>
      <point x="13" y="0" type="line"/>
    </contour>
    <contour>
      <point x="195" y="0" type="move" name="bottom"/>
    </contour>
    <contour>
      <point x="221" y="698" type="move" name="top"/>
    </contour>
    <contour>
      <point x="354" y="740" type="move" name="topright"/>
    </contour>
  </outline>
</glyph>
<glyph name="M" format="1">
  <advance width="723"/>
  <unicode hex="004D"/>
  <outline>
    <contour>
      <point x="475" y="0" type="line" name="hr00"/>
      <point x="605" y="0" type="line"/>
      <point x="745" y="698" type="line"/>
      <point x="594" y="698" type="line"/>
      <point x="438" y="451" type="line"/>
      <point x="381" y="341" type="line"/>
      <point x="371" y="341" type="line"/>
      <point x="355" y="451" type="line"/>
      <point x="295" y="698" type="line"/>
      <point x="153" y="698" type="line"/>
      <point x="13" y="0" type="line"/>
      <point x="143" y="0" type="line"/>
      <point x="218" y="374" type="line"/>
      <point x="229" y="510" type="line"/>
      <point x="243" y="510" type="line"/>
      <point x="267" y="373" type="line"/>
      <point x="330" y="117" type="line"/>
      <point x="488" y="373" type="line"/>
      <point x="570" y="510" type="line"/>
      <point x="584" y="510" type="line"/>
      <point x="550" y="374" type="line"/>
    </contour>
    <contour>
      <point x="305" y="0" type="move" name="bottom"/>
    </contour>
    <contour>
      <point x="445" y="698" type="move" name="top"/>
    </contour>
  </outline>
</glyph>
<glyph name="N" format="1">
  <advance width="633"/>
  <unicode hex="004E"/>
  <outline>
    <contour>
      <point x="352" y="0" type="line" name="hr00"/>
      <point x="515" y="0" type="line"/>
      <point x="655" y="698" type="line"/>
      <point x="525" y="698" type="line"/>
      <point x="450" y="324" type="line"/>
      <point x="435" y="188" type="line"/>
      <point x="421" y="188" type="line"/>
      <point x="394" y="325" type="line"/>
      <point x="316" y="698" type="line"/>
      <point x="153" y="698" type="line"/>
      <point x="13" y="0" type="line"/>
      <point x="143" y="0" type="line"/>
      <point x="218" y="374" type="line"/>
      <point x="233" y="510" type="line"/>
      <point x="247" y="510" type="line"/>
      <point x="274" y="373" type="line"/>
    </contour>
    <contour>
      <point x="263" y="0" type="move" name="bottom"/>
    </contour>
    <contour>
      <point x="402" y="698" type="move" name="top"/>
    </contour>
  </outline>
</glyph>
<glyph name="O" format="1">
  <advance width="619"/>
  <unicode hex="004F"/>
  <outline>
    <contour>
      <point x="262" y="-12" type="curve" smooth="yes" name="hr00"/>
      <point x="447" y="-12"/>
      <point x="545" y="108"/>
      <point x="586" y="297" type="curve" smooth="yes"/>
      <point x="598" y="354"/>
      <point x="609" y="418"/>
      <point x="609" y="479" type="curve" smooth="yes"/>
      <point x="609" y="606"/>
      <point x="562" y="710"/>
      <point x="392" y="710" type="curve" smooth="yes"/>
      <point x="207" y="710"/>
      <point x="109" y="590"/>
      <point x="68" y="401" type="curve" smooth="yes"/>
      <point x="56" y="344"/>
      <point x="45" y="280"/>
      <point x="45" y="219" type="curve" smooth="yes"/>
      <point x="45" y="92"/>
      <point x="92" y="-12"/>
    </contour>
    <contour>
      <point x="280" y="109" type="curve" smooth="yes"/>
      <point x="214" y="109"/>
      <point x="184" y="144"/>
      <point x="184" y="224" type="curve" smooth="yes"/>
      <point x="184" y="241"/>
      <point x="188" y="268"/>
      <point x="194" y="298" type="curve" smooth="yes"/>
      <point x="215" y="403" type="line" smooth="yes"/>
      <point x="244" y="547"/>
      <point x="284" y="589"/>
      <point x="374" y="589" type="curve" smooth="yes"/>
      <point x="440" y="589"/>
      <point x="470" y="554"/>
      <point x="470" y="474" type="curve" smooth="yes"/>
      <point x="470" y="457"/>
      <point x="466" y="430"/>
      <point x="460" y="400" type="curve" smooth="yes"/>
      <point x="439" y="295" type="line" smooth="yes"/>
      <point x="410" y="151"/>
      <point x="370" y="109"/>
    </contour>
    <contour>
      <point x="264" y="0" type="move" name="bottom"/>
    </contour>
    <contour>
      <point x="405" y="698" type="move" name="top"/>
    </contour>
  </outline>
</glyph>
<glyph name="P" format="1">
  <advance width="576"/>
  <unicode hex="0050"/>
  <outline>
    <contour>
      <point x="150" y="0" type="line" name="hr00"/>
      <point x="202" y="261" type="line"/>
      <point x="345" y="261" type="line" smooth="yes"/>
      <point x="491" y="261"/>
      <point x="590" y="371"/>
      <point x="590" y="523" type="curve" smooth="yes"/>
      <point x="590" y="649"/>
      <point x="526" y="698"/>
      <point x="401" y="698" type="curve" smooth="yes"/>
      <point x="153" y="698" type="line"/>
      <point x="13" y="0" type="line"/>
    </contour>
    <contour>
      <point x="266" y="578" type="line"/>
      <point x="395" y="578" type="line" smooth="yes"/>
      <point x="435" y="578"/>
      <point x="448" y="560"/>
      <point x="448" y="526" type="curve" smooth="yes"/>
      <point x="448" y="513"/>
      <point x="445" y="497"/>
      <point x="437" y="458" type="curve" smooth="yes"/>
      <point x="426" y="404"/>
      <point x="403" y="381"/>
      <point x="357" y="381" type="curve" smooth="yes"/>
      <point x="226" y="381" type="line"/>
    </contour>
    <contour>
      <point x="80" y="0" type="move" name="bottom"/>
    </contour>
    <contour>
      <point x="346" y="698" type="move" name="top"/>
    </contour>
  </outline>
</glyph>
<glyph name="Q" format="1">
  <advance width="619"/>
  <unicode hex="0051"/>
  <outline>
    <contour>
      <point x="409" y="-75" type="line"/>
      <point x="307" y="-75" type="line"/>
      <point x="321" y="-7" type="line"/>
      <point x="469" y="16"/>
      <point x="549" y="129"/>
      <point x="586" y="297" type="curve" smooth="yes"/>
      <point x="598" y="354"/>
      <point x="609" y="418"/>
      <point x="609" y="479" type="curve" smooth="yes"/>
      <point x="609" y="606"/>
      <point x="562" y="710"/>
      <point x="392" y="710" type="curve" smooth="yes"/>
      <point x="207" y="710"/>
      <point x="109" y="590"/>
      <point x="68" y="401" type="curve" smooth="yes"/>
      <point x="56" y="344"/>
      <point x="45" y="280"/>
      <point x="45" y="219" type="curve" smooth="yes" name="hr01"/>
      <point x="45" y="109"/>
      <point x="80" y="16"/>
      <point x="199" y="-6" type="curve"/>
      <point x="192" y="-45" type="line" smooth="yes"/>
      <point x="187" y="-70"/>
      <point x="182" y="-96"/>
      <point x="182" y="-110" type="curve" smooth="yes" name="hr02"/>
      <point x="182" y="-163"/>
      <point x="210" y="-181"/>
      <point x="281" y="-181" type="curve" smooth="yes"/>
      <point x="388" y="-181" type="line"/>
    </contour>
    <contour>
      <point x="280" y="109" type="curve" smooth="yes"/>
      <point x="214" y="109"/>
      <point x="184" y="144"/>
      <point x="184" y="224" type="curve" smooth="yes" name="hr03"/>
      <point x="184" y="241"/>
      <point x="188" y="268"/>
      <point x="194" y="298" type="curve" smooth="yes"/>
      <point x="215" y="403" type="line" smooth="yes"/>
      <point x="244" y="547"/>
      <point x="284" y="589"/>
      <point x="374" y="589" type="curve" smooth="yes"/>
      <point x="440" y="589"/>
      <point x="470" y="554"/>
      <point x="470" y="474" type="curve" smooth="yes"/>
      <point x="470" y="457"/>
      <point x="466" y="430"/>
      <point x="460" y="400" type="curve" smooth="yes"/>
      <point x="439" y="295" type="line" smooth="yes"/>
      <point x="411" y="151"/>
      <point x="371" y="109"/>
    </contour>
    <contour>
      <point x="404" y="698" type="move" name="top"/>
    </contour>
  </outline>
</glyph>
<glyph name="R" format="1">
  <advance width="595"/>
  <unicode hex="0052"/>
  <outline>
    <contour>
      <point x="203" y="265" type="line" name="hr00"/>
      <point x="300" y="265" type="line"/>
      <point x="357" y="0" type="line"/>
      <point x="501" y="0" type="line"/>
      <point x="431" y="279" type="line"/>
      <point x="529" y="313"/>
      <point x="590" y="405"/>
      <point x="590" y="523" type="curve" smooth="yes"/>
      <point x="590" y="649"/>
      <point x="526" y="698"/>
      <point x="401" y="698" type="curve" smooth="yes"/>
      <point x="153" y="698" type="line"/>
      <point x="13" y="0" type="line"/>
      <point x="150" y="0" type="line"/>
    </contour>
    <contour>
      <point x="226" y="381" type="line"/>
      <point x="266" y="578" type="line"/>
      <point x="395" y="578" type="line" smooth="yes"/>
      <point x="435" y="578"/>
      <point x="448" y="560"/>
      <point x="448" y="526" type="curve" smooth="yes"/>
      <point x="448" y="513"/>
      <point x="445" y="497"/>
      <point x="437" y="458" type="curve" smooth="yes"/>
      <point x="426" y="404"/>
      <point x="403" y="381"/>
      <point x="357" y="381" type="curve" smooth="yes"/>
    </contour>
    <contour>
      <point x="252" y="0" type="move" name="bottom"/>
    </contour>
    <contour>
      <point x="357" y="698" type="move" name="top"/>
    </contour>
  </outline>
</glyph>
<glyph name="S" format="1">
  <advance width="526"/>
  <unicode hex="0053"/>
  <outline>
    <contour>
      <point x="210" y="-12" type="curve" smooth="yes" name="hr00"/>
      <point x="388" y="-12"/>
      <point x="481" y="102"/>
      <point x="481" y="235" type="curve" smooth="yes"/>
      <point x="481" y="339"/>
      <point x="420" y="386"/>
      <point x="322" y="417" type="curve" smooth="yes"/>
      <point x="284" y="429" type="line" smooth="yes"/>
      <point x="245" y="441"/>
      <point x="222" y="457"/>
      <point x="222" y="499" type="curve" smooth="yes"/>
      <point x="222" y="561"/>
      <point x="264" y="589"/>
      <point x="332" y="589" type="curve" smooth="yes"/>
      <point x="398" y="589"/>
      <point x="426" y="564"/>
      <point x="447" y="524" type="curve"/>
      <point x="548" y="612" type="line"/>
      <point x="510" y="675"/>
      <point x="435" y="710"/>
      <point x="338" y="710" type="curve" smooth="yes"/>
      <point x="184" y="710"/>
      <point x="83" y="620"/>
      <point x="83" y="482" type="curve" smooth="yes"/>
      <point x="83" y="381"/>
      <point x="139" y="334"/>
      <point x="232" y="305" type="curve" smooth="yes"/>
      <point x="270" y="293" type="line" smooth="yes"/>
      <point x="317" y="278"/>
      <point x="339" y="259"/>
      <point x="339" y="213" type="curve" smooth="yes"/>
      <point x="339" y="148"/>
      <point x="295" y="109"/>
      <point x="217" y="109" type="curve" smooth="yes"/>
      <point x="151" y="109"/>
      <point x="117" y="137"/>
      <point x="93" y="193" type="curve"/>
      <point x="-14" y="112" type="line"/>
      <point x="24" y="25"/>
      <point x="109" y="-12"/>
    </contour>
    <contour>
      <point x="215" y="0" type="move" name="bottom"/>
    </contour>
    <contour>
      <point x="325" y="698" type="move" name="top"/>
    </contour>
  </outline>
</glyph>
<glyph name="T" format="1">
  <advance width="511"/>
  <unicode hex="0054"/>
  <outline>
    <contour>
      <point x="549" y="578" type="line" name="hr00"/>
      <point x="573" y="698" type="line"/>
      <point x="112" y="698" type="line"/>
      <point x="88" y="578" type="line"/>
      <point x="250" y="578" type="line"/>
      <point x="134" y="0" type="line"/>
      <point x="271" y="0" type="line"/>
      <point x="387" y="578" type="line"/>
    </contour>
    <contour>
      <point x="202" y="0" type="move" name="bottom"/>
    </contour>
    <contour>
      <point x="341" y="698" type="move" name="top"/>
    </contour>
  </outline>
</glyph>
<glyph name="U" format="1">
  <advance width="607"/>
  <unicode hex="0055"/>
  <outline>
    <contour>
      <point x="148" y="698" type="line" name="hr00"/>
      <point x="66" y="289" type="line" smooth="yes"/>
      <point x="58" y="251"/>
      <point x="53" y="220"/>
      <point x="53" y="185" type="curve" smooth="yes"/>
      <point x="53" y="50"/>
      <point x="120" y="-12"/>
      <point x="270" y="-12" type="curve" smooth="yes"/>
      <point x="432" y="-12"/>
      <point x="506" y="62"/>
      <point x="545" y="259" type="curve" smooth="yes"/>
      <point x="633" y="698" type="line"/>
      <point x="496" y="698" type="line"/>
      <point x="408" y="259" type="line" smooth="yes"/>
      <point x="385" y="142"/>
      <point x="350" y="109"/>
      <point x="282" y="109" type="curve" smooth="yes"/>
      <point x="218" y="109"/>
      <point x="189" y="132"/>
      <point x="189" y="196" type="curve" smooth="yes"/>
      <point x="189" y="219"/>
      <point x="194" y="246"/>
      <point x="199" y="269" type="curve" smooth="yes"/>
      <point x="285" y="698" type="line"/>
    </contour>
    <contour>
      <point x="248" y="0" type="move" name="bottom"/>
    </contour>
    <contour>
      <point x="367" y="0" type="move" name="bottomright"/>
    </contour>
    <contour>
      <point x="386" y="698" type="move" name="top"/>
    </contour>
  </outline>
</glyph>
<glyph name="V" format="1">
  <advance width="571"/>
  <unicode hex="0056"/>
  <outline>
    <contour>
      <point x="312" y="0" type="line" name="hr00"/>
      <point x="648" y="698" type="line"/>
      <point x="502" y="698" type="line"/>
      <point x="319" y="279" type="line"/>
      <point x="266" y="125" type="line"/>
      <point x="252" y="125" type="line"/>
      <point x="258" y="279" type="line"/>
      <point x="234" y="698" type="line"/>
      <point x="96" y="698" type="line"/>
      <point x="156" y="0" type="line"/>
    </contour>
    <contour>
      <point x="228" y="0" type="move" name="bottom"/>
    </contour>
    <contour>
      <point x="367" y="698" type="move" name="top"/>
    </contour>
  </outline>
</glyph>
<glyph name="W" format="1">
  <advance width="860"/>
  <unicode hex="0057"/>
  <outline>
    <contour>
      <point x="278" y="0" type="line" name="hr00"/>
      <point x="426" y="393" type="line"/>
      <point x="479" y="563" type="line"/>
      <point x="493" y="563" type="line"/>
      <point x="485" y="393" type="line"/>
      <point x="483" y="0" type="line"/>
      <point x="642" y="0" type="line"/>
      <point x="916" y="698" type="line"/>
      <point x="778" y="698" type="line"/>
      <point x="647" y="305" type="line"/>
      <point x="595" y="127" type="line"/>
      <point x="581" y="127" type="line"/>
      <point x="592" y="305" type="line"/>
      <point x="592" y="698" type="line"/>
      <point x="442" y="698" type="line"/>
      <point x="286" y="305" type="line"/>
      <point x="237" y="135" type="line"/>
      <point x="223" y="135" type="line"/>
      <point x="241" y="305" type="line"/>
      <point x="252" y="698" type="line"/>
      <point x="117" y="698" type="line"/>
      <point x="115" y="0" type="line"/>
    </contour>
    <contour>
      <point x="375" y="0" type="move" name="bottom"/>
    </contour>
    <contour>
      <point x="513" y="698" type="move" name="top"/>
    </contour>
  </outline>
</glyph>
<glyph name="X" format="1">
  <advance width="584"/>
  <unicode hex="0058"/>
  <outline>
    <contour>
      <point x="389" y="348" type="line" name="hr00"/>
      <point x="651" y="698" type="line"/>
      <point x="495" y="698" type="line"/>
      <point x="340" y="464" type="line"/>
      <point x="328" y="464" type="line"/>
      <point x="250" y="698" type="line"/>
      <point x="102" y="698" type="line"/>
      <point x="228" y="365" type="line"/>
      <point x="-42" y="0" type="line"/>
      <point x="114" y="0" type="line"/>
      <point x="278" y="248" type="line"/>
      <point x="290" y="248" type="line"/>
      <point x="373" y="0" type="line"/>
      <point x="521" y="0" type="line"/>
    </contour>
    <contour>
      <point x="245" y="0" type="move" name="bottom"/>
    </contour>
    <contour>
      <point x="370" y="698" type="move" name="top"/>
    </contour>
  </outline>
</glyph>
<glyph name="Y" format="1">
  <advance width="559"/>
  <unicode hex="0059"/>
  <outline>
    <contour>
      <point x="295" y="0" type="line" name="hr00"/>
      <point x="347" y="260" type="line"/>
      <point x="643" y="698" type="line"/>
      <point x="492" y="698" type="line"/>
      <point x="315" y="404" type="line"/>
      <point x="301" y="404" type="line"/>
      <point x="228" y="698" type="line"/>
      <point x="87" y="698" type="line"/>
      <point x="212" y="269" type="line"/>
      <point x="158" y="0" type="line"/>
    </contour>
    <contour>
      <point x="218" y="0" type="move" name="bottom"/>
    </contour>
    <contour>
      <point x="344" y="698" type="move" name="top"/>
    </contour>
  </outline>
</glyph>
<glyph name="Z" format="1">
  <advance width="524"/>
  <unicode hex="005A"/>
  <outline>
    <contour>
      <point x="459" y="120" type="line" name="hr00"/>
      <point x="171" y="120" type="line"/>
      <point x="546" y="580" type="line"/>
      <point x="570" y="698" type="line"/>
      <point x="135" y="698" type="line"/>
      <point x="111" y="578" type="line"/>
      <point x="381" y="578" type="line"/>
      <point x="8" y="118" type="line"/>
      <point x="-16" y="0" type="line"/>
      <point x="435" y="0" type="line"/>
    </contour>
    <contour>
      <point x="214" y="0" type="move" name="bottom"/>
    </contour>
    <contour>
      <point x="353" y="698" type="move" name="top"/>
    </contour>
  </outline>
</glyph>
<glyph name="bracketleft" format="1">
  <advance width="308"/>
  <unicode hex="005B"/>
  <outline>
    <contour>
      <point x="197" y="-138" type="line" name="hr00"/>
      <point x="216" y="-46" type="line"/>
      <point x="136" y="-46" type="line"/>
      <point x="279" y="668" type="line"/>
      <point x="359" y="668" type="line"/>
      <point x="377" y="760" type="line"/>
      <point x="176" y="760" type="line"/>
      <point x="-4" y="-138" type="line"/>
    </contour>
  </outline>
</glyph>
<glyph name="backslash" format="1">
  <advance width="424"/>
  <unicode hex="005C"/>
  <outline>
    <contour>
      <point x="334" y="-151" type="line" name="hr00"/>
      <point x="240" y="740" type="line"/>
      <point x="133" y="740" type="line"/>
      <point x="226" y="-151" type="line"/>
    </contour>
  </outline>
</glyph>
<glyph name="bracketright" format="1">
  <advance width="308"/>
  <unicode hex="005D"/>
  <outline>
    <contour>
      <point x="130" y="760" type="line" name="hr00"/>
      <point x="111" y="668" type="line"/>
      <point x="191" y="668" type="line"/>
      <point x="48" y="-46" type="line"/>
      <point x="-32" y="-46" type="line"/>
      <point x="-50" y="-138" type="line"/>
      <point x="151" y="-138" type="line"/>
      <point x="331" y="760" type="line"/>
    </contour>
  </outline>
</glyph>
<glyph name="asciicircum" format="1">
  <advance width="540"/>
  <unicode hex="005E"/>
  <outline>
    <contour>
      <point x="526" y="332" type="line" name="hr00"/>
      <point x="407" y="698" type="line"/>
      <point x="284" y="698" type="line"/>
      <point x="49" y="355" type="line"/>
      <point x="147" y="292" type="line"/>
      <point x="319" y="560" type="line"/>
      <point x="333" y="560" type="line"/>
      <point x="414" y="292" type="line"/>
    </contour>
  </outline>
</glyph>
<glyph name="underscore" format="1">
  <advance width="494"/>
  <unicode hex="005F"/>
  <outline>
    <contour>
      <point x="380" y="-184" type="line" name="hr00"/>
      <point x="402" y="-72" type="line"/>
      <point x="-42" y="-72" type="line"/>
      <point x="-65" y="-184" type="line"/>
    </contour>
  </outline>
</glyph>
<glyph name="grave" format="1">
  <advance width="540"/>
  <unicode hex="0060"/>
  <outline>
    <contour>
      <point x="260" y="579" type="line" name="hr00"/>
      <point x="342" y="613" type="line"/>
      <point x="284" y="816" type="line"/>
      <point x="171" y="766" type="line"/>
    </contour>
    <contour>
      <point x="272" y="540" type="move" name="_top"/>
    </contour>
  </outline>
</glyph>
<glyph name="b" format="1">
  <advance width="541"/>
  <unicode hex="0062"/>
  <outline>
    <contour>
      <point x="12" y="0" type="line"/>
      <point x="145" y="0" type="line"/>
      <point x="164" y="93" type="line"/>
      <point x="178" y="93" type="line"/>
      <point x="179" y="31"/>
      <point x="213" y="-12"/>
      <point x="284" y="-12" type="curve" smooth="yes" name="hr01"/>
      <point x="399" y="-12"/>
      <point x="471" y="88"/>
      <point x="502" y="252" type="curve" smooth="yes"/>
      <point x="509" y="289"/>
      <point x="514" y="331"/>
      <point x="514" y="372" type="curve" smooth="yes"/>
      <point x="514" y="492"/>
      <point x="470" y="537"/>
      <point x="391" y="537" type="curve" smooth="yes"/>
      <point x="319" y="537"/>
      <point x="278" y="502"/>
      <point x="240" y="407" type="curve"/>
      <point x="226" y="407" type="line"/>
      <point x="293" y="740" type="line" name="hr02"/>
      <point x="160" y="740" type="line"/>
    </contour>
    <contour>
      <point x="250" y="97" type="curve" smooth="yes" name="hr03"/>
      <point x="199" y="97"/>
      <point x="171" y="129"/>
      <point x="182" y="185" type="curve" smooth="yes"/>
      <point x="200" y="275" type="line" smooth="yes"/>
      <point x="207" y="310"/>
      <point x="223" y="345"/>
      <point x="242" y="377" type="curve" smooth="yes"/>
      <point x="261" y="409"/>
      <point x="289" y="428"/>
      <point x="325" y="428" type="curve" smooth="yes"/>
      <point x="362" y="428"/>
      <point x="379" y="404"/>
      <point x="379" y="372" type="curve" smooth="yes"/>
      <point x="379" y="355"/>
      <point x="373" y="318"/>
      <point x="367" y="288" type="curve" smooth="yes"/>
      <point x="353" y="219" type="line" smooth="yes"/>
      <point x="335" y="131"/>
      <point x="306" y="97"/>
    </contour>
    <contour>
      <point x="265" y="0" type="move" name="bottom"/>
    </contour>
  </outline>
</glyph>
<glyph name="c" format="1">
  <advance width="448"/>
  <unicode hex="0063"/>
  <outline>
    <contour>
      <point x="210" y="-12" type="curve" smooth="yes" name="hr00"/>
      <point x="305" y="-12"/>
      <point x="384" y="33"/>
      <point x="419" y="132" type="curve"/>
      <point x="315" y="180" type="line"/>
      <point x="297" y="120"/>
      <point x="274" y="95"/>
      <point x="221" y="95" type="curve" smooth="yes"/>
      <point x="176" y="95"/>
      <point x="158" y="118"/>
      <point x="158" y="168" type="curve" smooth="yes"/>
      <point x="158" y="185"/>
      <point x="160" y="201"/>
      <point x="163" y="216" type="curve" smooth="yes"/>
      <point x="181" y="306" type="line" smooth="yes"/>
      <point x="199" y="398"/>
      <point x="220" y="430"/>
      <point x="272" y="430" type="curve" smooth="yes"/>
      <point x="320" y="430"/>
      <point x="338" y="410"/>
      <point x="344" y="360" type="curve"/>
      <point x="455" y="401" type="line"/>
      <point x="446" y="482"/>
      <point x="386" y="537"/>
      <point x="283" y="537" type="curve" smooth="yes"/>
      <point x="151" y="537"/>
      <point x="65" y="444"/>
      <point x="36" y="295" type="curve" smooth="yes"/>
      <point x="30" y="264"/>
      <point x="27" y="227"/>
      <point x="27" y="197" type="curve" smooth="yes"/>
      <point x="27" y="80"/>
      <point x="75" y="-12"/>
    </contour>
    <contour>
      <point x="209" y="0" type="move" name="bottom"/>
    </contour>
    <contour>
      <point x="290" y="540" type="move" name="top"/>
    </contour>
  </outline>
</glyph>
<glyph name="d" format="1">
  <advance width="547"/>
  <unicode hex="0064"/>
  <outline>
    <contour>
      <point x="476" y="0" type="line"/>
      <point x="497" y="106" type="line"/>
      <point x="445" y="106" type="line"/>
      <point x="572" y="740" type="line"/>
      <point x="439" y="740" type="line"/>
      <point x="377" y="432" type="line"/>
      <point x="363" y="432" type="line"/>
      <point x="362" y="494"/>
      <point x="328" y="537"/>
      <point x="257" y="537" type="curve" smooth="yes"/>
      <point x="142" y="537"/>
      <point x="70" y="437"/>
      <point x="39" y="273" type="curve" smooth="yes"/>
      <point x="32" y="236"/>
      <point x="27" y="194"/>
      <point x="27" y="153" type="curve" smooth="yes"/>
      <point x="27" y="33"/>
      <point x="71" y="-12"/>
      <point x="150" y="-12" type="curve" smooth="yes" name="hr01"/>
      <point x="222" y="-12"/>
      <point x="263" y="23"/>
      <point x="301" y="118" type="curve"/>
      <point x="315" y="118" type="line"/>
      <point x="312" y="103" type="line" smooth="yes"/>
      <point x="309" y="87"/>
      <point x="308" y="79"/>
      <point x="308" y="69" type="curve" smooth="yes"/>
      <point x="308" y="21"/>
      <point x="332" y="0"/>
      <point x="386" y="0" type="curve" smooth="yes" name="hr02"/>
    </contour>
    <contour>
      <point x="216" y="97" type="curve" smooth="yes" name="hr03"/>
      <point x="179" y="97"/>
      <point x="162" y="121"/>
      <point x="162" y="153" type="curve" smooth="yes"/>
      <point x="162" y="170"/>
      <point x="168" y="207"/>
      <point x="174" y="237" type="curve" smooth="yes"/>
      <point x="188" y="306" type="line" smooth="yes"/>
      <point x="206" y="394"/>
      <point x="235" y="428"/>
      <point x="291" y="428" type="curve" smooth="yes"/>
      <point x="342" y="428"/>
      <point x="370" y="396"/>
      <point x="359" y="340" type="curve" smooth="yes"/>
      <point x="341" y="250" type="line" smooth="yes"/>
      <point x="334" y="215"/>
      <point x="318" y="180"/>
      <point x="299" y="148" type="curve" smooth="yes"/>
      <point x="280" y="116"/>
      <point x="252" y="97"/>
    </contour>
    <contour>
      <point x="215" y="0" type="move" name="bottom"/>
    </contour>
    <contour>
      <point x="621" y="740" type="move" name="topright"/>
    </contour>
  </outline>
</glyph>
<glyph name="e" format="1">
  <advance width="467"/>
  <unicode hex="0065"/>
  <outline>
    <contour>
      <point x="222" y="-12" type="curve" smooth="yes" name="hr00"/>
      <point x="312" y="-12"/>
      <point x="375" y="19"/>
      <point x="431" y="104" type="curve"/>
      <point x="351" y="169" type="line"/>
      <point x="313" y="111"/>
      <point x="275" y="95"/>
      <point x="226" y="95" type="curve" smooth="yes"/>
      <point x="174" y="95"/>
      <point x="158" y="120"/>
      <point x="158" y="168" type="curve" smooth="yes"/>
      <point x="158" y="179"/>
      <point x="160" y="199"/>
      <point x="162" y="211" type="curve"/>
      <point x="374" y="217"/>
      <point x="462" y="273"/>
      <point x="462" y="392" type="curve" smooth="yes"/>
      <point x="462" y="483"/>
      <point x="395" y="537"/>
      <point x="292" y="537" type="curve" smooth="yes"/>
      <point x="153" y="537"/>
      <point x="69" y="452"/>
      <point x="36" y="295" type="curve" smooth="yes"/>
      <point x="30" y="267"/>
      <point x="27" y="227"/>
      <point x="27" y="197" type="curve" smooth="yes"/>
      <point x="27" y="63"/>
      <point x="84" y="-12"/>
    </contour>
    <contour>
      <point x="275" y="435" type="curve" smooth="yes"/>
      <point x="312" y="435"/>
      <point x="333" y="418"/>
      <point x="333" y="380" type="curve" smooth="yes"/>
      <point x="333" y="331"/>
      <point x="306" y="304"/>
      <point x="179" y="296" type="curve"/>
      <point x="186" y="329" type="line" smooth="yes"/>
      <point x="201" y="401"/>
      <point x="227" y="435"/>
    </contour>
    <contour>
      <point x="208" y="0" type="move" name="bottom"/>
    </contour>
    <contour>
      <point x="306" y="0" type="move" name="bottomright"/>
    </contour>
    <contour>
      <point x="299" y="540" type="move" name="top"/>
    </contour>
  </outline>
</glyph>
<glyph name="f" format="1">
  <advance width="338"/>
  <unicode hex="0066"/>
  <outline>
    <contour>
      <point x="265" y="419" type="line" name="hr00"/>
      <point x="351" y="419" type="line"/>
      <point x="372" y="525" type="line"/>
      <point x="286" y="525" type="line"/>
      <point x="308" y="634" type="line"/>
      <point x="394" y="634" type="line"/>
      <point x="415" y="740" type="line"/>
      <point x="327" y="740" type="line" smooth="yes"/>
      <point x="236" y="740"/>
      <point x="188" y="697"/>
      <point x="169" y="605" type="curve" smooth="yes"/>
      <point x="153" y="525" type="line"/>
      <point x="91" y="525" type="line"/>
      <point x="70" y="419" type="line"/>
      <point x="132" y="419" type="line"/>
      <point x="29" y="-94" type="line"/>
      <point x="-57" y="-94" type="line"/>
      <point x="-78" y="-200" type="line"/>
      <point x="10" y="-200" type="line" smooth="yes"/>
      <point x="101" y="-200"/>
      <point x="150" y="-157"/>
      <point x="168" y="-65" type="curve" smooth="yes"/>
    </contour>
  </outline>
</glyph>
<glyph name="g" format="1">
  <advance width="497"/>
  <unicode hex="0067"/>
  <outline>
    <contour>
      <point x="454" y="-21" type="curve" smooth="yes"/>
      <point x="454" y="68"/>
      <point x="409" y="108"/>
      <point x="307" y="108" type="curve" smooth="yes"/>
      <point x="181" y="108" type="line" smooth="yes"/>
      <point x="148" y="108"/>
      <point x="136" y="118"/>
      <point x="136" y="140" type="curve" smooth="yes"/>
      <point x="136" y="163"/>
      <point x="148" y="183"/>
      <point x="167" y="192" type="curve"/>
      <point x="189" y="186"/>
      <point x="214" y="183"/>
      <point x="242" y="183" type="curve" smooth="yes"/>
      <point x="391" y="183"/>
      <point x="470" y="261"/>
      <point x="470" y="384" type="curve" smooth="yes" name="hr01"/>
      <point x="470" y="444"/>
      <point x="444" y="486"/>
      <point x="411" y="504" type="curve"/>
      <point x="414" y="518" type="line"/>
      <point x="513" y="518" type="line"/>
      <point x="533" y="620" type="line"/>
      <point x="463" y="620" type="line" smooth="yes"/>
      <point x="410" y="620"/>
      <point x="392" y="603"/>
      <point x="382" y="555" type="curve" smooth="yes"/>
      <point x="376" y="525" type="line"/>
      <point x="352" y="533"/>
      <point x="325" y="537"/>
      <point x="295" y="537" type="curve" smooth="yes" name="hr02"/>
      <point x="146" y="537"/>
      <point x="68" y="458"/>
      <point x="68" y="335" type="curve" smooth="yes"/>
      <point x="68" y="270"/>
      <point x="92" y="229"/>
      <point x="134" y="205" type="curve"/>
      <point x="134" y="191" type="line"/>
      <point x="78" y="189"/>
      <point x="27" y="149"/>
      <point x="27" y="93" type="curve" smooth="yes" name="hr03"/>
      <point x="27" y="57"/>
      <point x="43" y="27"/>
      <point x="80" y="21" type="curve"/>
      <point x="80" y="3" type="line"/>
      <point x="17" y="0"/>
      <point x="-27" y="-38"/>
      <point x="-27" y="-98" type="curve" smooth="yes" name="hr04"/>
      <point x="-27" y="-168"/>
      <point x="14" y="-212"/>
      <point x="174" y="-212" type="curve" smooth="yes"/>
      <point x="398" y="-212"/>
      <point x="454" y="-123"/>
    </contour>
    <contour>
      <point x="322" y="-51" type="curve" smooth="yes"/>
      <point x="322" y="-95"/>
      <point x="304" y="-120"/>
      <point x="226" y="-120" type="curve" smooth="yes"/>
      <point x="158" y="-120" type="line" smooth="yes"/>
      <point x="100" y="-120"/>
      <point x="83" y="-105"/>
      <point x="83" y="-67" type="curve" smooth="yes"/>
      <point x="83" y="-43"/>
      <point x="88" y="-23"/>
      <point x="105" y="-7" type="curve"/>
      <point x="263" y="-7" type="line" smooth="yes"/>
      <point x="310" y="-7"/>
      <point x="322" y="-18"/>
    </contour>
    <contour>
      <point x="256" y="274" type="curve" smooth="yes"/>
      <point x="207" y="274"/>
      <point x="193" y="292"/>
      <point x="193" y="331" type="curve" smooth="yes" name="hr05"/>
      <point x="193" y="339"/>
      <point x="194" y="349"/>
      <point x="198" y="372" type="curve" smooth="yes"/>
      <point x="207" y="421"/>
      <point x="228" y="445"/>
      <point x="282" y="445" type="curve" smooth="yes"/>
      <point x="331" y="445"/>
      <point x="345" y="427"/>
      <point x="345" y="388" type="curve" smooth="yes"/>
      <point x="345" y="380"/>
      <point x="344" y="370"/>
      <point x="340" y="347" type="curve" smooth="yes"/>
      <point x="331" y="298"/>
      <point x="310" y="274"/>
    </contour>
    <contour>
      <point x="282" y="540" type="move" name="top"/>
    </contour>
  </outline>
</glyph>
<glyph name="i" format="1">
  <advance width="266"/>
  <unicode hex="0069"/>
  <outline>
    <contour>
      <point x="193" y="590" type="curve" smooth="yes"/>
      <point x="244" y="590"/>
      <point x="272" y="611"/>
      <point x="286" y="656" type="curve" smooth="yes"/>
      <point x="291" y="672"/>
      <point x="293" y="686"/>
      <point x="293" y="696" type="curve" smooth="yes"/>
      <point x="293" y="728"/>
      <point x="269" y="746"/>
      <point x="225" y="746" type="curve" smooth="yes"/>
      <point x="174" y="746"/>
      <point x="146" y="725"/>
      <point x="132" y="680" type="curve" smooth="yes"/>
      <point x="127" y="664"/>
      <point x="125" y="650"/>
      <point x="125" y="640" type="curve" smooth="yes"/>
      <point x="125" y="608"/>
      <point x="149" y="590"/>
    </contour>
    <contour>
      <point x="190" y="0" type="line"/>
      <point x="211" y="106" type="line"/>
      <point x="165" y="106" type="line" name="hr01"/>
      <point x="249" y="525" type="line"/>
      <point x="116" y="525" type="line"/>
      <point x="32" y="105" type="line" smooth="yes"/>
      <point x="30" y="93"/>
      <point x="28" y="77"/>
      <point x="28" y="66" type="curve" smooth="yes"/>
      <point x="28" y="21"/>
      <point x="51" y="0"/>
      <point x="106" y="0" type="curve" smooth="yes"/>
    </contour>
    <contour>
      <point x="114" y="0" type="move" name="bottom"/>
    </contour>
    <contour>
      <point x="196" y="0" type="move" name="bottomright"/>
    </contour>
  </outline>
</glyph>
<glyph name="j" format="1">
  <advance width="266"/>
  <unicode hex="006A"/>
  <outline>
    <contour>
      <point x="-1" y="-94" type="line" name="hr00"/>
      <point x="-67" y="-94" type="line"/>
      <point x="-88" y="-200" type="line"/>
      <point x="-7" y="-200" type="line" smooth="yes"/>
      <point x="78" y="-200"/>
      <point x="117" y="-170"/>
      <point x="136" y="-74" type="curve" smooth="yes"/>
      <point x="256" y="525" type="line"/>
      <point x="123" y="525" type="line"/>
    </contour>
    <contour>
      <point x="200" y="590" type="curve" smooth="yes"/>
      <point x="251" y="590"/>
      <point x="279" y="611"/>
      <point x="293" y="656" type="curve" smooth="yes"/>
      <point x="298" y="672"/>
      <point x="300" y="686"/>
      <point x="300" y="696" type="curve" smooth="yes"/>
      <point x="300" y="728"/>
      <point x="276" y="746"/>
      <point x="232" y="746" type="curve" smooth="yes"/>
      <point x="181" y="746"/>
      <point x="153" y="725"/>
      <point x="139" y="680" type="curve" smooth="yes"/>
      <point x="134" y="664"/>
      <point x="132" y="650"/>
      <point x="132" y="640" type="curve" smooth="yes"/>
      <point x="132" y="608"/>
      <point x="156" y="590"/>
    </contour>
  </outline>
</glyph>
<glyph name="k" format="1">
  <advance width="503"/>
  <unicode hex="006B"/>
  <outline>
    <contour>
      <point x="12" y="0" type="line" name="hr00"/>
      <point x="145" y="0" type="line"/>
      <point x="175" y="149" type="line"/>
      <point x="246" y="225" type="line"/>
      <point x="282" y="68" type="line" smooth="yes"/>
      <point x="294" y="17"/>
      <point x="319" y="0"/>
      <point x="365" y="0" type="curve" smooth="yes"/>
      <point x="437" y="0" type="line"/>
      <point x="458" y="106" type="line"/>
      <point x="400" y="106" type="line"/>
      <point x="352" y="310" type="line"/>
      <point x="543" y="525" type="line"/>
      <point x="389" y="525" type="line"/>
      <point x="264" y="374" type="line"/>
      <point x="208" y="282" type="line"/>
      <point x="194" y="282" type="line"/>
      <point x="220" y="375" type="line"/>
      <point x="293" y="740" type="line"/>
      <point x="160" y="740" type="line"/>
    </contour>
    <contour>
      <point x="230" y="0" type="move" name="bottom"/>
    </contour>
  </outline>
</glyph>
<glyph name="l" format="1">
  <advance width="267"/>
  <unicode hex="006C"/>
  <outline>
    <contour>
      <point x="200" y="0" type="line" name="hr00"/>
      <point x="221" y="106" type="line"/>
      <point x="165" y="106" type="line"/>
      <point x="292" y="740" type="line"/>
      <point x="159" y="740" type="line"/>
      <point x="32" y="105" type="line" smooth="yes"/>
      <point x="30" y="93"/>
      <point x="28" y="77"/>
      <point x="28" y="66" type="curve" smooth="yes"/>
      <point x="28" y="21"/>
      <point x="51" y="0"/>
      <point x="106" y="0" type="curve" smooth="yes"/>
    </contour>
    <contour>
      <point x="118" y="0" type="move" name="bottom"/>
    </contour>
    <contour>
      <point x="227" y="740" type="move" name="top"/>
    </contour>
    <contour>
      <point x="343" y="740" type="move" name="topright"/>
    </contour>
  </outline>
</glyph>
<glyph name="m" format="1">
  <advance width="796"/>
  <unicode hex="006D"/>
  <outline>
    <contour>
      <point x="145" y="0" type="line"/>
      <point x="200" y="275" type="line" smooth="yes"/>
      <point x="208" y="316"/>
      <point x="225" y="349"/>
      <point x="244" y="379" type="curve" smooth="yes"/>
      <point x="263" y="409"/>
      <point x="280" y="426"/>
      <point x="309" y="426" type="curve" smooth="yes"/>
      <point x="341" y="426"/>
      <point x="352" y="412"/>
      <point x="352" y="377" type="curve" smooth="yes"/>
      <point x="352" y="361"/>
      <point x="350" y="347"/>
      <point x="347" y="330" type="curve" smooth="yes"/>
      <point x="281" y="0" type="line"/>
      <point x="414" y="0" type="line"/>
      <point x="471" y="285" type="line" smooth="yes"/>
      <point x="479" y="323"/>
      <point x="495" y="350"/>
      <point x="513" y="379" type="curve" smooth="yes"/>
      <point x="532" y="409"/>
      <point x="549" y="426"/>
      <point x="578" y="426" type="curve" smooth="yes"/>
      <point x="610" y="426"/>
      <point x="621" y="412"/>
      <point x="621" y="377" type="curve" smooth="yes"/>
      <point x="621" y="357"/>
      <point x="616" y="328"/>
      <point x="612" y="307" type="curve" smooth="yes"/>
      <point x="571" y="102" type="line" smooth="yes"/>
      <point x="569" y="91"/>
      <point x="567" y="77"/>
      <point x="567" y="63" type="curve" smooth="yes"/>
      <point x="567" y="17"/>
      <point x="591" y="0"/>
      <point x="646" y="0" type="curve" smooth="yes"/>
      <point x="730" y="0" type="line"/>
      <point x="751" y="106" type="line"/>
      <point x="705" y="106" type="line"/>
      <point x="749" y="327" type="line" smooth="yes"/>
      <point x="753" y="347"/>
      <point x="760" y="384"/>
      <point x="760" y="407" type="curve" smooth="yes"/>
      <point x="760" y="493"/>
      <point x="727" y="537"/>
      <point x="652" y="537" type="curve" smooth="yes"/>
      <point x="579" y="537"/>
      <point x="535" y="490"/>
      <point x="505" y="405" type="curve"/>
      <point x="491" y="405" type="line"/>
      <point x="491" y="492"/>
      <point x="458" y="537"/>
      <point x="383" y="537" type="curve" smooth="yes"/>
      <point x="312" y="537"/>
      <point x="270" y="490"/>
      <point x="240" y="405" type="curve"/>
      <point x="226" y="405" type="line"/>
      <point x="250" y="525" type="line" name="hr01"/>
      <point x="117" y="525" type="line"/>
      <point x="12" y="0" type="line"/>
    </contour>
    <contour>
      <point x="350" y="0" type="move" name="bottom"/>
    </contour>
    <contour>
      <point x="472" y="540" type="move" name="top"/>
    </contour>
  </outline>
</glyph>
<glyph name="n" format="1">
  <advance width="535"/>
  <unicode hex="006E"/>
  <outline>
    <contour>
      <point x="145" y="0" type="line"/>
      <point x="200" y="275" type="line" smooth="yes"/>
      <point x="208" y="316"/>
      <point x="225" y="350"/>
      <point x="244" y="379" type="curve" smooth="yes"/>
      <point x="266" y="413"/>
      <point x="286" y="426"/>
      <point x="317" y="426" type="curve" smooth="yes"/>
      <point x="349" y="426"/>
      <point x="360" y="412"/>
      <point x="360" y="377" type="curve" smooth="yes"/>
      <point x="360" y="357"/>
      <point x="356" y="332"/>
      <point x="352" y="311" type="curve" smooth="yes"/>
      <point x="310" y="101" type="line" smooth="yes"/>
      <point x="308" y="93"/>
      <point x="306" y="81"/>
      <point x="306" y="72" type="curve" smooth="yes"/>
      <point x="306" y="21"/>
      <point x="330" y="0"/>
      <point x="385" y="0" type="curve" smooth="yes"/>
      <point x="469" y="0" type="line"/>
      <point x="490" y="106" type="line"/>
      <point x="444" y="106" type="line"/>
      <point x="488" y="326" type="line" smooth="yes"/>
      <point x="492" y="346"/>
      <point x="499" y="384"/>
      <point x="499" y="407" type="curve" smooth="yes"/>
      <point x="499" y="493"/>
      <point x="466" y="537"/>
      <point x="391" y="537" type="curve" smooth="yes"/>
      <point x="316" y="537"/>
      <point x="270" y="490"/>
      <point x="240" y="405" type="curve"/>
      <point x="226" y="405" type="line"/>
      <point x="250" y="525" type="line" name="hr01"/>
      <point x="117" y="525" type="line"/>
      <point x="12" y="0" type="line"/>
    </contour>
    <contour>
      <point x="240" y="0" type="move" name="bottom"/>
    </contour>
    <contour>
      <point x="327" y="540" type="move" name="top"/>
    </contour>
  </outline>
</glyph>
<glyph name="o" format="1">
  <advance width="493"/>
  <unicode hex="006F"/>
  <outline>
    <contour>
      <point x="210" y="-12" type="curve" smooth="yes" name="hr00"/>
      <point x="354" y="-12"/>
      <point x="428" y="81"/>
      <point x="457" y="230" type="curve" smooth="yes"/>
      <point x="463" y="261"/>
      <point x="466" y="298"/>
      <point x="466" y="328" type="curve" smooth="yes"/>
      <point x="466" y="445"/>
      <point x="430" y="537"/>
      <point x="283" y="537" type="curve" smooth="yes"/>
      <point x="139" y="537"/>
      <point x="65" y="444"/>
      <point x="36" y="295" type="curve" smooth="yes"/>
      <point x="30" y="264"/>
      <point x="27" y="227"/>
      <point x="27" y="197" type="curve" smooth="yes"/>
      <point x="27" y="80"/>
      <point x="63" y="-12"/>
    </contour>
    <contour>
      <point x="221" y="95" type="curve" smooth="yes"/>
      <point x="176" y="95"/>
      <point x="158" y="118"/>
      <point x="158" y="168" type="curve" smooth="yes"/>
      <point x="158" y="185"/>
      <point x="160" y="201"/>
      <point x="163" y="216" type="curve" smooth="yes"/>
      <point x="181" y="306" type="line" smooth="yes"/>
      <point x="199" y="398"/>
      <point x="220" y="430"/>
      <point x="272" y="430" type="curve" smooth="yes"/>
      <point x="317" y="430"/>
      <point x="335" y="407"/>
      <point x="335" y="357" type="curve" smooth="yes"/>
      <point x="335" y="340"/>
      <point x="333" y="324"/>
      <point x="330" y="309" type="curve" smooth="yes"/>
      <point x="312" y="219" type="line" smooth="yes"/>
      <point x="294" y="127"/>
      <point x="273" y="95"/>
    </contour>
    <contour>
      <point x="204" y="0" type="move" name="bottom"/>
    </contour>
    <contour>
      <point x="295" y="540" type="move" name="top"/>
    </contour>
  </outline>
</glyph>
<glyph name="p" format="1">
  <advance width="536"/>
  <unicode hex="0070"/>
  <outline>
    <contour>
      <point x="-33" y="-200" type="line"/>
      <point x="100" y="-200" type="line"/>
      <point x="159" y="93" type="line"/>
      <point x="173" y="93" type="line"/>
      <point x="174" y="31"/>
      <point x="208" y="-12"/>
      <point x="279" y="-12" type="curve" smooth="yes"/>
      <point x="394" y="-12"/>
      <point x="466" y="88"/>
      <point x="497" y="252" type="curve" smooth="yes"/>
      <point x="504" y="289"/>
      <point x="509" y="331"/>
      <point x="509" y="372" type="curve" smooth="yes"/>
      <point x="509" y="492"/>
      <point x="465" y="537"/>
      <point x="386" y="537" type="curve" smooth="yes"/>
      <point x="314" y="537"/>
      <point x="273" y="502"/>
      <point x="235" y="407" type="curve"/>
      <point x="221" y="407" type="line"/>
      <point x="245" y="525" type="line" name="hr01"/>
      <point x="112" y="525" type="line"/>
    </contour>
    <contour>
      <point x="245" y="97" type="curve" smooth="yes"/>
      <point x="194" y="97"/>
      <point x="166" y="129"/>
      <point x="177" y="185" type="curve" smooth="yes"/>
      <point x="195" y="275" type="line" smooth="yes"/>
      <point x="202" y="310"/>
      <point x="218" y="345"/>
      <point x="237" y="377" type="curve" smooth="yes"/>
      <point x="256" y="409"/>
      <point x="284" y="428"/>
      <point x="320" y="428" type="curve" smooth="yes" name="hr02"/>
      <point x="357" y="428"/>
      <point x="374" y="404"/>
      <point x="374" y="372" type="curve" smooth="yes"/>
      <point x="374" y="355"/>
      <point x="368" y="318"/>
      <point x="362" y="288" type="curve" smooth="yes"/>
      <point x="348" y="219" type="line" smooth="yes"/>
      <point x="330" y="131"/>
      <point x="301" y="97"/>
    </contour>
    <contour>
      <point x="342" y="540" type="move" name="top"/>
    </contour>
  </outline>
</glyph>
<glyph name="q" format="1">
  <advance width="535"/>
  <unicode hex="0071"/>
  <outline>
    <contour>
      <point x="251" y="-200" type="line"/>
      <point x="384" y="-200" type="line"/>
      <point x="529" y="525" type="line"/>
      <point x="396" y="525" type="line"/>
      <point x="377" y="432" type="line"/>
      <point x="363" y="432" type="line"/>
      <point x="362" y="494"/>
      <point x="328" y="537"/>
      <point x="257" y="537" type="curve" smooth="yes" name="hr01"/>
      <point x="142" y="537"/>
      <point x="70" y="437"/>
      <point x="39" y="273" type="curve" smooth="yes"/>
      <point x="32" y="236"/>
      <point x="27" y="194"/>
      <point x="27" y="153" type="curve" smooth="yes"/>
      <point x="27" y="33"/>
      <point x="71" y="-12"/>
      <point x="150" y="-12" type="curve" smooth="yes"/>
      <point x="222" y="-12"/>
      <point x="263" y="23"/>
      <point x="301" y="118" type="curve"/>
      <point x="315" y="118" type="line"/>
    </contour>
    <contour>
      <point x="216" y="97" type="curve" smooth="yes"/>
      <point x="179" y="97"/>
      <point x="162" y="121"/>
      <point x="162" y="153" type="curve" smooth="yes"/>
      <point x="162" y="170"/>
      <point x="168" y="207"/>
      <point x="174" y="237" type="curve" smooth="yes"/>
      <point x="188" y="306" type="line" smooth="yes"/>
      <point x="206" y="394"/>
      <point x="235" y="428"/>
      <point x="291" y="428" type="curve" smooth="yes"/>
      <point x="342" y="428"/>
      <point x="370" y="396"/>
      <point x="359" y="340" type="curve" smooth="yes"/>
      <point x="341" y="250" type="line" smooth="yes"/>
      <point x="334" y="215"/>
      <point x="318" y="180"/>
      <point x="299" y="148" type="curve" smooth="yes"/>
      <point x="280" y="116"/>
      <point x="252" y="97"/>
    </contour>
    <contour>
      <point x="300" y="540" type="move" name="top"/>
    </contour>
  </outline>
</glyph>
<glyph name="r" format="1">
  <advance width="365"/>
  <unicode hex="0072"/>
  <outline>
    <contour>
      <point x="145" y="0" type="line" name="hr00"/>
      <point x="201" y="280" type="line" smooth="yes"/>
      <point x="219" y="369"/>
      <point x="251" y="397"/>
      <point x="318" y="397" type="curve" smooth="yes"/>
      <point x="367" y="397" type="line"/>
      <point x="396" y="525" type="line"/>
      <point x="374" y="525" type="line" smooth="yes"/>
      <point x="297" y="525"/>
      <point x="260" y="478"/>
      <point x="240" y="405" type="curve"/>
      <point x="226" y="405" type="line"/>
      <point x="250" y="525" type="line"/>
      <point x="117" y="525" type="line"/>
      <point x="12" y="0" type="line"/>
    </contour>
    <contour>
      <point x="78" y="0" type="move" name="bottom"/>
    </contour>
    <contour>
      <point x="240" y="540" type="move" name="top"/>
    </contour>
  </outline>
</glyph>
<glyph name="s" format="1">
  <advance width="456"/>
  <unicode hex="0073"/>
  <outline>
    <contour>
      <point x="191" y="-12" type="curve" smooth="yes" name="hr00"/>
      <point x="334" y="-12"/>
      <point x="407" y="69"/>
      <point x="407" y="176" type="curve" smooth="yes"/>
      <point x="407" y="251"/>
      <point x="369" y="285"/>
      <point x="290" y="312" type="curve" smooth="yes"/>
      <point x="244" y="328" type="line" smooth="yes"/>
      <point x="215" y="338"/>
      <point x="198" y="348"/>
      <point x="198" y="374" type="curve" smooth="yes"/>
      <point x="198" y="411"/>
      <point x="223" y="430"/>
      <point x="265" y="430" type="curve" smooth="yes"/>
      <point x="310" y="430"/>
      <point x="341" y="409"/>
      <point x="363" y="376" type="curve"/>
      <point x="447" y="454" type="line"/>
      <point x="407" y="510"/>
      <point x="351" y="537"/>
      <point x="273" y="537" type="curve" smooth="yes"/>
      <point x="134" y="537"/>
      <point x="70" y="454"/>
      <point x="70" y="355" type="curve" smooth="yes"/>
      <point x="70" y="273"/>
      <point x="114" y="240"/>
      <point x="184" y="216" type="curve" smooth="yes"/>
      <point x="230" y="200" type="line" smooth="yes"/>
      <point x="262" y="189"/>
      <point x="277" y="179"/>
      <point x="277" y="151" type="curve" smooth="yes"/>
      <point x="277" y="115"/>
      <point x="253" y="94"/>
      <point x="196" y="94" type="curve" smooth="yes"/>
      <point x="137" y="94"/>
      <point x="110" y="116"/>
      <point x="87" y="158" type="curve"/>
      <point x="3" y="80" type="line"/>
      <point x="41" y="18"/>
      <point x="104" y="-12"/>
    </contour>
    <contour>
      <point x="174" y="0" type="move" name="bottom"/>
    </contour>
    <contour>
      <point x="269" y="540" type="move" name="top"/>
    </contour>
  </outline>
</glyph>
<glyph name="t" format="1">
  <advance width="318"/>
  <unicode hex="0074"/>
  <outline>
    <contour>
      <point x="234" y="0" type="line" name="hr00"/>
      <point x="255" y="106" type="line"/>
      <point x="173" y="106" type="line"/>
      <point x="236" y="419" type="line"/>
      <point x="328" y="419" type="line"/>
      <point x="349" y="525" type="line"/>
      <point x="257" y="525" type="line"/>
      <point x="285" y="666" type="line"/>
      <point x="163" y="666" type="line"/>
      <point x="145" y="576" type="line" smooth="yes"/>
      <point x="137" y="535"/>
      <point x="125" y="525"/>
      <point x="90" y="525" type="curve" smooth="yes"/>
      <point x="59" y="525" type="line"/>
      <point x="38" y="419" type="line"/>
      <point x="103" y="419" type="line"/>
      <point x="40" y="106" type="line" smooth="yes"/>
      <point x="38" y="95"/>
      <point x="36" y="81"/>
      <point x="36" y="71" type="curve" smooth="yes"/>
      <point x="36" y="21"/>
      <point x="59" y="0"/>
      <point x="114" y="0" type="curve" smooth="yes"/>
    </contour>
    <contour>
      <point x="128" y="0" type="move" name="bottom"/>
    </contour>
    <contour>
      <point x="354" y="791" type="move" name="topright"/>
    </contour>
  </outline>
</glyph>
<glyph name="u" format="1">
  <advance width="541"/>
  <unicode hex="0075"/>
  <outline>
    <contour>
      <point x="113" y="525" type="line"/>
      <point x="47" y="198" type="line" smooth="yes"/>
      <point x="43" y="178"/>
      <point x="36" y="141"/>
      <point x="36" y="118" type="curve" smooth="yes"/>
      <point x="36" y="32"/>
      <point x="69" y="-12"/>
      <point x="144" y="-12" type="curve" smooth="yes"/>
      <point x="219" y="-12"/>
      <point x="265" y="35"/>
      <point x="295" y="120" type="curve"/>
      <point x="309" y="120" type="line"/>
      <point x="306" y="103" type="line" smooth="yes"/>
      <point x="304" y="92"/>
      <point x="302" y="81"/>
      <point x="302" y="72" type="curve" smooth="yes"/>
      <point x="302" y="21"/>
      <point x="325" y="0"/>
      <point x="380" y="0" type="curve" smooth="yes" name="hr01"/>
      <point x="470" y="0" type="line"/>
      <point x="491" y="106" type="line"/>
      <point x="439" y="106" type="line"/>
      <point x="523" y="525" type="line"/>
      <point x="390" y="525" type="line"/>
      <point x="335" y="252" type="line" smooth="yes"/>
      <point x="327" y="211"/>
      <point x="310" y="175"/>
      <point x="291" y="146" type="curve" smooth="yes"/>
      <point x="271" y="115"/>
      <point x="251" y="99"/>
      <point x="218" y="99" type="curve" smooth="yes" name="hr02"/>
      <point x="186" y="99"/>
      <point x="175" y="113"/>
      <point x="175" y="148" type="curve" smooth="yes"/>
      <point x="175" y="168"/>
      <point x="179" y="190"/>
      <point x="183" y="211" type="curve" smooth="yes"/>
      <point x="246" y="525" type="line"/>
    </contour>
    <contour>
      <point x="225" y="0" type="move" name="bottom"/>
    </contour>
    <contour>
      <point x="470" y="0" type="move" name="bottomright"/>
    </contour>
    <contour>
      <point x="314" y="540" type="move" name="top"/>
    </contour>
  </outline>
</glyph>
<glyph name="v" format="1">
  <advance width="462"/>
  <unicode hex="0076"/>
  <outline>
    <contour>
      <point x="267" y="0" type="line" name="hr00"/>
      <point x="510" y="525" type="line"/>
      <point x="371" y="525" type="line"/>
      <point x="279" y="315" type="line"/>
      <point x="210" y="115" type="line"/>
      <point x="196" y="115" type="line"/>
      <point x="199" y="315" type="line"/>
      <point x="182" y="525" type="line"/>
      <point x="49" y="525" type="line"/>
      <point x="98" y="0" type="line"/>
    </contour>
    <contour>
      <point x="167" y="0" type="move" name="bottom"/>
    </contour>
    <contour>
      <point x="274" y="540" type="move" name="top"/>
    </contour>
  </outline>
</glyph>
<glyph name="w" format="1">
  <advance width="716"/>
  <unicode hex="0077"/>
  <outline>
    <contour>
      <point x="81" y="0" type="line" name="hr00"/>
      <point x="247" y="0" type="line"/>
      <point x="325" y="200" type="line"/>
      <point x="377" y="400" type="line"/>
      <point x="391" y="400" type="line"/>
      <point x="384" y="200" type="line"/>
      <point x="392" y="0" type="line"/>
      <point x="540" y="0" type="line"/>
      <point x="759" y="525" type="line"/>
      <point x="626" y="525" type="line"/>
      <point x="554" y="325" type="line"/>
      <point x="490" y="125" type="line"/>
      <point x="476" y="125" type="line"/>
      <point x="474" y="325" type="line"/>
      <point x="466" y="525" type="line"/>
      <point x="343" y="525" type="line"/>
      <point x="267" y="325" type="line"/>
      <point x="201" y="125" type="line"/>
      <point x="187" y="125" type="line"/>
      <point x="190" y="325" type="line"/>
      <point x="187" y="525" type="line"/>
      <point x="54" y="525" type="line"/>
    </contour>
    <contour>
      <point x="300" y="0" type="move" name="bottom"/>
    </contour>
    <contour>
      <point x="401" y="540" type="move" name="top"/>
    </contour>
  </outline>
</glyph>
<glyph name="x" format="1">
  <advance width="475"/>
  <unicode hex="0078"/>
  <outline>
    <contour>
      <point x="93" y="0" type="line" name=""/>
      <point x="208" y="175" type="line"/>
      <point x="220" y="175" type="line"/>
      <point x="268" y="0" type="line"/>
      <point x="409" y="0" type="line"/>
      <point x="318" y="253" type="line"/>
      <point x="523" y="525" type="line"/>
      <point x="382" y="525" type="line"/>
      <point x="267" y="354" type="line"/>
      <point x="255" y="354" type="line"/>
      <point x="207" y="525" type="line"/>
      <point x="66" y="525" type="line"/>
      <point x="158" y="279" type="line"/>
      <point x="-48" y="0" type="line"/>
    </contour>
    <contour>
      <point x="184.0" y="0.0" type="move" name="bottom"/>
    </contour>
    <contour>
      <point x="297.0" y="540.0" type="move" name="top"/>
    </contour>
  </outline>
</glyph>
<glyph name="y" format="1">
  <advance width="466"/>
  <unicode hex="0079"/>
  <outline>
    <contour>
      <point x="280" y="315" type="line" name="hr00"/>
      <point x="211" y="115" type="line"/>
      <point x="197" y="115" type="line"/>
      <point x="202" y="315" type="line"/>
      <point x="183" y="525" type="line"/>
      <point x="50" y="525" type="line"/>
      <point x="109" y="-38" type="line"/>
      <point x="86" y="-94" type="line"/>
      <point x="-9" y="-94" type="line"/>
      <point x="-30" y="-200" type="line"/>
      <point x="57" y="-200" type="line" smooth="yes"/>
      <point x="142" y="-200"/>
      <point x="180" y="-174"/>
      <point x="217" y="-98" type="curve" smooth="yes"/>
      <point x="517" y="525" type="line"/>
      <point x="378" y="525" type="line"/>
    </contour>
    <contour>
      <point x="357" y="0" type="move" name="bottom"/>
    </contour>
    <contour>
      <point x="268" y="540" type="move" name="top"/>
    </contour>
  </outline>
</glyph>
<glyph name="z" format="1">
  <advance width="455"/>
  <unicode hex="007A"/>
  <outline>
    <contour>
      <point x="379" y="0" type="line" name=""/>
      <point x="400" y="106" type="line"/>
      <point x="167" y="106" type="line"/>
      <point x="451" y="421" type="line"/>
      <point x="472" y="525" type="line"/>
      <point x="96" y="525" type="line"/>
      <point x="75" y="419" type="line"/>
      <point x="294" y="419" type="line"/>
      <point x="10" y="104" type="line"/>
      <point x="-11" y="0" type="line"/>
    </contour>
    <contour>
      <point x="178.0" y="0.0" type="move" name="bottom"/>
    </contour>
    <contour>
      <point x="282.0" y="540.0" type="move" name="top"/>
    </contour>
  </outline>
</glyph>
<glyph name="braceleft" format="1">
  <advance width="338"/>
  <unicode hex="007B"/>
  <outline>
    <contour>
      <point x="227" y="-138" type="line"/>
      <point x="246" y="-46" type="line"/>
      <point x="166" y="-46" type="line"/>
      <point x="207" y="160" type="line" smooth="yes"/>
      <point x="212" y="184"/>
      <point x="215" y="207"/>
      <point x="215" y="226" type="curve" smooth="yes" name="hr01"/>
      <point x="215" y="270"/>
      <point x="184" y="298"/>
      <point x="118" y="304" type="curve"/>
      <point x="121" y="318" type="line"/>
      <point x="205" y="322"/>
      <point x="246" y="355"/>
      <point x="262" y="434" type="curve" smooth="yes"/>
      <point x="309" y="668" type="line"/>
      <point x="389" y="668" type="line"/>
      <point x="407" y="760" type="line"/>
      <point x="278" y="760" type="line" smooth="yes"/>
      <point x="234" y="760"/>
      <point x="201" y="735"/>
      <point x="189" y="675" type="curve" smooth="yes"/>
      <point x="145" y="453" type="line" smooth="yes"/>
      <point x="132" y="388"/>
      <point x="99" y="365"/>
      <point x="40" y="365" type="curve"/>
      <point x="19" y="257" type="line"/>
      <point x="69" y="257"/>
      <point x="90" y="238"/>
      <point x="90" y="204" type="curve" smooth="yes"/>
      <point x="90" y="187"/>
      <point x="88" y="174"/>
      <point x="84" y="155" type="curve" smooth="yes"/>
      <point x="46" y="-37" type="line" smooth="yes"/>
      <point x="44" y="-45"/>
      <point x="42" y="-61"/>
      <point x="42" y="-73" type="curve" smooth="yes" name="hr02"/>
      <point x="42" y="-114"/>
      <point x="71" y="-138"/>
      <point x="112" y="-138" type="curve" smooth="yes"/>
    </contour>
  </outline>
</glyph>
<glyph name="bar" format="1">
  <advance width="382"/>
  <unicode hex="007C"/>
  <outline>
    <contour>
      <point x="171" y="-138" type="line" name="hr00"/>
      <point x="351" y="760" type="line"/>
      <point x="231" y="760" type="line"/>
      <point x="51" y="-138" type="line"/>
    </contour>
  </outline>
</glyph>
<glyph name="braceright" format="1">
  <advance width="338"/>
  <unicode hex="007D"/>
  <outline>
    <contour>
      <point x="-50" y="-138" type="line"/>
      <point x="79" y="-138" type="line" smooth="yes"/>
      <point x="123" y="-138"/>
      <point x="156" y="-113"/>
      <point x="168" y="-53" type="curve" smooth="yes"/>
      <point x="212" y="169" type="line" smooth="yes"/>
      <point x="225" y="234"/>
      <point x="258" y="257"/>
      <point x="317" y="257" type="curve"/>
      <point x="338" y="365" type="line"/>
      <point x="288" y="365"/>
      <point x="267" y="384"/>
      <point x="267" y="418" type="curve" smooth="yes"/>
      <point x="267" y="435"/>
      <point x="269" y="448"/>
      <point x="273" y="467" type="curve" smooth="yes"/>
      <point x="311" y="659" type="line" smooth="yes"/>
      <point x="313" y="667"/>
      <point x="315" y="683"/>
      <point x="315" y="695" type="curve" smooth="yes" name="hr01"/>
      <point x="315" y="736"/>
      <point x="286" y="760"/>
      <point x="245" y="760" type="curve" smooth="yes"/>
      <point x="130" y="760" type="line"/>
      <point x="111" y="668" type="line"/>
      <point x="191" y="668" type="line"/>
      <point x="150" y="462" type="line" smooth="yes"/>
      <point x="145" y="438"/>
      <point x="142" y="415"/>
      <point x="142" y="396" type="curve" smooth="yes" name="hr02"/>
      <point x="142" y="352"/>
      <point x="173" y="324"/>
      <point x="239" y="318" type="curve"/>
      <point x="236" y="304" type="line"/>
      <point x="152" y="300"/>
      <point x="111" y="267"/>
      <point x="95" y="188" type="curve" smooth="yes"/>
      <point x="48" y="-46" type="line"/>
      <point x="-32" y="-46" type="line"/>
    </contour>
  </outline>
</glyph>
<glyph name="asciitilde" format="1">
  <advance width="540"/>
  <unicode hex="007E"/>
  <outline>
    <contour>
      <point x="369" y="215" type="curve" smooth="yes"/>
      <point x="426" y="215"/>
      <point x="470" y="240"/>
      <point x="496" y="272" type="curve"/>
      <point x="463" y="353" type="line"/>
      <point x="434" y="335"/>
      <point x="416" y="324"/>
      <point x="387" y="324" type="curve" smooth="yes"/>
      <point x="351" y="324"/>
      <point x="321" y="342"/>
      <point x="292" y="361" type="curve" smooth="yes"/>
      <point x="258" y="383"/>
      <point x="231" y="396"/>
      <point x="188" y="396" type="curve" smooth="yes" name="hr01"/>
      <point x="131" y="396"/>
      <point x="87" y="371"/>
      <point x="61" y="339" type="curve"/>
      <point x="94" y="258" type="line"/>
      <point x="123" y="276"/>
      <point x="141" y="287"/>
      <point x="170" y="287" type="curve" smooth="yes"/>
      <point x="206" y="287"/>
      <point x="236" y="269"/>
      <point x="265" y="250" type="curve" smooth="yes"/>
      <point x="299" y="228"/>
      <point x="326" y="215"/>
    </contour>
  </outline>
</glyph>
<glyph name="exclamdown" format="1">
  <advance width="303"/>
  <unicode hex="00A1"/>
  <outline>
    <contour>
      <point x="136" y="-173" type="line" name="hr00"/>
      <point x="175" y="22" type="line"/>
      <point x="191" y="310" type="line"/>
      <point x="133" y="310" type="line"/>
      <point x="32" y="22" type="line"/>
      <point x="-7" y="-173" type="line"/>
    </contour>
    <contour>
      <point x="175" y="365" type="curve" smooth="yes"/>
      <point x="225" y="365"/>
      <point x="258" y="391"/>
      <point x="268" y="434" type="curve" smooth="yes"/>
      <point x="272" y="451"/>
      <point x="276" y="473"/>
      <point x="276" y="481" type="curve" smooth="yes"/>
      <point x="276" y="512"/>
      <point x="252" y="535"/>
      <point x="205" y="535" type="curve" smooth="yes"/>
      <point x="155" y="535"/>
      <point x="122" y="509"/>
      <point x="112" y="466" type="curve" smooth="yes"/>
      <point x="108" y="449"/>
      <point x="104" y="427"/>
      <point x="104" y="419" type="curve" smooth="yes"/>
      <point x="104" y="388"/>
      <point x="128" y="365"/>
    </contour>
  </outline>
</glyph>
<glyph name="cent" format="1">
  <advance width="485"/>
  <unicode hex="00A2"/>
  <outline>
    <contour>
      <point x="142" y="-114" type="line" name="hr00"/>
      <point x="242" y="-114" type="line"/>
      <point x="262" y="-11" type="line"/>
      <point x="358" y="-2"/>
      <point x="422" y="41"/>
      <point x="447" y="112" type="curve"/>
      <point x="359" y="170" type="line"/>
      <point x="345" y="126"/>
      <point x="318" y="102"/>
      <point x="273" y="94" type="curve"/>
      <point x="337" y="413" type="line"/>
      <point x="371" y="406"/>
      <point x="386" y="388"/>
      <point x="391" y="355" type="curve"/>
      <point x="492" y="404" type="line"/>
      <point x="485" y="461"/>
      <point x="442" y="503"/>
      <point x="368" y="518" type="curve"/>
      <point x="391" y="630" type="line"/>
      <point x="291" y="630" type="line"/>
      <point x="269" y="523" type="line"/>
      <point x="145" y="511"/>
      <point x="62" y="423"/>
      <point x="36" y="289" type="curve" smooth="yes"/>
      <point x="30" y="258"/>
      <point x="27" y="221"/>
      <point x="27" y="191" type="curve" smooth="yes"/>
      <point x="27" y="84"/>
      <point x="75" y="15"/>
      <point x="164" y="-5" type="curve"/>
    </contour>
    <contour>
      <point x="154" y="162" type="curve" smooth="yes"/>
      <point x="154" y="179"/>
      <point x="156" y="195"/>
      <point x="159" y="210" type="curve" smooth="yes"/>
      <point x="177" y="300" type="line" smooth="yes"/>
      <point x="192" y="372"/>
      <point x="215" y="405"/>
      <point x="258" y="415" type="curve"/>
      <point x="195" y="101" type="line"/>
      <point x="166" y="112"/>
      <point x="154" y="134"/>
    </contour>
  </outline>
</glyph>
<glyph name="sterling" format="1">
  <advance width="544"/>
  <unicode hex="00A3"/>
  <outline>
    <contour>
      <point x="460" y="0" type="line"/>
      <point x="484" y="118" type="line"/>
      <point x="159" y="118" type="line"/>
      <point x="161" y="130" type="line"/>
      <point x="232" y="138"/>
      <point x="286" y="202"/>
      <point x="289" y="297" type="curve"/>
      <point x="422" y="297" type="line"/>
      <point x="444" y="407" type="line"/>
      <point x="277" y="407" type="line"/>
      <point x="275" y="422"/>
      <point x="274" y="436"/>
      <point x="274" y="450" type="curve" smooth="yes" name="hr01"/>
      <point x="274" y="544"/>
      <point x="303" y="590"/>
      <point x="379" y="590" type="curve" smooth="yes"/>
      <point x="429" y="590"/>
      <point x="453" y="567"/>
      <point x="472" y="519" type="curve"/>
      <point x="581" y="591" type="line"/>
      <point x="544" y="668"/>
      <point x="490" y="710"/>
      <point x="393" y="710" type="curve" smooth="yes"/>
      <point x="223" y="710"/>
      <point x="138" y="603"/>
      <point x="138" y="444" type="curve" smooth="yes"/>
      <point x="138" y="431"/>
      <point x="139" y="418"/>
      <point x="140" y="407" type="curve"/>
      <point x="81" y="407" type="line"/>
      <point x="59" y="297" type="line"/>
      <point x="153" y="297" type="line" name="hr02"/>
      <point x="150" y="209"/>
      <point x="107" y="158"/>
      <point x="55" y="130" type="curve"/>
      <point x="29" y="0" type="line"/>
    </contour>
  </outline>
</glyph>
<glyph name="yen" format="1">
  <advance width="574"/>
  <unicode hex="00A5"/>
  <outline>
    <contour>
      <point x="476" y="135" type="line" name="hr00"/>
      <point x="492" y="216" type="line"/>
      <point x="346" y="216" type="line"/>
      <point x="362" y="296" type="line"/>
      <point x="508" y="296" type="line"/>
      <point x="524" y="377" type="line"/>
      <point x="427" y="377" type="line"/>
      <point x="644" y="698" type="line"/>
      <point x="493" y="698" type="line"/>
      <point x="327" y="418" type="line"/>
      <point x="313" y="418" type="line"/>
      <point x="250" y="698" type="line"/>
      <point x="109" y="698" type="line"/>
      <point x="197" y="377" type="line"/>
      <point x="95" y="377" type="line"/>
      <point x="79" y="296" type="line"/>
      <point x="225" y="296" type="line"/>
      <point x="209" y="216" type="line"/>
      <point x="63" y="216" type="line"/>
      <point x="47" y="135" type="line"/>
      <point x="193" y="135" type="line"/>
      <point x="166" y="0" type="line"/>
      <point x="303" y="0" type="line"/>
      <point x="330" y="135" type="line"/>
    </contour>
  </outline>
</glyph>
<glyph name="brokenbar" format="1">
  <advance width="382"/>
  <unicode hex="00A6"/>
  <outline>
    <contour>
      <point x="279" y="402" type="line" name="hr00"/>
      <point x="351" y="760" type="line"/>
      <point x="231" y="760" type="line"/>
      <point x="159" y="402" type="line"/>
    </contour>
    <contour>
      <point x="171" y="-138" type="line"/>
      <point x="243" y="220" type="line"/>
      <point x="123" y="220" type="line"/>
      <point x="51" y="-138" type="line"/>
    </contour>
  </outline>
</glyph>
<glyph name="section" format="1">
  <advance width="506"/>
  <unicode hex="00A7"/>
  <outline>
    <contour>
      <point x="463" y="308" type="curve" smooth="yes"/>
      <point x="463" y="372"/>
      <point x="429" y="417"/>
      <point x="359" y="445" type="curve" smooth="yes"/>
      <point x="296" y="470" type="line" smooth="yes"/>
      <point x="251" y="488"/>
      <point x="236" y="505"/>
      <point x="236" y="540" type="curve" smooth="yes"/>
      <point x="236" y="588"/>
      <point x="266" y="613"/>
      <point x="325" y="613" type="curve" smooth="yes"/>
      <point x="372" y="613"/>
      <point x="399" y="599"/>
      <point x="427" y="559" type="curve"/>
      <point x="505" y="635" type="line"/>
      <point x="468" y="685"/>
      <point x="410" y="710"/>
      <point x="334" y="710" type="curve" smooth="yes"/>
      <point x="202" y="710"/>
      <point x="119" y="635"/>
      <point x="119" y="518" type="curve" smooth="yes"/>
      <point x="119" y="469"/>
      <point x="134" y="437"/>
      <point x="170" y="406" type="curve"/>
      <point x="170" y="394" type="line"/>
      <point x="90" y="370"/>
      <point x="46" y="316"/>
      <point x="46" y="242" type="curve" smooth="yes" name="hr01"/>
      <point x="46" y="178"/>
      <point x="80" y="133"/>
      <point x="150" y="105" type="curve" smooth="yes"/>
      <point x="213" y="80" type="line" smooth="yes"/>
      <point x="258" y="62"/>
      <point x="273" y="45"/>
      <point x="273" y="10" type="curve" smooth="yes"/>
      <point x="273" y="-38"/>
      <point x="243" y="-63"/>
      <point x="184" y="-63" type="curve" smooth="yes"/>
      <point x="137" y="-63"/>
      <point x="110" y="-49"/>
      <point x="82" y="-9" type="curve"/>
      <point x="4" y="-85" type="line"/>
      <point x="41" y="-135"/>
      <point x="99" y="-160"/>
      <point x="175" y="-160" type="curve" smooth="yes"/>
      <point x="307" y="-160"/>
      <point x="390" y="-85"/>
      <point x="390" y="32" type="curve" smooth="yes"/>
      <point x="390" y="81"/>
      <point x="375" y="113"/>
      <point x="339" y="144" type="curve"/>
      <point x="339" y="156" type="line"/>
      <point x="419" y="180"/>
      <point x="463" y="234"/>
    </contour>
    <contour>
      <point x="160" y="288" type="curve" smooth="yes"/>
      <point x="160" y="327"/>
      <point x="174" y="359"/>
      <point x="201" y="382" type="curve"/>
      <point x="292" y="347" type="line" smooth="yes"/>
      <point x="331" y="331"/>
      <point x="349" y="305"/>
      <point x="349" y="262" type="curve" smooth="yes"/>
      <point x="349" y="223"/>
      <point x="335" y="191"/>
      <point x="308" y="168" type="curve"/>
      <point x="217" y="203" type="line" smooth="yes"/>
      <point x="178" y="219"/>
      <point x="160" y="245"/>
    </contour>
  </outline>
</glyph>
<glyph name="dieresis" format="1">
  <advance width="540"/>
  <unicode hex="00A8"/>
  <outline>
    <contour>
      <point x="195" y="602" type="curve" smooth="yes" name="hr00"/>
      <point x="247" y="602"/>
      <point x="269" y="630"/>
      <point x="276" y="663" type="curve" smooth="yes"/>
      <point x="281" y="687"/>
      <point x="282" y="695"/>
      <point x="282" y="702" type="curve" smooth="yes"/>
      <point x="282" y="727"/>
      <point x="266" y="747"/>
      <point x="223" y="747" type="curve" smooth="yes"/>
      <point x="171" y="747"/>
      <point x="149" y="719"/>
      <point x="142" y="686" type="curve" smooth="yes"/>
      <point x="137" y="662"/>
      <point x="136" y="654"/>
      <point x="136" y="647" type="curve" smooth="yes"/>
      <point x="136" y="622"/>
      <point x="152" y="602"/>
    </contour>
    <contour>
      <point x="377" y="602" type="curve" smooth="yes"/>
      <point x="429" y="602"/>
      <point x="451" y="630"/>
      <point x="458" y="663" type="curve" smooth="yes"/>
      <point x="463" y="687"/>
      <point x="464" y="695"/>
      <point x="464" y="702" type="curve" smooth="yes"/>
      <point x="464" y="727"/>
      <point x="448" y="747"/>
      <point x="405" y="747" type="curve" smooth="yes"/>
      <point x="353" y="747"/>
      <point x="331" y="719"/>
      <point x="324" y="686" type="curve" smooth="yes"/>
      <point x="319" y="662"/>
      <point x="318" y="654"/>
      <point x="318" y="647" type="curve" smooth="yes"/>
      <point x="318" y="622"/>
      <point x="334" y="602"/>
    </contour>
    <contour>
      <point x="272" y="540" type="move" name="_top"/>
    </contour>
  </outline>
</glyph>
<glyph name="copyright" format="1">
  <advance width="694"/>
  <unicode hex="00A9"/>
  <outline>
    <contour>
      <point x="317" y="47" type="curve" smooth="yes" name="hr00"/>
      <point x="186" y="47"/>
      <point x="112" y="128"/>
      <point x="112" y="272" type="curve" smooth="yes"/>
      <point x="112" y="310"/>
      <point x="117" y="358"/>
      <point x="127" y="399" type="curve" smooth="yes"/>
      <point x="166" y="559"/>
      <point x="267" y="651"/>
      <point x="406" y="651" type="curve" smooth="yes"/>
      <point x="537" y="651"/>
      <point x="611" y="570"/>
      <point x="611" y="426" type="curve" smooth="yes"/>
      <point x="611" y="388"/>
      <point x="606" y="340"/>
      <point x="596" y="299" type="curve" smooth="yes"/>
      <point x="557" y="139"/>
      <point x="456" y="47"/>
    </contour>
    <contour>
      <point x="311" y="-12" type="curve" smooth="yes"/>
      <point x="492" y="-12"/>
      <point x="626" y="103"/>
      <point x="668" y="295" type="curve" smooth="yes"/>
      <point x="677" y="336"/>
      <point x="682" y="381"/>
      <point x="682" y="422" type="curve" smooth="yes"/>
      <point x="682" y="606"/>
      <point x="585" y="710"/>
      <point x="412" y="710" type="curve" smooth="yes"/>
      <point x="231" y="710"/>
      <point x="97" y="595"/>
      <point x="55" y="403" type="curve" smooth="yes"/>
      <point x="46" y="362"/>
      <point x="41" y="317"/>
      <point x="41" y="276" type="curve" smooth="yes"/>
      <point x="41" y="92"/>
      <point x="138" y="-12"/>
    </contour>
    <contour>
      <point x="337" y="137" type="curve" smooth="yes"/>
      <point x="415" y="137"/>
      <point x="482" y="172"/>
      <point x="510" y="248" type="curve"/>
      <point x="425" y="293" type="line"/>
      <point x="411" y="247"/>
      <point x="390" y="230"/>
      <point x="349" y="230" type="curve" smooth="yes"/>
      <point x="314" y="230"/>
      <point x="300" y="247"/>
      <point x="300" y="286" type="curve" smooth="yes"/>
      <point x="300" y="298"/>
      <point x="302" y="312"/>
      <point x="304" y="324" type="curve" smooth="yes"/>
      <point x="314" y="373" type="line" smooth="yes"/>
      <point x="328" y="444"/>
      <point x="345" y="468"/>
      <point x="385" y="468" type="curve" smooth="yes"/>
      <point x="422" y="468"/>
      <point x="438" y="452"/>
      <point x="443" y="411" type="curve"/>
      <point x="536" y="452" type="line"/>
      <point x="530" y="513"/>
      <point x="481" y="561"/>
      <point x="394" y="561" type="curve" smooth="yes"/>
      <point x="287" y="561"/>
      <point x="216" y="491"/>
      <point x="192" y="375" type="curve" smooth="yes"/>
      <point x="187" y="351"/>
      <point x="185" y="321"/>
      <point x="185" y="299" type="curve" smooth="yes"/>
      <point x="185" y="194"/>
      <point x="238" y="137"/>
    </contour>
  </outline>
</glyph>
<glyph name="ordfeminine" format="1">
  <advance width="405"/>
  <unicode hex="00AA"/>
  <outline>
    <contour>
      <point x="395" y="402" type="line"/>
      <point x="360" y="402" type="line"/>
      <point x="390" y="558" type="line" smooth="yes"/>
      <point x="393" y="571"/>
      <point x="395" y="585"/>
      <point x="395" y="598" type="curve" smooth="yes"/>
      <point x="395" y="671"/>
      <point x="344" y="704"/>
      <point x="265" y="704" type="curve" smooth="yes"/>
      <point x="190" y="704"/>
      <point x="149" y="675"/>
      <point x="117" y="632" type="curve"/>
      <point x="169" y="585" type="line"/>
      <point x="193" y="614"/>
      <point x="210" y="632"/>
      <point x="248" y="632" type="curve" smooth="yes"/>
      <point x="283" y="632"/>
      <point x="296" y="619"/>
      <point x="296" y="592" type="curve" smooth="yes"/>
      <point x="296" y="584"/>
      <point x="295" y="577"/>
      <point x="293" y="567" type="curve" smooth="yes"/>
      <point x="287" y="542" type="line"/>
      <point x="230" y="542" type="line" smooth="yes"/>
      <point x="115" y="542"/>
      <point x="72" y="493"/>
      <point x="72" y="412" type="curve" smooth="yes"/>
      <point x="72" y="356"/>
      <point x="105" y="324"/>
      <point x="164" y="324" type="curve" smooth="yes" name=""/>
      <point x="212" y="324"/>
      <point x="243" y="348"/>
      <point x="259" y="393" type="curve"/>
      <point x="269" y="393" type="line"/>
      <point x="268" y="382"/>
      <point x="268" y="380"/>
      <point x="268" y="377" type="curve" smooth="yes"/>
      <point x="268" y="345"/>
      <point x="282" y="330"/>
      <point x="323" y="330" type="curve" smooth="yes" name=""/>
      <point x="380" y="330" type="line"/>
    </contour>
    <contour>
      <point x="276" y="489" type="line"/>
      <point x="268" y="446" type="line" smooth="yes"/>
      <point x="261" y="410"/>
      <point x="237" y="389"/>
      <point x="207" y="389" type="curve" smooth="yes" name=""/>
      <point x="181" y="389"/>
      <point x="166" y="400"/>
      <point x="166" y="421" type="curve" smooth="yes"/>
      <point x="166" y="425"/>
      <point x="166" y="430"/>
      <point x="169" y="444" type="curve" smooth="yes"/>
      <point x="176" y="479"/>
      <point x="192" y="489"/>
      <point x="227" y="489" type="curve" smooth="yes"/>
    </contour>
  </outline>
</glyph>
<glyph name="logicalnot" format="1">
  <advance width="540"/>
  <unicode hex="00AC"/>
  <outline>
    <contour>
      <point x="431" y="78" type="line" name="hr00"/>
      <point x="488" y="362" type="line"/>
      <point x="80" y="362" type="line"/>
      <point x="58" y="253" type="line"/>
      <point x="346" y="253" type="line"/>
      <point x="311" y="78" type="line"/>
    </contour>
  </outline>
</glyph>
<glyph name="registered" format="1">
  <advance width="406"/>
  <unicode hex="00AE"/>
  <outline>
    <contour>
      <point x="223" y="298" type="curve" smooth="yes" name="hr00"/>
      <point x="353" y="298"/>
      <point x="448" y="398"/>
      <point x="448" y="541" type="curve" smooth="yes"/>
      <point x="448" y="639"/>
      <point x="390" y="710"/>
      <point x="278" y="710" type="curve" smooth="yes"/>
      <point x="148" y="710"/>
      <point x="53" y="610"/>
      <point x="53" y="467" type="curve" smooth="yes"/>
      <point x="53" y="369"/>
      <point x="111" y="298"/>
    </contour>
    <contour>
      <point x="229" y="340" type="curve" smooth="yes"/>
      <point x="148" y="340"/>
      <point x="101" y="384"/>
      <point x="101" y="464" type="curve" smooth="yes"/>
      <point x="101" y="474"/>
      <point x="102" y="489"/>
      <point x="110" y="530" type="curve" smooth="yes"/>
      <point x="127" y="616"/>
      <point x="192" y="668"/>
      <point x="272" y="668" type="curve" smooth="yes"/>
      <point x="353" y="668"/>
      <point x="400" y="624"/>
      <point x="400" y="544" type="curve" smooth="yes"/>
      <point x="400" y="534"/>
      <point x="399" y="519"/>
      <point x="391" y="478" type="curve" smooth="yes"/>
      <point x="374" y="392"/>
      <point x="309" y="340"/>
    </contour>
    <contour>
      <point x="223" y="465" type="line"/>
      <point x="239" y="465" type="line"/>
      <point x="257" y="400" type="line"/>
      <point x="317" y="400" type="line"/>
      <point x="293" y="474" type="line"/>
      <point x="323" y="480"/>
      <point x="344" y="510"/>
      <point x="344" y="547" type="curve" smooth="yes"/>
      <point x="344" y="585"/>
      <point x="326" y="609"/>
      <point x="281" y="609" type="curve" smooth="yes"/>
      <point x="194" y="609" type="line"/>
      <point x="152" y="400" type="line"/>
      <point x="210" y="400" type="line"/>
    </contour>
    <contour>
      <point x="231" y="507" type="line"/>
      <point x="243" y="565" type="line"/>
      <point x="264" y="565" type="line" smooth="yes"/>
      <point x="279" y="565"/>
      <point x="284" y="557"/>
      <point x="284" y="545" type="curve" smooth="yes"/>
      <point x="284" y="542"/>
      <point x="283" y="535"/>
      <point x="282" y="529" type="curve" smooth="yes"/>
      <point x="279" y="511"/>
      <point x="270" y="507"/>
      <point x="254" y="507" type="curve" smooth="yes"/>
    </contour>
  </outline>
</glyph>
<glyph name="macron" format="1">
  <advance width="540"/>
  <unicode hex="00AF"/>
  <outline>
    <contour>
      <point x="168" y="627" type="line" name="hr00"/>
      <point x="410" y="627" type="line"/>
      <point x="430" y="724" type="line"/>
      <point x="188" y="724" type="line"/>
    </contour>
    <contour>
      <point x="272" y="540" type="move" name="_top"/>
    </contour>
  </outline>
</glyph>
<glyph name="degree" format="1">
  <advance width="414"/>
  <unicode hex="00B0"/>
  <outline>
    <contour>
      <point x="240" y="352" type="curve" smooth="yes" name="hr00"/>
      <point x="345" y="352"/>
      <point x="433" y="427"/>
      <point x="433" y="552" type="curve" smooth="yes"/>
      <point x="433" y="652"/>
      <point x="373" y="710"/>
      <point x="282" y="710" type="curve" smooth="yes"/>
      <point x="177" y="710"/>
      <point x="89" y="635"/>
      <point x="89" y="510" type="curve" smooth="yes"/>
      <point x="89" y="410"/>
      <point x="149" y="352"/>
    </contour>
    <contour>
      <point x="251" y="436" type="curve" smooth="yes"/>
      <point x="209" y="436"/>
      <point x="183" y="460"/>
      <point x="183" y="513" type="curve" smooth="yes"/>
      <point x="183" y="586"/>
      <point x="220" y="626"/>
      <point x="271" y="626" type="curve" smooth="yes"/>
      <point x="313" y="626"/>
      <point x="339" y="602"/>
      <point x="339" y="549" type="curve" smooth="yes"/>
      <point x="339" y="476"/>
      <point x="302" y="436"/>
    </contour>
  </outline>
</glyph>
<glyph name="plusminus" format="1">
  <advance width="540"/>
  <unicode hex="00B1"/>
  <outline>
    <contour>
      <point x="318" y="204" type="line" name="hr00"/>
      <point x="347" y="352" type="line"/>
      <point x="497" y="352" type="line"/>
      <point x="519" y="461" type="line"/>
      <point x="369" y="461" type="line"/>
      <point x="399" y="609" type="line"/>
      <point x="279" y="609" type="line"/>
      <point x="249" y="461" type="line"/>
      <point x="99" y="461" type="line"/>
      <point x="77" y="352" type="line"/>
      <point x="227" y="352" type="line"/>
      <point x="198" y="204" type="line"/>
    </contour>
    <contour>
      <point x="426" y="0" type="line"/>
      <point x="447" y="105" type="line"/>
      <point x="27" y="105" type="line"/>
      <point x="6" y="0" type="line"/>
    </contour>
  </outline>
</glyph>
<glyph name="twosuperior" format="1">
  <advance width="320"/>
  <unicode hex="00B2"/>
  <outline>
    <contour>
      <point x="308" y="401" type="line" name="hr00"/>
      <point x="161" y="401" type="line"/>
      <point x="228" y="446" type="line" smooth="yes"/>
      <point x="307" y="498"/>
      <point x="343" y="534"/>
      <point x="343" y="601" type="curve" smooth="yes"/>
      <point x="343" y="666"/>
      <point x="300" y="704"/>
      <point x="225" y="704" type="curve" smooth="yes"/>
      <point x="146" y="704"/>
      <point x="108" y="660"/>
      <point x="84" y="608" type="curve"/>
      <point x="154" y="581" type="line"/>
      <point x="161" y="604"/>
      <point x="179" y="627"/>
      <point x="214" y="627" type="curve" smooth="yes"/>
      <point x="233" y="627"/>
      <point x="249" y="615"/>
      <point x="249" y="594" type="curve" smooth="yes"/>
      <point x="249" y="589"/>
      <point x="248" y="585"/>
      <point x="247" y="579" type="curve" smooth="yes"/>
      <point x="241" y="549"/>
      <point x="233" y="536"/>
      <point x="185" y="502" type="curve" smooth="yes"/>
      <point x="55" y="409" type="line"/>
      <point x="39" y="329" type="line"/>
      <point x="294" y="329" type="line"/>
    </contour>
  </outline>
</glyph>
<glyph name="threesuperior" format="1">
  <advance width="320"/>
  <unicode hex="00B3"/>
  <outline>
    <contour>
      <point x="157" y="554" type="line"/>
      <point x="142" y="482" type="line"/>
      <point x="180" y="482" type="line" smooth="yes"/>
      <point x="206" y="482"/>
      <point x="220" y="470"/>
      <point x="220" y="450" type="curve" smooth="yes"/>
      <point x="220" y="446"/>
      <point x="219" y="441"/>
      <point x="218" y="436" type="curve" smooth="yes"/>
      <point x="213" y="410"/>
      <point x="192" y="395"/>
      <point x="165" y="395" type="curve" smooth="yes"/>
      <point x="129" y="395"/>
      <point x="115" y="414"/>
      <point x="106" y="442" type="curve"/>
      <point x="41" y="395" type="line"/>
      <point x="55" y="357"/>
      <point x="86" y="323"/>
      <point x="163" y="323" type="curve" smooth="yes"/>
      <point x="258" y="323"/>
      <point x="314" y="370"/>
      <point x="314" y="447" type="curve" smooth="yes"/>
      <point x="314" y="493"/>
      <point x="290" y="513"/>
      <point x="248" y="515" type="curve"/>
      <point x="250" y="525" type="line"/>
      <point x="308" y="529"/>
      <point x="340" y="561"/>
      <point x="340" y="616" type="curve" smooth="yes" name="hr01"/>
      <point x="340" y="673"/>
      <point x="299" y="704"/>
      <point x="224" y="704" type="curve" smooth="yes"/>
      <point x="163" y="704"/>
      <point x="127" y="681"/>
      <point x="91" y="644" type="curve"/>
      <point x="139" y="588" type="line"/>
      <point x="163" y="619"/>
      <point x="180" y="632"/>
      <point x="208" y="632" type="curve" smooth="yes"/>
      <point x="231" y="632"/>
      <point x="246" y="619"/>
      <point x="246" y="602" type="curve" smooth="yes"/>
      <point x="246" y="597"/>
      <point x="245" y="592"/>
      <point x="244" y="587" type="curve" smooth="yes"/>
      <point x="241" y="571"/>
      <point x="225" y="554"/>
      <point x="193" y="554" type="curve" smooth="yes"/>
    </contour>
  </outline>
</glyph>
<glyph name="acute" format="1">
  <advance width="540"/>
  <unicode hex="00B4"/>
  <outline>
    <contour>
      <point x="436" y="752" type="line" name="hr00"/>
      <point x="337" y="816" type="line"/>
      <point x="222" y="626" type="line"/>
      <point x="297" y="579" type="line"/>
    </contour>
    <contour>
      <point x="272" y="540" type="move" name="_top"/>
    </contour>
  </outline>
</glyph>
<glyph name="mu" format="1">
  <advance width="540"/>
  <unicode hex="00B5"/>
  <outline>
    <contour>
      <point x="100" y="-200" type="line"/>
      <point x="120" y="-100" type="line"/>
      <point x="115" y="39" type="line"/>
      <point x="129" y="39" type="line"/>
      <point x="129" y="14"/>
      <point x="147" y="-12"/>
      <point x="183" y="-12" type="curve" smooth="yes"/>
      <point x="243" y="-12"/>
      <point x="266" y="36"/>
      <point x="294" y="120" type="curve"/>
      <point x="308" y="120" type="line"/>
      <point x="305" y="103" type="line" smooth="yes"/>
      <point x="303" y="92"/>
      <point x="301" y="81"/>
      <point x="301" y="72" type="curve" smooth="yes"/>
      <point x="301" y="21"/>
      <point x="324" y="0"/>
      <point x="379" y="0" type="curve" smooth="yes" name="hr01"/>
      <point x="469" y="0" type="line"/>
      <point x="490" y="106" type="line"/>
      <point x="438" y="106" type="line"/>
      <point x="522" y="525" type="line"/>
      <point x="389" y="525" type="line"/>
      <point x="334" y="252" type="line" smooth="yes"/>
      <point x="326" y="211"/>
      <point x="309" y="175"/>
      <point x="290" y="146" type="curve" smooth="yes"/>
      <point x="270" y="115"/>
      <point x="250" y="99"/>
      <point x="217" y="99" type="curve" smooth="yes" name="hr02"/>
      <point x="185" y="99"/>
      <point x="174" y="113"/>
      <point x="174" y="148" type="curve" smooth="yes"/>
      <point x="174" y="168"/>
      <point x="178" y="190"/>
      <point x="182" y="211" type="curve" smooth="yes"/>
      <point x="245" y="525" type="line"/>
      <point x="112" y="525" type="line"/>
      <point x="-33" y="-200" type="line"/>
    </contour>
  </outline>
</glyph>
<glyph name="paragraph" format="1">
  <advance width="578"/>
  <unicode hex="00B6"/>
  <outline>
    <contour>
      <point x="116" y="-149" type="line" name="hr00"/>
      <point x="212" y="-149" type="line"/>
      <point x="364" y="609" type="line"/>
      <point x="449" y="609" type="line"/>
      <point x="297" y="-149" type="line"/>
      <point x="393" y="-149" type="line"/>
      <point x="545" y="609" type="line"/>
      <point x="599" y="609" type="line"/>
      <point x="617" y="698" type="line"/>
      <point x="301" y="698" type="line" smooth="yes"/>
      <point x="149" y="698"/>
      <point x="56" y="594"/>
      <point x="56" y="452" type="curve" smooth="yes"/>
      <point x="56" y="342"/>
      <point x="115" y="268"/>
      <point x="199" y="268" type="curve"/>
    </contour>
  </outline>
</glyph>
<glyph name="periodcentered" format="1">
  <advance width="320"/>
  <unicode hex="00B7"/>
  <outline>
    <contour>
      <point x="153" y="219" type="curve" smooth="yes" name="hr00"/>
      <point x="203" y="219"/>
      <point x="236" y="245"/>
      <point x="246" y="288" type="curve" smooth="yes"/>
      <point x="250" y="305"/>
      <point x="254" y="327"/>
      <point x="254" y="335" type="curve" smooth="yes"/>
      <point x="254" y="366"/>
      <point x="230" y="389"/>
      <point x="183" y="389" type="curve" smooth="yes"/>
      <point x="133" y="389"/>
      <point x="100" y="363"/>
      <point x="90" y="320" type="curve" smooth="yes"/>
      <point x="86" y="303"/>
      <point x="82" y="281"/>
      <point x="82" y="273" type="curve" smooth="yes"/>
      <point x="82" y="242"/>
      <point x="106" y="219"/>
    </contour>
  </outline>
</glyph>
<glyph name="cedilla" format="1">
  <advance width="540"/>
  <unicode hex="00B8"/>
  <outline>
    <contour>
      <point x="244" y="-210" type="curve" smooth="yes" name="hr00"/>
      <point x="325" y="-210"/>
      <point x="380" y="-168"/>
      <point x="380" y="-102" type="curve" smooth="yes"/>
      <point x="380" y="-72"/>
      <point x="365" y="-50"/>
      <point x="330" y="-50" type="curve" smooth="yes"/>
      <point x="306" y="-50"/>
      <point x="290" y="-58"/>
      <point x="282" y="-70" type="curve"/>
      <point x="272" y="-70" type="line"/>
      <point x="316" y="30" type="line"/>
      <point x="256" y="30" type="line"/>
      <point x="206" y="-84" type="line"/>
      <point x="254" y="-84" type="line" smooth="yes"/>
      <point x="284" y="-84"/>
      <point x="292" y="-89"/>
      <point x="292" y="-105" type="curve" smooth="yes"/>
      <point x="292" y="-129"/>
      <point x="277" y="-146"/>
      <point x="243" y="-146" type="curve" smooth="yes"/>
      <point x="209" y="-146"/>
      <point x="196" y="-132"/>
      <point x="186" y="-117" type="curve"/>
      <point x="140" y="-163" type="line"/>
      <point x="155" y="-190"/>
      <point x="189" y="-210"/>
    </contour>
    <contour>
      <point x="272" y="0" type="move" name="_bottom"/>
    </contour>
  </outline>
</glyph>
<glyph name="onesuperior" format="1">
  <advance width="320"/>
  <unicode hex="00B9"/>
  <outline>
    <contour>
      <point x="293" y="329" type="line" name=""/>
      <point x="307" y="401" type="line"/>
      <point x="243" y="401" type="line"/>
      <point x="302" y="698" type="line"/>
      <point x="155" y="698" type="line"/>
      <point x="88" y="606" type="line"/>
      <point x="147" y="567" type="line"/>
      <point x="192" y="629" type="line"/>
      <point x="198" y="629" type="line"/>
      <point x="153" y="401" type="line"/>
      <point x="82" y="401" type="line"/>
      <point x="68" y="329" type="line"/>
    </contour>
  </outline>
</glyph>
<glyph name="ordmasculine" format="1">
  <advance width="388"/>
  <unicode hex="00BA"/>
  <outline>
    <contour>
      <point x="219" y="324" type="curve" smooth="yes" name=""/>
      <point x="315" y="324"/>
      <point x="383" y="386"/>
      <point x="403" y="492" type="curve" smooth="yes"/>
      <point x="407" y="512"/>
      <point x="409" y="537"/>
      <point x="409" y="560" type="curve" smooth="yes"/>
      <point x="409" y="653"/>
      <point x="360" y="704"/>
      <point x="270" y="704" type="curve" smooth="yes"/>
      <point x="174" y="704"/>
      <point x="106" y="642"/>
      <point x="86" y="536" type="curve" smooth="yes"/>
      <point x="82" y="516"/>
      <point x="80" y="491"/>
      <point x="80" y="468" type="curve" smooth="yes"/>
      <point x="80" y="375"/>
      <point x="129" y="324"/>
    </contour>
    <contour>
      <point x="227" y="398" type="curve" smooth="yes"/>
      <point x="190" y="398"/>
      <point x="173" y="413"/>
      <point x="173" y="448" type="curve" smooth="yes"/>
      <point x="173" y="457"/>
      <point x="174" y="466"/>
      <point x="177" y="482" type="curve" smooth="yes"/>
      <point x="189" y="544" type="line" smooth="yes"/>
      <point x="201" y="608"/>
      <point x="220" y="630"/>
      <point x="262" y="630" type="curve" smooth="yes"/>
      <point x="299" y="630"/>
      <point x="316" y="615"/>
      <point x="316" y="580" type="curve" smooth="yes"/>
      <point x="316" y="571"/>
      <point x="315" y="562"/>
      <point x="312" y="546" type="curve" smooth="yes"/>
      <point x="300" y="484" type="line" smooth="yes"/>
      <point x="288" y="420"/>
      <point x="269" y="398"/>
    </contour>
  </outline>
</glyph>
<glyph name="questiondown" format="1">
  <advance width="442"/>
  <unicode hex="00BF"/>
  <outline>
    <contour>
      <point x="160" y="-186" type="curve" smooth="yes" name="hr00"/>
      <point x="280" y="-186"/>
      <point x="343" y="-127"/>
      <point x="386" y="-25" type="curve"/>
      <point x="279" y="22" type="line"/>
      <point x="261" y="-37"/>
      <point x="229" y="-71"/>
      <point x="181" y="-71" type="curve" smooth="yes"/>
      <point x="142" y="-71"/>
      <point x="118" y="-51"/>
      <point x="118" y="-9" type="curve" smooth="yes"/>
      <point x="118" y="1"/>
      <point x="122" y="24"/>
      <point x="124" y="34" type="curve" smooth="yes"/>
      <point x="137" y="99"/>
      <point x="187" y="132"/>
      <point x="284" y="141" type="curve"/>
      <point x="315" y="294" type="line"/>
      <point x="185" y="294" type="line"/>
      <point x="169" y="214" type="line"/>
      <point x="61" y="189"/>
      <point x="-22" y="100"/>
      <point x="-22" y="-23" type="curve" smooth="yes"/>
      <point x="-22" y="-129"/>
      <point x="42" y="-186"/>
    </contour>
    <contour>
      <point x="262" y="364" type="curve" smooth="yes"/>
      <point x="312" y="364"/>
      <point x="345" y="390"/>
      <point x="355" y="433" type="curve" smooth="yes"/>
      <point x="359" y="450"/>
      <point x="363" y="472"/>
      <point x="363" y="480" type="curve" smooth="yes"/>
      <point x="363" y="511"/>
      <point x="339" y="534"/>
      <point x="292" y="534" type="curve" smooth="yes"/>
      <point x="242" y="534"/>
      <point x="209" y="508"/>
      <point x="199" y="465" type="curve" smooth="yes"/>
      <point x="195" y="448"/>
      <point x="191" y="426"/>
      <point x="191" y="418" type="curve" smooth="yes"/>
      <point x="191" y="387"/>
      <point x="215" y="364"/>
    </contour>
  </outline>
</glyph>
<glyph name="AE" format="1">
  <advance width="831"/>
  <unicode hex="00C6"/>
  <outline>
    <contour>
      <point x="322" y="0" type="line" name="hr00"/>
      <point x="738" y="0" type="line"/>
      <point x="762" y="120" type="line"/>
      <point x="483" y="120" type="line"/>
      <point x="518" y="293" type="line"/>
      <point x="756" y="293" type="line"/>
      <point x="780" y="413" type="line"/>
      <point x="542" y="413" type="line"/>
      <point x="575" y="578" type="line"/>
      <point x="845" y="578" type="line"/>
      <point x="869" y="698" type="line"/>
      <point x="358" y="698" type="line"/>
      <point x="-58" y="0" type="line"/>
      <point x="89" y="0" type="line"/>
      <point x="188" y="172" type="line"/>
      <point x="356" y="172" type="line"/>
    </contour>
    <contour>
      <point x="438" y="578" type="line"/>
      <point x="379" y="283" type="line"/>
      <point x="251" y="283" type="line"/>
      <point x="424" y="578" type="line"/>
    </contour>
    <contour>
      <point x="589" y="698" type="move" name="top"/>
    </contour>
  </outline>
</glyph>
<glyph name="Ccedilla" format="1">
  <advance width="566"/>
  <unicode hex="00C7"/>
  <outline>
    <contour>
      <point x="363" y="-102" type="curve" smooth="yes" name="hr00"/>
      <point x="363" y="-72"/>
      <point x="348" y="-50"/>
      <point x="313" y="-50" type="curve" smooth="yes"/>
      <point x="289" y="-50"/>
      <point x="273" y="-58"/>
      <point x="265" y="-70" type="curve"/>
      <point x="255" y="-70" type="line"/>
      <point x="281" y="-12" type="line"/>
      <point x="405" y="-6"/>
      <point x="489" y="55"/>
      <point x="537" y="165" type="curve"/>
      <point x="420" y="217" type="line"/>
      <point x="392" y="135"/>
      <point x="352" y="109"/>
      <point x="280" y="109" type="curve" smooth="yes"/>
      <point x="214" y="109"/>
      <point x="184" y="144"/>
      <point x="184" y="224" type="curve" smooth="yes"/>
      <point x="184" y="241"/>
      <point x="188" y="268"/>
      <point x="194" y="298" type="curve" smooth="yes"/>
      <point x="215" y="403" type="line" smooth="yes"/>
      <point x="244" y="547"/>
      <point x="284" y="589"/>
      <point x="375" y="589" type="curve" smooth="yes"/>
      <point x="436" y="589"/>
      <point x="466" y="559"/>
      <point x="470" y="491" type="curve"/>
      <point x="593" y="541" type="line"/>
      <point x="576" y="638"/>
      <point x="511" y="710"/>
      <point x="385" y="710" type="curve" smooth="yes"/>
      <point x="204" y="710"/>
      <point x="109" y="590"/>
      <point x="68" y="401" type="curve" smooth="yes"/>
      <point x="56" y="344"/>
      <point x="45" y="280"/>
      <point x="45" y="219" type="curve" smooth="yes"/>
      <point x="45" y="103"/>
      <point x="84" y="6"/>
      <point x="222" y="-10" type="curve"/>
      <point x="189" y="-84" type="line"/>
      <point x="237" y="-84" type="line" smooth="yes"/>
      <point x="267" y="-84"/>
      <point x="275" y="-89"/>
      <point x="275" y="-105" type="curve" smooth="yes"/>
      <point x="275" y="-129"/>
      <point x="260" y="-146"/>
      <point x="226" y="-146" type="curve" smooth="yes"/>
      <point x="192" y="-146"/>
      <point x="179" y="-132"/>
      <point x="169" y="-117" type="curve"/>
      <point x="123" y="-163" type="line"/>
      <point x="138" y="-190"/>
      <point x="172" y="-210"/>
      <point x="227" y="-210" type="curve" smooth="yes"/>
      <point x="308" y="-210"/>
      <point x="363" y="-168"/>
    </contour>
  </outline>
</glyph>
<glyph name="multiply" format="1">
  <advance width="540"/>
  <unicode hex="00D7"/>
  <outline>
    <contour>
      <point x="370" y="96" type="line" name="hr00"/>
      <point x="460" y="170" type="line"/>
      <point x="359" y="300" type="line"/>
      <point x="520" y="438" type="line"/>
      <point x="452" y="519" type="line"/>
      <point x="295" y="384" type="line"/>
      <point x="191" y="519" type="line"/>
      <point x="101" y="445" type="line"/>
      <point x="206" y="308" type="line"/>
      <point x="53" y="177" type="line"/>
      <point x="121" y="96" type="line"/>
      <point x="271" y="225" type="line"/>
    </contour>
  </outline>
</glyph>
<glyph name="Oslash" format="1">
  <advance width="621"/>
  <unicode hex="00D8"/>
  <outline>
    <contour>
      <point x="162" y="200" type="line" name="hr00"/>
      <point x="195" y="321" type="line"/>
      <point x="213" y="408" type="line" smooth="yes"/>
      <point x="243" y="551"/>
      <point x="283" y="593"/>
      <point x="376" y="593" type="curve" smooth="yes"/>
      <point x="410" y="593"/>
      <point x="434" y="583"/>
      <point x="451" y="567" type="curve"/>
      <point x="346" y="437" type="line"/>
      <point x="175" y="200" type="line"/>
    </contour>
    <contour>
      <point x="280" y="105" type="curve" smooth="yes"/>
      <point x="246" y="105"/>
      <point x="221" y="115"/>
      <point x="205" y="131" type="curve"/>
      <point x="310" y="260" type="line"/>
      <point x="481" y="498" type="line"/>
      <point x="494" y="498" type="line"/>
      <point x="461" y="377" type="line"/>
      <point x="443" y="290" type="line" smooth="yes"/>
      <point x="413" y="147"/>
      <point x="373" y="105"/>
    </contour>
    <contour>
      <point x="262" y="-12" type="curve" smooth="yes"/>
      <point x="449" y="-12"/>
      <point x="547" y="108"/>
      <point x="588" y="297" type="curve" smooth="yes"/>
      <point x="600" y="354"/>
      <point x="611" y="418"/>
      <point x="611" y="479" type="curve" smooth="yes"/>
      <point x="611" y="524"/>
      <point x="605" y="567"/>
      <point x="590" y="602" type="curve"/>
      <point x="661" y="692" type="line"/>
      <point x="590" y="751" type="line"/>
      <point x="530" y="676" type="line"/>
      <point x="497" y="697"/>
      <point x="453" y="710"/>
      <point x="394" y="710" type="curve" smooth="yes"/>
      <point x="207" y="710"/>
      <point x="109" y="590"/>
      <point x="68" y="401" type="curve" smooth="yes"/>
      <point x="56" y="344"/>
      <point x="45" y="280"/>
      <point x="45" y="219" type="curve" smooth="yes"/>
      <point x="45" y="174"/>
      <point x="51" y="131"/>
      <point x="66" y="96" type="curve"/>
      <point x="-5" y="6" type="line"/>
      <point x="66" y="-53" type="line"/>
      <point x="126" y="22" type="line"/>
      <point x="159" y="1"/>
      <point x="203" y="-12"/>
    </contour>
    <contour>
      <point x="403" y="698" type="move" name="top"/>
    </contour>
  </outline>
</glyph>
<glyph name="Thorn" format="1">
  <advance width="577"/>
  <unicode hex="00DE"/>
  <outline>
    <contour>
      <point x="150" y="0" type="line" name="hr00"/>
      <point x="178" y="138" type="line"/>
      <point x="324" y="138" type="line" smooth="yes"/>
      <point x="470" y="138"/>
      <point x="569" y="248"/>
      <point x="569" y="400" type="curve" smooth="yes"/>
      <point x="569" y="526"/>
      <point x="505" y="575"/>
      <point x="380" y="575" type="curve" smooth="yes"/>
      <point x="265" y="575" type="line"/>
      <point x="290" y="698" type="line"/>
      <point x="153" y="698" type="line"/>
      <point x="13" y="0" type="line"/>
    </contour>
    <contour>
      <point x="241" y="455" type="line"/>
      <point x="374" y="455" type="line" smooth="yes"/>
      <point x="414" y="455"/>
      <point x="427" y="437"/>
      <point x="427" y="403" type="curve" smooth="yes"/>
      <point x="427" y="390"/>
      <point x="424" y="374"/>
      <point x="416" y="335" type="curve" smooth="yes"/>
      <point x="405" y="281"/>
      <point x="382" y="258"/>
      <point x="336" y="258" type="curve" smooth="yes"/>
      <point x="202" y="258" type="line"/>
    </contour>
  </outline>
</glyph>
<glyph name="germandbls" format="1">
  <advance width="603"/>
  <unicode hex="00DF"/>
  <outline>
    <contour>
      <point x="569" y="187" type="curve" smooth="yes"/>
      <point x="569" y="247"/>
      <point x="546" y="282"/>
      <point x="500" y="309" type="curve" smooth="yes"/>
      <point x="466" y="329" type="line" smooth="yes"/>
      <point x="435" y="347"/>
      <point x="421" y="363"/>
      <point x="421" y="388" type="curve" smooth="yes"/>
      <point x="421" y="419"/>
      <point x="444" y="438"/>
      <point x="492" y="438" type="curve" smooth="yes"/>
      <point x="565" y="438" type="line"/>
      <point x="580" y="513" type="line" smooth="yes"/>
      <point x="586" y="542"/>
      <point x="588" y="568"/>
      <point x="588" y="584" type="curve" smooth="yes" name="hr01"/>
      <point x="588" y="684"/>
      <point x="514" y="752"/>
      <point x="388" y="752" type="curve" smooth="yes"/>
      <point x="253" y="752"/>
      <point x="154" y="674"/>
      <point x="131" y="537" type="curve" smooth="yes"/>
      <point x="129" y="525" type="line"/>
      <point x="67" y="525" type="line"/>
      <point x="46" y="419" type="line"/>
      <point x="108" y="419" type="line"/>
      <point x="24" y="0" type="line"/>
      <point x="157" y="0" type="line"/>
      <point x="264" y="537" type="line" smooth="yes"/>
      <point x="280" y="616"/>
      <point x="315" y="650"/>
      <point x="380" y="650" type="curve" smooth="yes"/>
      <point x="434" y="650"/>
      <point x="460" y="627"/>
      <point x="460" y="578" type="curve" smooth="yes"/>
      <point x="460" y="568"/>
      <point x="459" y="551"/>
      <point x="457" y="540" type="curve" smooth="yes"/>
      <point x="455" y="529" type="line"/>
      <point x="355" y="517"/>
      <point x="297" y="452"/>
      <point x="297" y="362" type="curve" smooth="yes"/>
      <point x="297" y="301"/>
      <point x="324" y="263"/>
      <point x="361" y="242" type="curve" smooth="yes"/>
      <point x="395" y="223" type="line" smooth="yes"/>
      <point x="429" y="204"/>
      <point x="443" y="195"/>
      <point x="443" y="164" type="curve" smooth="yes" name="hr02"/>
      <point x="443" y="123"/>
      <point x="419" y="90"/>
      <point x="375" y="90" type="curve" smooth="yes"/>
      <point x="344" y="90"/>
      <point x="317" y="106"/>
      <point x="300" y="142" type="curve"/>
      <point x="215" y="67" type="line"/>
      <point x="240" y="16"/>
      <point x="295" y="-12"/>
      <point x="367" y="-12" type="curve" smooth="yes"/>
      <point x="500" y="-12"/>
      <point x="569" y="84"/>
    </contour>
  </outline>
</glyph>
<glyph name="ae" format="1">
  <advance width="752"/>
  <unicode hex="00E6"/>
  <outline>
    <contour>
      <point x="216" y="84" type="curve" smooth="yes" name="hr00"/>
      <point x="182" y="84"/>
      <point x="163" y="99"/>
      <point x="163" y="126" type="curve" smooth="yes"/>
      <point x="163" y="134"/>
      <point x="165" y="151"/>
      <point x="168" y="167" type="curve" smooth="yes"/>
      <point x="174" y="199"/>
      <point x="197" y="216"/>
      <point x="241" y="217" type="curve" smooth="yes"/>
      <point x="312" y="219" type="line"/>
      <point x="299" y="156" type="line" smooth="yes"/>
      <point x="290" y="110"/>
      <point x="260" y="84"/>
    </contour>
    <contour>
      <point x="562" y="435" type="curve" smooth="yes"/>
      <point x="599" y="435"/>
      <point x="618" y="416"/>
      <point x="618" y="382" type="curve" smooth="yes"/>
      <point x="618" y="331"/>
      <point x="578" y="308"/>
      <point x="466" y="302" type="curve"/>
      <point x="472" y="330" type="line" smooth="yes"/>
      <point x="488" y="403"/>
      <point x="513" y="435"/>
    </contour>
    <contour>
      <point x="163" y="-12" type="curve" smooth="yes"/>
      <point x="238" y="-12"/>
      <point x="300" y="26"/>
      <point x="323" y="91" type="curve"/>
      <point x="337" y="91" type="line"/>
      <point x="363" y="21"/>
      <point x="418" y="-12"/>
      <point x="508" y="-12" type="curve" smooth="yes"/>
      <point x="600" y="-12"/>
      <point x="662" y="23"/>
      <point x="716" y="104" type="curve"/>
      <point x="636" y="169" type="line"/>
      <point x="602" y="117"/>
      <point x="565" y="95"/>
      <point x="514" y="95" type="curve" smooth="yes"/>
      <point x="463" y="95"/>
      <point x="443" y="115"/>
      <point x="443" y="166" type="curve" smooth="yes"/>
      <point x="443" y="181"/>
      <point x="445" y="204"/>
      <point x="449" y="223" type="curve"/>
      <point x="663" y="229"/>
      <point x="747" y="277"/>
      <point x="747" y="396" type="curve" smooth="yes"/>
      <point x="747" y="482"/>
      <point x="689" y="537"/>
      <point x="591" y="537" type="curve" smooth="yes"/>
      <point x="514" y="537"/>
      <point x="448" y="499"/>
      <point x="430" y="444" type="curve"/>
      <point x="416" y="444" type="line"/>
      <point x="400" y="505"/>
      <point x="353" y="537"/>
      <point x="279" y="537" type="curve" smooth="yes"/>
      <point x="197" y="537"/>
      <point x="123" y="499"/>
      <point x="81" y="435" type="curve"/>
      <point x="158" y="361" type="line"/>
      <point x="183" y="410"/>
      <point x="215" y="430"/>
      <point x="268" y="430" type="curve" smooth="yes"/>
      <point x="318" y="430"/>
      <point x="337" y="411"/>
      <point x="337" y="361" type="curve" smooth="yes"/>
      <point x="337" y="350"/>
      <point x="336" y="342"/>
      <point x="334" y="330" type="curve" smooth="yes"/>
      <point x="328" y="297" type="line"/>
      <point x="248" y="294" type="line" smooth="yes"/>
      <point x="89" y="288"/>
      <point x="25" y="238"/>
      <point x="25" y="114" type="curve" smooth="yes"/>
      <point x="25" y="32"/>
      <point x="70" y="-12"/>
    </contour>
    <contour>
      <point x="444" y="540" type="move" name="top"/>
    </contour>
  </outline>
</glyph>
<glyph name="ccedilla" format="1">
  <advance width="448"/>
  <unicode hex="00E7"/>
  <outline>
    <contour>
      <point x="283" y="537" type="curve" smooth="yes" name="hr00"/>
      <point x="151" y="537"/>
      <point x="65" y="444"/>
      <point x="36" y="295" type="curve" smooth="yes"/>
      <point x="30" y="264"/>
      <point x="27" y="227"/>
      <point x="27" y="197" type="curve" smooth="yes"/>
      <point x="27" y="91"/>
      <point x="66" y="6"/>
      <point x="173" y="-9" type="curve"/>
      <point x="140" y="-84" type="line"/>
      <point x="188" y="-84" type="line" smooth="yes"/>
      <point x="218" y="-84"/>
      <point x="226" y="-89"/>
      <point x="226" y="-105" type="curve" smooth="yes"/>
      <point x="226" y="-129"/>
      <point x="211" y="-146"/>
      <point x="177" y="-146" type="curve" smooth="yes"/>
      <point x="143" y="-146"/>
      <point x="130" y="-132"/>
      <point x="120" y="-117" type="curve"/>
      <point x="74" y="-163" type="line"/>
      <point x="89" y="-190"/>
      <point x="123" y="-210"/>
      <point x="178" y="-210" type="curve" smooth="yes"/>
      <point x="259" y="-210"/>
      <point x="314" y="-168"/>
      <point x="314" y="-102" type="curve" smooth="yes"/>
      <point x="314" y="-72"/>
      <point x="299" y="-50"/>
      <point x="264" y="-50" type="curve" smooth="yes"/>
      <point x="240" y="-50"/>
      <point x="224" y="-58"/>
      <point x="216" y="-70" type="curve"/>
      <point x="206" y="-70" type="line"/>
      <point x="232" y="-11" type="line"/>
      <point x="317" y="-5"/>
      <point x="387" y="41"/>
      <point x="419" y="132" type="curve"/>
      <point x="315" y="180" type="line"/>
      <point x="297" y="120"/>
      <point x="274" y="95"/>
      <point x="221" y="95" type="curve" smooth="yes"/>
      <point x="176" y="95"/>
      <point x="158" y="118"/>
      <point x="158" y="168" type="curve" smooth="yes"/>
      <point x="158" y="185"/>
      <point x="160" y="201"/>
      <point x="163" y="216" type="curve" smooth="yes"/>
      <point x="181" y="306" type="line" smooth="yes"/>
      <point x="199" y="398"/>
      <point x="220" y="430"/>
      <point x="272" y="430" type="curve" smooth="yes"/>
      <point x="320" y="430"/>
      <point x="338" y="410"/>
      <point x="344" y="360" type="curve"/>
      <point x="455" y="401" type="line"/>
      <point x="446" y="482"/>
      <point x="386" y="537"/>
    </contour>
  </outline>
</glyph>
<glyph name="eth" format="1">
  <advance width="522"/>
  <unicode hex="00F0"/>
  <outline>
    <contour>
      <point x="486" y="698" type="line" name="hr00"/>
      <point x="458" y="752" type="line"/>
      <point x="372" y="702" type="line"/>
      <point x="359" y="717"/>
      <point x="345" y="730"/>
      <point x="332" y="740" type="curve"/>
      <point x="146" y="740" type="line"/>
      <point x="189" y="711"/>
      <point x="227" y="676"/>
      <point x="260" y="638" type="curve"/>
      <point x="171" y="587" type="line"/>
      <point x="199" y="533" type="line"/>
      <point x="297" y="589" type="line"/>
      <point x="337" y="531"/>
      <point x="361" y="469"/>
      <point x="361" y="412" type="curve"/>
      <point x="347" y="412" type="line"/>
      <point x="339" y="463"/>
      <point x="301" y="504"/>
      <point x="232" y="504" type="curve" smooth="yes"/>
      <point x="131" y="504"/>
      <point x="62" y="420"/>
      <point x="36" y="286" type="curve" smooth="yes"/>
      <point x="30" y="255"/>
      <point x="27" y="217"/>
      <point x="27" y="187" type="curve" smooth="yes"/>
      <point x="27" y="64"/>
      <point x="80" y="-12"/>
      <point x="215" y="-12" type="curve" smooth="yes"/>
      <point x="366" y="-12"/>
      <point x="442" y="83"/>
      <point x="476" y="248" type="curve" smooth="yes"/>
      <point x="486" y="297"/>
      <point x="492" y="354"/>
      <point x="492" y="401" type="curve" smooth="yes"/>
      <point x="492" y="490"/>
      <point x="456" y="583"/>
      <point x="409" y="654" type="curve"/>
    </contour>
    <contour>
      <point x="226" y="95" type="curve" smooth="yes"/>
      <point x="178" y="95"/>
      <point x="159" y="117"/>
      <point x="159" y="168" type="curve" smooth="yes"/>
      <point x="159" y="185"/>
      <point x="161" y="201"/>
      <point x="164" y="216" type="curve" smooth="yes"/>
      <point x="175" y="273" type="line" smooth="yes"/>
      <point x="192" y="363"/>
      <point x="216" y="397"/>
      <point x="270" y="397" type="curve" smooth="yes"/>
      <point x="318" y="397"/>
      <point x="337" y="374"/>
      <point x="337" y="324" type="curve" smooth="yes"/>
      <point x="337" y="307"/>
      <point x="335" y="291"/>
      <point x="332" y="276" type="curve" smooth="yes"/>
      <point x="321" y="219" type="line" smooth="yes"/>
      <point x="304" y="129"/>
      <point x="280" y="95"/>
    </contour>
  </outline>
</glyph>
<glyph name="divide" format="1">
  <advance width="540"/>
  <unicode hex="00F7"/>
  <outline>
    <contour>
      <point x="478" y="253" type="line"/>
      <point x="500" y="362" type="line"/>
      <point x="80" y="362" type="line"/>
      <point x="58" y="253" type="line"/>
    </contour>
    <contour>
      <point x="228" y="47" type="curve" smooth="yes"/>
      <point x="281" y="47"/>
      <point x="306" y="72"/>
      <point x="314" y="107" type="curve" smooth="yes"/>
      <point x="317" y="120"/>
      <point x="322" y="142"/>
      <point x="322" y="152" type="curve" smooth="yes"/>
      <point x="322" y="177"/>
      <point x="304" y="194"/>
      <point x="256" y="194" type="curve" smooth="yes"/>
      <point x="203" y="194"/>
      <point x="178" y="169"/>
      <point x="170" y="134" type="curve" smooth="yes"/>
      <point x="167" y="121"/>
      <point x="162" y="99"/>
      <point x="162" y="89" type="curve" smooth="yes"/>
      <point x="162" y="64"/>
      <point x="180" y="47"/>
    </contour>
    <contour>
      <point x="302" y="421" type="curve" smooth="yes"/>
      <point x="355" y="421"/>
      <point x="380" y="446"/>
      <point x="388" y="481" type="curve" smooth="yes"/>
      <point x="391" y="494"/>
      <point x="396" y="516"/>
      <point x="396" y="526" type="curve" smooth="yes" name="hr01"/>
      <point x="396" y="551"/>
      <point x="378" y="568"/>
      <point x="330" y="568" type="curve" smooth="yes"/>
      <point x="277" y="568"/>
      <point x="252" y="543"/>
      <point x="244" y="508" type="curve" smooth="yes"/>
      <point x="241" y="495"/>
      <point x="236" y="473"/>
      <point x="236" y="463" type="curve" smooth="yes"/>
      <point x="236" y="438"/>
      <point x="254" y="421"/>
    </contour>
  </outline>
</glyph>
<glyph name="oslash" format="1">
  <advance width="493"/>
  <unicode hex="00F8"/>
  <outline>
    <contour>
      <point x="210" y="-12" type="curve" smooth="yes" name="hr00"/>
      <point x="354" y="-12"/>
      <point x="428" y="81"/>
      <point x="457" y="230" type="curve" smooth="yes"/>
      <point x="463" y="261"/>
      <point x="466" y="298"/>
      <point x="466" y="328" type="curve" smooth="yes"/>
      <point x="466" y="365"/>
      <point x="462" y="399"/>
      <point x="453" y="429" type="curve"/>
      <point x="529" y="512" type="line"/>
      <point x="462" y="573" type="line"/>
      <point x="401" y="505" type="line"/>
      <point x="374" y="525"/>
      <point x="335" y="537"/>
      <point x="283" y="537" type="curve" smooth="yes"/>
      <point x="139" y="537"/>
      <point x="65" y="444"/>
      <point x="36" y="295" type="curve" smooth="yes"/>
      <point x="30" y="264"/>
      <point x="27" y="227"/>
      <point x="27" y="197" type="curve" smooth="yes"/>
      <point x="27" y="160"/>
      <point x="31" y="126"/>
      <point x="40" y="96" type="curve"/>
      <point x="-36" y="13" type="line"/>
      <point x="31" y="-48" type="line"/>
      <point x="92" y="20" type="line"/>
      <point x="119" y="0"/>
      <point x="158" y="-12"/>
    </contour>
    <contour>
      <point x="273" y="434" type="curve" smooth="yes"/>
      <point x="299" y="434"/>
      <point x="317" y="427"/>
      <point x="327" y="412" type="curve"/>
      <point x="257" y="322" type="line"/>
      <point x="156" y="194" type="line"/>
      <point x="144" y="194" type="line"/>
      <point x="179" y="310" type="line" smooth="yes"/>
      <point x="198" y="402"/>
      <point x="219" y="434"/>
    </contour>
    <contour>
      <point x="220" y="91" type="curve" smooth="yes"/>
      <point x="194" y="91"/>
      <point x="176" y="98"/>
      <point x="166" y="114" type="curve"/>
      <point x="237" y="205" type="line"/>
      <point x="337" y="332" type="line"/>
      <point x="349" y="332" type="line"/>
      <point x="314" y="215" type="line" smooth="yes"/>
      <point x="295" y="123"/>
      <point x="274" y="91"/>
    </contour>
    <contour>
      <point x="289" y="540" type="move" name="top"/>
    </contour>
  </outline>
</glyph>
<glyph name="thorn" format="1">
  <advance width="541"/>
  <unicode hex="00FE"/>
  <outline>
    <contour>
      <point x="-28" y="-200" type="line" name="hr00"/>
      <point x="105" y="-200" type="line"/>
      <point x="164" y="93" type="line"/>
      <point x="178" y="93" type="line"/>
      <point x="179" y="31"/>
      <point x="213" y="-12"/>
      <point x="284" y="-12" type="curve" smooth="yes"/>
      <point x="399" y="-12"/>
      <point x="471" y="88"/>
      <point x="502" y="252" type="curve" smooth="yes"/>
      <point x="509" y="289"/>
      <point x="514" y="331"/>
      <point x="514" y="372" type="curve" smooth="yes"/>
      <point x="514" y="492"/>
      <point x="470" y="537"/>
      <point x="391" y="537" type="curve" smooth="yes"/>
      <point x="309" y="537"/>
      <point x="273" y="489"/>
      <point x="240" y="407" type="curve"/>
      <point x="226" y="407" type="line"/>
      <point x="293" y="740" type="line"/>
      <point x="160" y="740" type="line"/>
    </contour>
    <contour>
      <point x="250" y="97" type="curve" smooth="yes"/>
      <point x="199" y="97"/>
      <point x="171" y="129"/>
      <point x="182" y="185" type="curve" smooth="yes"/>
      <point x="200" y="275" type="line" smooth="yes"/>
      <point x="207" y="310"/>
      <point x="223" y="345"/>
      <point x="242" y="377" type="curve" smooth="yes"/>
      <point x="261" y="409"/>
      <point x="289" y="428"/>
      <point x="325" y="428" type="curve" smooth="yes"/>
      <point x="362" y="428"/>
      <point x="379" y="404"/>
      <point x="379" y="372" type="curve" smooth="yes"/>
      <point x="379" y="355"/>
      <point x="373" y="318"/>
      <point x="367" y="288" type="curve" smooth="yes"/>
      <point x="353" y="219" type="line" smooth="yes"/>
      <point x="336" y="137"/>
      <point x="310" y="97"/>
    </contour>
  </outline>
</glyph>
<glyph name="Aogonek" format="1">
  <advance width="590"/>
  <unicode hex="0104"/>
  <outline>
    <contour>
      <point x="-40" y="0" type="line" name="hr00"/>
      <point x="106" y="0" type="line"/>
      <point x="180" y="172" type="line"/>
      <point x="376" y="172" type="line"/>
      <point x="386" y="0" type="line"/>
      <point x="453" y="0" type="line"/>
      <point x="451" y="-10" type="line"/>
      <point x="348" y="-34"/>
      <point x="312" y="-77"/>
      <point x="312" y="-134" type="curve" smooth="yes"/>
      <point x="312" y="-185"/>
      <point x="351" y="-212"/>
      <point x="414" y="-212" type="curve" smooth="yes"/>
      <point x="471" y="-212"/>
      <point x="505" y="-193"/>
      <point x="529" y="-163" type="curve"/>
      <point x="486" y="-118" type="line"/>
      <point x="476" y="-134"/>
      <point x="459" y="-144"/>
      <point x="435" y="-144" type="curve" smooth="yes"/>
      <point x="410" y="-144"/>
      <point x="402" y="-131"/>
      <point x="402" y="-113" type="curve" smooth="yes"/>
      <point x="402" y="-80"/>
      <point x="424" y="-55"/>
      <point x="526" y="0" type="curve"/>
      <point x="472" y="698" type="line"/>
      <point x="290" y="698" type="line"/>
    </contour>
    <contour>
      <point x="370" y="283" type="line"/>
      <point x="235" y="283" type="line"/>
      <point x="303" y="451" type="line"/>
      <point x="347" y="578" type="line"/>
      <point x="361" y="578" type="line"/>
      <point x="362" y="451" type="line"/>
    </contour>
  </outline>
</glyph>
<glyph name="aogonek" format="1">
  <advance width="543"/>
  <unicode hex="0105"/>
  <outline>
    <contour>
      <point x="497" y="106" type="line"/>
      <point x="445" y="106" type="line"/>
      <point x="529" y="525" type="line"/>
      <point x="396" y="525" type="line"/>
      <point x="377" y="432" type="line"/>
      <point x="363" y="432" type="line"/>
      <point x="362" y="494"/>
      <point x="328" y="537"/>
      <point x="257" y="537" type="curve" smooth="yes" name="hr01"/>
      <point x="142" y="537"/>
      <point x="70" y="437"/>
      <point x="39" y="273" type="curve" smooth="yes"/>
      <point x="32" y="236"/>
      <point x="27" y="194"/>
      <point x="27" y="153" type="curve" smooth="yes"/>
      <point x="27" y="33"/>
      <point x="71" y="-12"/>
      <point x="150" y="-12" type="curve" smooth="yes"/>
      <point x="232" y="-12"/>
      <point x="268" y="36"/>
      <point x="301" y="118" type="curve"/>
      <point x="315" y="118" type="line"/>
      <point x="312" y="103" type="line" smooth="yes"/>
      <point x="309" y="87"/>
      <point x="308" y="79"/>
      <point x="308" y="69" type="curve" smooth="yes"/>
      <point x="308" y="21"/>
      <point x="332" y="0"/>
      <point x="386" y="0" type="curve" smooth="yes" name="hr02"/>
      <point x="409" y="0" type="line"/>
      <point x="407" y="-10" type="line"/>
      <point x="297" y="-35"/>
      <point x="262" y="-77"/>
      <point x="262" y="-134" type="curve" smooth="yes"/>
      <point x="262" y="-185"/>
      <point x="301" y="-212"/>
      <point x="364" y="-212" type="curve" smooth="yes"/>
      <point x="421" y="-212"/>
      <point x="455" y="-193"/>
      <point x="479" y="-163" type="curve"/>
      <point x="436" y="-118" type="line"/>
      <point x="426" y="-134"/>
      <point x="409" y="-144"/>
      <point x="385" y="-144" type="curve" smooth="yes"/>
      <point x="360" y="-144"/>
      <point x="352" y="-131"/>
      <point x="352" y="-113" type="curve" smooth="yes"/>
      <point x="352" y="-80"/>
      <point x="374" y="-55"/>
      <point x="476" y="0" type="curve"/>
    </contour>
    <contour>
      <point x="216" y="97" type="curve" smooth="yes" name="hr03"/>
      <point x="179" y="97"/>
      <point x="162" y="121"/>
      <point x="162" y="153" type="curve" smooth="yes"/>
      <point x="162" y="170"/>
      <point x="168" y="207"/>
      <point x="174" y="237" type="curve" smooth="yes"/>
      <point x="188" y="306" type="line" smooth="yes"/>
      <point x="205" y="388"/>
      <point x="231" y="428"/>
      <point x="291" y="428" type="curve" smooth="yes"/>
      <point x="342" y="428"/>
      <point x="370" y="396"/>
      <point x="359" y="340" type="curve" smooth="yes"/>
      <point x="341" y="250" type="line" smooth="yes"/>
      <point x="334" y="215"/>
      <point x="318" y="180"/>
      <point x="299" y="148" type="curve" smooth="yes"/>
      <point x="280" y="116"/>
      <point x="252" y="97"/>
    </contour>
  </outline>
</glyph>
<glyph name="Dcroat" format="1">
  <advance width="626"/>
  <unicode hex="0110"/>
  <outline>
    <contour>
      <point x="28" y="0" type="line" name="hr00"/>
      <point x="269" y="0" type="line" smooth="yes"/>
      <point x="459" y="0"/>
      <point x="555" y="115"/>
      <point x="594" y="297" type="curve" smooth="yes"/>
      <point x="605" y="350"/>
      <point x="615" y="410"/>
      <point x="615" y="467" type="curve" smooth="yes"/>
      <point x="615" y="594"/>
      <point x="568" y="698"/>
      <point x="398" y="698" type="curve" smooth="yes"/>
      <point x="168" y="698" type="line"/>
      <point x="110" y="410" type="line"/>
      <point x="35" y="410" type="line"/>
      <point x="14" y="303" type="line"/>
      <point x="89" y="303" type="line"/>
    </contour>
    <contour>
      <point x="189" y="120" type="line"/>
      <point x="226" y="303" type="line"/>
      <point x="326" y="303" type="line"/>
      <point x="347" y="410" type="line"/>
      <point x="247" y="410" type="line"/>
      <point x="281" y="578" type="line"/>
      <point x="380" y="578" type="line" smooth="yes"/>
      <point x="450" y="578"/>
      <point x="476" y="543"/>
      <point x="476" y="462" type="curve" smooth="yes"/>
      <point x="476" y="445"/>
      <point x="472" y="418"/>
      <point x="466" y="388" type="curve" smooth="yes"/>
      <point x="447" y="295" type="line" smooth="yes"/>
      <point x="419" y="160"/>
      <point x="382" y="120"/>
      <point x="287" y="120" type="curve" smooth="yes"/>
    </contour>
  </outline>
</glyph>
<glyph name="dcroat" format="1">
  <advance width="547"/>
  <unicode hex="0111"/>
  <outline>
    <contour>
      <point x="476" y="0" type="line"/>
      <point x="497" y="106" type="line"/>
      <point x="445" y="106" type="line"/>
      <point x="542" y="597" type="line"/>
      <point x="597" y="597" type="line"/>
      <point x="613" y="680" type="line"/>
      <point x="558" y="680" type="line"/>
      <point x="570" y="740" type="line"/>
      <point x="437" y="740" type="line"/>
      <point x="425" y="680" type="line"/>
      <point x="290" y="680" type="line"/>
      <point x="274" y="597" type="line"/>
      <point x="409" y="597" type="line"/>
      <point x="377" y="432" type="line"/>
      <point x="363" y="432" type="line"/>
      <point x="362" y="494"/>
      <point x="328" y="537"/>
      <point x="257" y="537" type="curve" smooth="yes"/>
      <point x="142" y="537"/>
      <point x="70" y="437"/>
      <point x="39" y="273" type="curve" smooth="yes"/>
      <point x="32" y="236"/>
      <point x="27" y="194"/>
      <point x="27" y="153" type="curve" smooth="yes"/>
      <point x="27" y="33"/>
      <point x="71" y="-12"/>
      <point x="150" y="-12" type="curve" smooth="yes" name="hr01"/>
      <point x="232" y="-12"/>
      <point x="268" y="36"/>
      <point x="301" y="118" type="curve"/>
      <point x="315" y="118" type="line"/>
      <point x="312" y="103" type="line" smooth="yes"/>
      <point x="309" y="87"/>
      <point x="308" y="79"/>
      <point x="308" y="69" type="curve" smooth="yes"/>
      <point x="308" y="21"/>
      <point x="332" y="0"/>
      <point x="386" y="0" type="curve" smooth="yes" name="hr02"/>
    </contour>
    <contour>
      <point x="216" y="97" type="curve" smooth="yes" name="hr03"/>
      <point x="179" y="97"/>
      <point x="162" y="121"/>
      <point x="162" y="153" type="curve" smooth="yes"/>
      <point x="162" y="170"/>
      <point x="168" y="207"/>
      <point x="174" y="237" type="curve" smooth="yes"/>
      <point x="188" y="306" type="line" smooth="yes"/>
      <point x="205" y="388"/>
      <point x="231" y="428"/>
      <point x="291" y="428" type="curve" smooth="yes"/>
      <point x="342" y="428"/>
      <point x="370" y="396"/>
      <point x="359" y="340" type="curve" smooth="yes"/>
      <point x="341" y="250" type="line" smooth="yes"/>
      <point x="334" y="215"/>
      <point x="318" y="180"/>
      <point x="299" y="148" type="curve" smooth="yes"/>
      <point x="280" y="116"/>
      <point x="252" y="97"/>
    </contour>
  </outline>
</glyph>
<glyph name="Eogonek" format="1">
  <advance width="522"/>
  <unicode hex="0118"/>
  <outline>
    <contour>
      <point x="13" y="0" type="line" name="hr00"/>
      <point x="356" y="0" type="line"/>
      <point x="354" y="-10" type="line"/>
      <point x="250" y="-37"/>
      <point x="215" y="-77"/>
      <point x="215" y="-134" type="curve" smooth="yes"/>
      <point x="215" y="-185"/>
      <point x="254" y="-212"/>
      <point x="317" y="-212" type="curve" smooth="yes"/>
      <point x="374" y="-212"/>
      <point x="408" y="-193"/>
      <point x="432" y="-163" type="curve"/>
      <point x="389" y="-118" type="line"/>
      <point x="379" y="-134"/>
      <point x="362" y="-144"/>
      <point x="338" y="-144" type="curve" smooth="yes"/>
      <point x="313" y="-144"/>
      <point x="305" y="-131"/>
      <point x="305" y="-113" type="curve" smooth="yes"/>
      <point x="305" y="-80"/>
      <point x="327" y="-55"/>
      <point x="429" y="0" type="curve"/>
      <point x="453" y="120" type="line"/>
      <point x="174" y="120" type="line"/>
      <point x="209" y="293" type="line"/>
      <point x="447" y="293" type="line"/>
      <point x="471" y="413" type="line"/>
      <point x="233" y="413" type="line"/>
      <point x="266" y="578" type="line"/>
      <point x="536" y="578" type="line"/>
      <point x="560" y="698" type="line"/>
      <point x="153" y="698" type="line"/>
    </contour>
  </outline>
</glyph>
<glyph name="eogonek" format="1">
  <advance width="467"/>
  <unicode hex="0119"/>
  <outline>
    <contour>
      <point x="194" y="-212" type="curve" smooth="yes"/>
      <point x="251" y="-212"/>
      <point x="285" y="-193"/>
      <point x="309" y="-163" type="curve"/>
      <point x="266" y="-118" type="line"/>
      <point x="256" y="-134"/>
      <point x="239" y="-144"/>
      <point x="215" y="-144" type="curve" smooth="yes"/>
      <point x="190" y="-144"/>
      <point x="182" y="-131"/>
      <point x="182" y="-113" type="curve" smooth="yes"/>
      <point x="182" y="-73"/>
      <point x="216" y="-43"/>
      <point x="306" y="-3" type="curve" smooth="yes"/>
      <point x="354" y="18"/>
      <point x="394" y="48"/>
      <point x="431" y="104" type="curve"/>
      <point x="351" y="169" type="line"/>
      <point x="313" y="111"/>
      <point x="275" y="95"/>
      <point x="226" y="95" type="curve" smooth="yes"/>
      <point x="174" y="95"/>
      <point x="158" y="120"/>
      <point x="158" y="168" type="curve" smooth="yes" name="hr01"/>
      <point x="158" y="179"/>
      <point x="160" y="199"/>
      <point x="162" y="211" type="curve"/>
      <point x="374" y="217"/>
      <point x="462" y="273"/>
      <point x="462" y="392" type="curve" smooth="yes"/>
      <point x="462" y="483"/>
      <point x="395" y="537"/>
      <point x="292" y="537" type="curve" smooth="yes"/>
      <point x="153" y="537"/>
      <point x="69" y="452"/>
      <point x="36" y="295" type="curve" smooth="yes"/>
      <point x="30" y="267"/>
      <point x="27" y="227"/>
      <point x="27" y="197" type="curve" smooth="yes"/>
      <point x="27" y="63"/>
      <point x="84" y="-12"/>
      <point x="217" y="-12" type="curve"/>
      <point x="218" y="-16" type="line"/>
      <point x="128" y="-48"/>
      <point x="92" y="-79"/>
      <point x="92" y="-134" type="curve" smooth="yes" name="hr02"/>
      <point x="92" y="-185"/>
      <point x="131" y="-212"/>
    </contour>
    <contour>
      <point x="275" y="435" type="curve" smooth="yes"/>
      <point x="312" y="435"/>
      <point x="333" y="418"/>
      <point x="333" y="380" type="curve" smooth="yes"/>
      <point x="333" y="331"/>
      <point x="306" y="304"/>
      <point x="179" y="296" type="curve"/>
      <point x="186" y="329" type="line" smooth="yes"/>
      <point x="201" y="401"/>
      <point x="227" y="435"/>
    </contour>
  </outline>
</glyph>
<glyph name="Hbar" format="1">
  <advance width="652"/>
  <unicode hex="0126"/>
  <outline>
    <contour>
      <point x="386" y="0" type="line" name="hr00"/>
      <point x="523" y="0" type="line"/>
      <point x="627" y="519" type="line"/>
      <point x="692" y="519" type="line"/>
      <point x="709" y="605" type="line"/>
      <point x="644" y="605" type="line"/>
      <point x="663" y="698" type="line"/>
      <point x="526" y="698" type="line"/>
      <point x="507" y="605" type="line"/>
      <point x="281" y="605" type="line"/>
      <point x="300" y="698" type="line"/>
      <point x="163" y="698" type="line"/>
      <point x="144" y="605" type="line"/>
      <point x="79" y="605" type="line"/>
      <point x="62" y="519" type="line"/>
      <point x="127" y="519" type="line"/>
      <point x="23" y="0" type="line"/>
      <point x="160" y="0" type="line"/>
      <point x="218" y="293" type="line"/>
      <point x="444" y="293" type="line"/>
    </contour>
    <contour>
      <point x="242" y="413" type="line"/>
      <point x="264" y="519" type="line"/>
      <point x="490" y="519" type="line"/>
      <point x="468" y="413" type="line"/>
    </contour>
  </outline>
</glyph>
<glyph name="hbar" format="1">
  <advance width="535"/>
  <unicode hex="0127"/>
  <outline>
    <contour>
      <point x="12" y="0" type="line" name="hr00"/>
      <point x="145" y="0" type="line"/>
      <point x="200" y="273" type="line" smooth="yes"/>
      <point x="208" y="314"/>
      <point x="225" y="350"/>
      <point x="244" y="379" type="curve" smooth="yes"/>
      <point x="264" y="410"/>
      <point x="284" y="426"/>
      <point x="317" y="426" type="curve" smooth="yes"/>
      <point x="349" y="426"/>
      <point x="360" y="412"/>
      <point x="360" y="377" type="curve" smooth="yes"/>
      <point x="360" y="357"/>
      <point x="356" y="335"/>
      <point x="352" y="314" type="curve" smooth="yes"/>
      <point x="311" y="101" type="line" smooth="yes"/>
      <point x="309" y="93"/>
      <point x="307" y="81"/>
      <point x="307" y="72" type="curve" smooth="yes"/>
      <point x="307" y="21"/>
      <point x="330" y="0"/>
      <point x="385" y="0" type="curve" smooth="yes"/>
      <point x="469" y="0" type="line"/>
      <point x="490" y="106" type="line"/>
      <point x="444" y="106" type="line"/>
      <point x="488" y="327" type="line" smooth="yes"/>
      <point x="492" y="347"/>
      <point x="499" y="384"/>
      <point x="499" y="407" type="curve" smooth="yes"/>
      <point x="499" y="493"/>
      <point x="466" y="537"/>
      <point x="391" y="537" type="curve" smooth="yes"/>
      <point x="316" y="537"/>
      <point x="270" y="490"/>
      <point x="240" y="405" type="curve"/>
      <point x="226" y="405" type="line"/>
      <point x="265" y="597" type="line"/>
      <point x="400" y="597" type="line"/>
      <point x="416" y="680" type="line"/>
      <point x="281" y="680" type="line"/>
      <point x="293" y="740" type="line"/>
      <point x="160" y="740" type="line"/>
      <point x="148" y="680" type="line"/>
      <point x="93" y="680" type="line"/>
      <point x="77" y="597" type="line"/>
      <point x="132" y="597" type="line"/>
    </contour>
  </outline>
</glyph>
<glyph name="Iogonek" format="1">
  <advance width="387"/>
  <unicode hex="012E"/>
  <outline>
    <contour>
      <point x="-6" y="0" type="line" name="hr00"/>
      <point x="214" y="0" type="line"/>
      <point x="212" y="-10" type="line"/>
      <point x="109" y="-37"/>
      <point x="73" y="-77"/>
      <point x="73" y="-134" type="curve" smooth="yes"/>
      <point x="73" y="-185"/>
      <point x="112" y="-212"/>
      <point x="175" y="-212" type="curve" smooth="yes"/>
      <point x="232" y="-212"/>
      <point x="266" y="-193"/>
      <point x="290" y="-163" type="curve"/>
      <point x="247" y="-118" type="line"/>
      <point x="237" y="-134"/>
      <point x="220" y="-144"/>
      <point x="196" y="-144" type="curve" smooth="yes"/>
      <point x="171" y="-144"/>
      <point x="163" y="-131"/>
      <point x="163" y="-113" type="curve" smooth="yes"/>
      <point x="163" y="-80"/>
      <point x="185" y="-55"/>
      <point x="287" y="0" type="curve"/>
      <point x="309" y="110" type="line"/>
      <point x="231" y="110" type="line"/>
      <point x="327" y="588" type="line"/>
      <point x="405" y="588" type="line"/>
      <point x="427" y="698" type="line"/>
      <point x="134" y="698" type="line"/>
      <point x="112" y="588" type="line"/>
      <point x="190" y="588" type="line"/>
      <point x="94" y="110" type="line"/>
      <point x="16" y="110" type="line"/>
    </contour>
  </outline>
</glyph>
<glyph name="iogonek" format="1">
  <advance width="266"/>
  <unicode hex="012F"/>
  <outline>
    <contour>
      <point x="211" y="106" type="line"/>
      <point x="165" y="106" type="line"/>
      <point x="249" y="525" type="line"/>
      <point x="116" y="525" type="line"/>
      <point x="32" y="103" type="line" smooth="yes"/>
      <point x="30" y="92"/>
      <point x="28" y="79"/>
      <point x="28" y="70" type="curve" smooth="yes"/>
      <point x="28" y="19"/>
      <point x="51" y="0"/>
      <point x="106" y="0" type="curve" smooth="yes"/>
      <point x="128" y="0" type="line"/>
      <point x="126" y="-10" type="line"/>
      <point x="17" y="-35"/>
      <point x="-18" y="-77"/>
      <point x="-18" y="-134" type="curve" smooth="yes" name="hr01"/>
      <point x="-18" y="-185"/>
      <point x="21" y="-212"/>
      <point x="84" y="-212" type="curve" smooth="yes"/>
      <point x="141" y="-212"/>
      <point x="175" y="-193"/>
      <point x="199" y="-163" type="curve"/>
      <point x="156" y="-118" type="line"/>
      <point x="146" y="-134"/>
      <point x="129" y="-144"/>
      <point x="105" y="-144" type="curve" smooth="yes"/>
      <point x="80" y="-144"/>
      <point x="72" y="-131"/>
      <point x="72" y="-113" type="curve" smooth="yes"/>
      <point x="72" y="-80"/>
      <point x="88" y="-55"/>
      <point x="190" y="0" type="curve"/>
    </contour>
    <contour>
      <point x="193" y="590" type="curve" smooth="yes"/>
      <point x="255" y="590"/>
      <point x="276" y="620"/>
      <point x="286" y="656" type="curve" smooth="yes"/>
      <point x="290" y="670"/>
      <point x="293" y="684"/>
      <point x="293" y="696" type="curve" smooth="yes"/>
      <point x="293" y="727"/>
      <point x="270" y="746"/>
      <point x="225" y="746" type="curve" smooth="yes"/>
      <point x="163" y="746"/>
      <point x="142" y="716"/>
      <point x="132" y="680" type="curve" smooth="yes"/>
      <point x="128" y="666"/>
      <point x="125" y="652"/>
      <point x="125" y="640" type="curve" smooth="yes"/>
      <point x="125" y="609"/>
      <point x="148" y="590"/>
    </contour>
  </outline>
</glyph>
<glyph name="dotlessi" format="1">
  <advance width="266"/>
  <unicode hex="0131"/>
  <outline>
    <contour>
      <point x="190" y="0" type="line" name="hr00"/>
      <point x="211" y="106" type="line"/>
      <point x="165" y="106" type="line"/>
      <point x="249" y="525" type="line"/>
      <point x="116" y="525" type="line"/>
      <point x="32" y="105" type="line" smooth="yes"/>
      <point x="30" y="93"/>
      <point x="28" y="77"/>
      <point x="28" y="66" type="curve" smooth="yes"/>
      <point x="28" y="21"/>
      <point x="51" y="0"/>
      <point x="106" y="0" type="curve" smooth="yes"/>
    </contour>
    <contour>
      <point x="114" y="0" type="move" name="bottom"/>
    </contour>
    <contour>
      <point x="196" y="0" type="move" name="bottomright"/>
    </contour>
    <contour>
      <point x="182" y="540" type="move" name="top"/>
    </contour>
  </outline>
</glyph>
<glyph name="IJ" format="1">
  <advance width="569"/>
  <unicode hex="0132"/>
  <outline>
    <contour>
      <point x="383" y="698" type="line" name="hr00"/>
      <point x="361" y="586" type="line"/>
      <point x="435" y="586" type="line"/>
      <point x="356" y="188" type="line" smooth="yes"/>
      <point x="344" y="127"/>
      <point x="318" y="108"/>
      <point x="259" y="108" type="curve" smooth="yes"/>
      <point x="204" y="108"/>
      <point x="177" y="150"/>
      <point x="174" y="205" type="curve"/>
      <point x="52" y="177" type="line"/>
      <point x="60" y="67"/>
      <point x="133" y="-11"/>
      <point x="253" y="-11" type="curve" smooth="yes"/>
      <point x="389" y="-11"/>
      <point x="464" y="44"/>
      <point x="490" y="173" type="curve" smooth="yes"/>
      <point x="595" y="698" type="line"/>
    </contour>
    <contour>
      <point x="69" y="306" type="line"/>
      <point x="206" y="306" type="line"/>
      <point x="285" y="698" type="line"/>
      <point x="148" y="698" type="line"/>
    </contour>
  </outline>
</glyph>
<glyph name="kgreenlandic" format="1">
  <advance width="503"/>
  <unicode hex="0138"/>
  <outline>
    <contour>
      <point x="12" y="0" type="line" name="hr00"/>
      <point x="145" y="0" type="line"/>
      <point x="175" y="149" type="line"/>
      <point x="246" y="225" type="line"/>
      <point x="282" y="68" type="line" smooth="yes"/>
      <point x="294" y="17"/>
      <point x="319" y="0"/>
      <point x="365" y="0" type="curve" smooth="yes"/>
      <point x="437" y="0" type="line"/>
      <point x="458" y="106" type="line"/>
      <point x="400" y="106" type="line"/>
      <point x="352" y="310" type="line"/>
      <point x="543" y="525" type="line"/>
      <point x="389" y="525" type="line"/>
      <point x="264" y="374" type="line"/>
      <point x="208" y="282" type="line"/>
      <point x="194" y="282" type="line"/>
      <point x="220" y="375" type="line"/>
      <point x="250" y="525" type="line"/>
      <point x="117" y="525" type="line"/>
    </contour>
  </outline>
</glyph>
<glyph name="ldot" format="1">
  <advance width="383"/>
  <unicode hex="0140"/>
  <outline>
    <component base="l"/>
    <component base="dotaccent" xOffset="45" yOffset="-325"/>
    <contour>
      <point x="118.0" y="0.0" type="move" name="bottom"/>
    </contour>
    <contour>
      <point x="343.0" y="740.0" type="move" name="topright"/>
    </contour>
  </outline>
</glyph>
<glyph name="Lslash" format="1">
  <advance width="459"/>
  <unicode hex="0141"/>
  <outline>
    <contour>
      <point x="410" y="120" type="line" name="hr00"/>
      <point x="182" y="120" type="line"/>
      <point x="217" y="295" type="line"/>
      <point x="371" y="347" type="line"/>
      <point x="391" y="445" type="line"/>
      <point x="237" y="393" type="line"/>
      <point x="298" y="698" type="line"/>
      <point x="161" y="698" type="line"/>
      <point x="90" y="343" type="line"/>
      <point x="18" y="319" type="line"/>
      <point x="-2" y="221" type="line"/>
      <point x="70" y="245" type="line"/>
      <point x="21" y="0" type="line"/>
      <point x="386" y="0" type="line"/>
    </contour>
  </outline>
</glyph>
<glyph name="lslash" format="1">
  <advance width="276"/>
  <unicode hex="0142"/>
  <outline>
    <contour>
      <point x="225" y="106" type="line" name="hr00"/>
      <point x="169" y="106" type="line"/>
      <point x="218" y="351" type="line"/>
      <point x="307" y="382" type="line"/>
      <point x="326" y="480" type="line"/>
      <point x="238" y="449" type="line"/>
      <point x="296" y="740" type="line"/>
      <point x="163" y="740" type="line"/>
      <point x="95" y="399" type="line"/>
      <point x="22" y="374" type="line"/>
      <point x="2" y="277" type="line"/>
      <point x="76" y="302" type="line"/>
      <point x="36" y="103" type="line" smooth="yes"/>
      <point x="34" y="92"/>
      <point x="32" y="81"/>
      <point x="32" y="72" type="curve" smooth="yes"/>
      <point x="32" y="21"/>
      <point x="55" y="0"/>
      <point x="110" y="0" type="curve" smooth="yes"/>
      <point x="204" y="0" type="line"/>
    </contour>
  </outline>
</glyph>
<glyph name="Eng" format="1">
  <advance width="633"/>
  <unicode hex="014A"/>
  <outline>
    <contour>
      <point x="143" y="0" type="line" name="hr00"/>
      <point x="218" y="373" type="line"/>
      <point x="233" y="510" type="line"/>
      <point x="247" y="510" type="line"/>
      <point x="274" y="373" type="line"/>
      <point x="352" y="0" type="line"/>
      <point x="385" y="0" type="line"/>
      <point x="366" y="-94" type="line"/>
      <point x="297" y="-94" type="line"/>
      <point x="276" y="-200" type="line"/>
      <point x="357" y="-200" type="line" smooth="yes"/>
      <point x="442" y="-200"/>
      <point x="481" y="-171"/>
      <point x="500" y="-76" type="curve"/>
      <point x="655" y="698" type="line"/>
      <point x="525" y="698" type="line"/>
      <point x="450" y="325" type="line"/>
      <point x="433" y="188" type="line"/>
      <point x="419" y="188" type="line"/>
      <point x="394" y="325" type="line"/>
      <point x="316" y="698" type="line"/>
      <point x="153" y="698" type="line"/>
      <point x="13" y="0" type="line"/>
    </contour>
  </outline>
</glyph>
